<svg xmlns="http://www.w3.org/2000/svg" width="175" height="309" viewBox="0 0 175 309"><g><g opacity=".4"><path fill="#e2d9cf" d="M22.35 57.941C16.159 25.751 23.06 11.266 34.704 0c-10.03 13.326-13.675 31.514-8.934 54.722zm4.58 2.672c4.032 11.524 17.094 22.082 16.417 28.198-.677 6.116 0 17.544-6.45 12.104-22.448-19.7-10.128-34.637-10.128-38.853zM10.58 86.88C-4.58 52.566 7.45 22.275 12.643 16.288c-6.612 14.743-9.16 49.669 4.87 73.875zm44.282-6.985c3.935 12.36 17.61 24.593 16.126 30.966-1.484 6.374-2.645 18.252-9.095 12.071-22.867-22.05-7.74-38.338-7.031-43.037zm59.086 106.354c-21.222-22.017-12.03-48.188-11.547-52.469 6.451 15.966 25.222 31.578 22.577 39.69-2.322 8.08-4.128 20.151-11.03 12.779zM48.378 80.281c-19.706-23.885-13.19-45.001-9.676-54.465C36.93 41.01 32.994 53.79 50.25 74.101zM0 89.455c7.676 3.798 42.315 12.039 51.99 41.299 1.968 6.631-16.513-7.017-26.188-11.781C16.158 114.241 13.256 101.108 0 89.455zm87.629 62.319c-21.673-20.859-11.224-43.971-10.805-47.48 4.838 14.228 22.545 28.746 20.513 36.021-1.903 7.21-2.613 18.316-9.708 11.459zm46.024 70.174c-14.288-25.881-.677-55.077.903-60.131 5.128 18.767 22.222 37.759 16.126 46.675-5.386 8.885-12.74 22.082-17.029 13.456zm5.934 34.282c-1.645-24.593 7.741-46.354 35.413-53.628-17.255 16.127-17.9 39.754-21.125 51.213-2.193 9.367-14.288 10.269-14.288 2.447zM42.831 104.037c31.22 47.222 78.179 89.584 88.983 128.565a81.382 81.382 0 0 1 .387 49.411c-4.031 12.812-10.578 20.473-13.094 25.012-9.611 1.03-11.965 3.122-12.611 1.03.129-2.414 7.548-7.887 13.998-20.408a75.521 75.521 0 0 0 5.967-52.405c-9.063-42.49-64.02-88.876-84.34-128.276l.71-2.897zm33.284 84.047c-12.514-3.605-21.222-23.852-43.992-33.413 6.483.29 60.021 12.586 71.439 40.076 3.386 8.498-14.288-3.026-27.447-6.631zm-27.93-33.509c-12.772-3.606-20.932-26.042-41.638-36.857 6.225 1.158 51.217 12.747 71.858 46.224 4.773 8.047-17.094-5.698-30.22-9.335zm47.281 68.66c-10.546-4.249-14.545-25.913-37.283-35.698 5.934.193 58.376 12.103 61.279 40.784.451 8.82-12.417-.708-23.996-5.054zm29.027 37.05c-2.128 7.951-12.481.483-22.157-3.315-4.935-1.835-4.967-8.048-7.45-15.129a31.785 31.785 0 0 0-6.07-11.315 31.857 31.857 0 0 0-10.056-7.999c4.999.193 50.829 11.717 45.733 37.791z"/></g></g></svg>