<svg xmlns="http://www.w3.org/2000/svg" width="27" height="23" viewBox="0 0 27 23"><g><g><path fill="#ddd" d="M13.5 23c-.384 0-.755-.133-1.044-.376a309.331 309.331 0 0 0-3.07-2.528l-.005-.004c-2.72-2.22-5.069-4.136-6.703-6.024C.85 11.957 0 9.956 0 7.769c0-2.124.76-4.084 2.142-5.518C3.54.799 5.457 0 7.542 0c1.56 0 2.986.472 4.243 1.402A8.482 8.482 0 0 1 13.5 3.117a8.483 8.483 0 0 1 1.715-1.715A6.986 6.986 0 0 1 19.457 0c2.086 0 4.004.8 5.401 2.25C26.24 3.686 27 5.646 27 7.77c0 2.186-.85 4.187-2.678 6.298-1.634 1.888-3.983 3.804-6.703 6.024-.929.758-1.982 1.618-3.075 2.533-.289.242-.66.375-1.044.375z"/></g></g></svg>