<svg xmlns="http://www.w3.org/2000/svg" width="90" height="86" viewBox="0 0 90 86"><g><g><g><path fill="#e2d9cf" d="M75.772 33.302c-5.452-.643-10.9-3.151-15.265-7.514-5.557-5.556-8.12-12.871-7.615-19.708 13.948-7.172 28.654-7.172 36.477.652 2.597 2.595-2.984 13.762-13.597 26.57zM74.63 7.322a3.074 3.074 0 0 0-4.349 0 3.073 3.073 0 1 0 4.348 4.348 3.077 3.077 0 0 0 .002-4.348z"/></g><g><path fill="#e2d9cf" d="M47.834 9.02a59.94 59.94 0 0 0-3.057 2.136l-2.391-1.26a5.403 5.403 0 0 0-6.319.95L19.244 27.67a5.41 5.41 0 0 0 1.327 8.594l3.815 2c-3.823 8.915-5.898 17.65-6.464 23.181L1.311 67.16a1.941 1.941 0 0 0-.196 3.594l7.245 3.411a6.74 6.74 0 0 1 3.223 3.224l3.412 7.242a1.945 1.945 0 0 0 3.596-.194L24.31 67.8c7.798-1.286 21.327-7.247 33.076-16.224l1.316 4.062a2.196 2.196 0 0 0 1.585 1.466 2.215 2.215 0 0 0 2.084-.593l1.407-1.408a6.364 6.364 0 0 0 1.855-4.05l.497-7.142a165.538 165.538 0 0 0 5.836-6.189c-5.42-1.256-10.671-4.06-15.005-8.394-5.74-5.741-8.81-13.088-9.128-20.308z"/></g></g></g></svg>