<svg
  xmlns="http://www.w3.org/2000/svg" width="23" height="19" viewBox="0 0 23 19">
  <g>
    <g>
      <g opacity=".5">
        <path fill="#bcbcbc" d="M1.865.18A1.862 1.862 0 0 0 0 2.045C0 3.077.833 3.91 1.865 3.91A1.862 1.862 0 0 0 3.73 2.045 1.862 1.862 0 0 0 1.865.18z"/>
      </g>
      <g opacity=".5">
        <path fill="#bcbcbc" d="M1.865 7.64A1.862 1.862 0 0 0 0 9.505c0 1.032.833 1.865 1.865 1.865A1.862 1.862 0 0 0 3.73 9.505 1.862 1.862 0 0 0 1.865 7.64z"/>
      </g>
      <g opacity=".5">
        <path fill="#bcbcbc" d="M1.865 15.09C.827 15.09 0 15.93 0 16.955a1.87 1.87 0 0 0 1.865 1.865 1.87 1.87 0 0 0 1.865-1.865 1.862 1.862 0 0 0-1.865-1.865z"/>
      </g>
      <g opacity=".5">
        <path fill="#bcbcbc" d="M22.995 15.72H5.59v2.486h17.405z"/>
      </g>
      <g opacity=".5">
        <path fill="#bcbcbc" d="M22.995.8H5.59v2.486h17.405z"/>
      </g>
      <g opacity=".5">
        <path fill="#bcbcbc" d="M22.995 8.26H5.59v2.487h17.405z"/>
      </g>
    </g>
  </g>
</svg>