<svg xmlns="http://www.w3.org/2000/svg" width="20" height="20" viewBox="0 0 20 20"><defs><linearGradient id="7tlia" x1="10" x2="10" y1="0" y2="20" gradientUnits="userSpaceOnUse"><stop offset="0" stop-color="#f3f7ff"/><stop offset="1" stop-color="#c3c7d2"/></linearGradient></defs><g><g><path fill="url(#7tlia)" d="M19.878 18.7a.417.417 0 0 1 0 .589l-.59.589a.417.417 0 0 1-.588 0l-5.81-5.81a7.875 7.875 0 0 1-4.973 1.765C3.55 15.833 0 12.282 0 7.917 0 3.55 3.551 0 7.917 0c4.365 0 7.916 3.551 7.916 7.917a7.875 7.875 0 0 1-1.765 4.973zM14.167 7.917a6.257 6.257 0 0 0-6.25-6.25 6.257 6.257 0 0 0-6.25 6.25 6.257 6.257 0 0 0 6.25 6.25 6.257 6.257 0 0 0 6.25-6.25z"/></g></g></svg>