<svg xmlns="http://www.w3.org/2000/svg" width="240" height="121" viewBox="0 0 240 121"><defs><linearGradient id="6prca" x1="134.13" x2="134.13" y1="74.66" y2="114.79" gradientUnits="userSpaceOnUse"><stop offset="0" stop-color="#f3f7ff"/><stop offset="1" stop-color="#c3c7d2"/></linearGradient><linearGradient id="6prcb" x1="151.34" x2="151.34" y1="3.08" y2="113.78" gradientUnits="userSpaceOnUse"><stop offset="0" stop-color="#f3f7ff"/><stop offset="1" stop-color="#c3c7d2"/></linearGradient><linearGradient id="6prcc" x1="198.58" x2="198.58" y1="62.79" y2="120.55" gradientUnits="userSpaceOnUse"><stop offset="0" stop-color="#f3f7ff"/><stop offset="1" stop-color="#c3c7d2"/></linearGradient><linearGradient id="6prcd" x1="183.87" x2="183.87" y1=".51" y2="50.6" gradientUnits="userSpaceOnUse"><stop offset="0" stop-color="#f3f7ff"/><stop offset="1" stop-color="#c3c7d2"/></linearGradient><linearGradient id="6prce" x1="70.6" x2="70.6" y1=".51" y2="24.93" gradientUnits="userSpaceOnUse"><stop offset="0" stop-color="#f3f7ff"/><stop offset="1" stop-color="#c3c7d2"/></linearGradient><linearGradient id="6prcf" x1="89.43" x2="89.43" y1="62.79" y2="120.46" gradientUnits="userSpaceOnUse"><stop offset="0" stop-color="#f3f7ff"/><stop offset="1" stop-color="#c3c7d2"/></linearGradient><linearGradient id="6prcg" x1="30.2" x2="30.2" y1="13.69" y2="46.58" gradientUnits="userSpaceOnUse"><stop offset="0" stop-color="#f3f7ff"/><stop offset="1" stop-color="#c3c7d2"/></linearGradient><linearGradient id="6prch" x1="36.71" x2="36.71" y1="24.89" y2="119.39" gradientUnits="userSpaceOnUse"><stop offset="0" stop-color="#f3f7ff"/><stop offset="1" stop-color="#c3c7d2"/></linearGradient></defs><g><g><g><g><path fill="url(#6prca)" d="M140.814 104.31a24.683 24.683 0 0 0 2.201-3.633 13.58 13.58 0 0 0 1.089-3.172l-1.054-1.153-3.231-.45v-2.307h11.871v2.307l-4.18.565a33.014 33.014 0 0 1-2.048 5.237 28.632 28.632 0 0 1-2.81 4.613l4.543 5.202 5.338.277v2.306h-10.302v-1.384l-2.623-2.895a23.456 23.456 0 0 1-5.784 3.714 13.955 13.955 0 0 1-5.678 1.246 12.65 12.65 0 0 1-8.91-3.241 10.615 10.615 0 0 1-2.644-3.662 10.474 10.474 0 0 1-.868-4.412 9.805 9.805 0 0 1 1.897-6.078 14.187 14.187 0 0 1 5.854-4.279 19.79 19.79 0 0 1-3.665-4.613 8.88 8.88 0 0 1-1.005-5.862 8.962 8.962 0 0 1 2.925-5.2 10.878 10.878 0 0 1 7.587-2.767c2.637-.107 5.22.766 7.235 2.445a7.9 7.9 0 0 1 2.113 2.779 7.79 7.79 0 0 1 .697 3.403 8.546 8.546 0 0 1-1.967 5.686 18.736 18.736 0 0 1-6.615 4.567zm-15.173-9.504a11.338 11.338 0 0 0-3.513 3.38 7.548 7.548 0 0 0-1.089 4.048 9.146 9.146 0 0 0 2.424 6.54 8.08 8.08 0 0 0 2.801 1.946 8.187 8.187 0 0 0 3.369.626c1.462.007 2.91-.288 4.25-.865a13.568 13.568 0 0 0 3.875-2.595zm3.137-3.183a10.521 10.521 0 0 0 4.367-3.264 7.77 7.77 0 0 0 1.37-4.613 6.546 6.546 0 0 0-1.557-4.614 5.304 5.304 0 0 0-1.894-1.32 5.374 5.374 0 0 0-2.286-.398 5.148 5.148 0 0 0-2.113.388 5.082 5.082 0 0 0-1.762 1.215 5.605 5.605 0 0 0-1.184 1.872 5.541 5.541 0 0 0-.361 2.176 7.509 7.509 0 0 0 1.229 4.014 21.78 21.78 0 0 0 4.191 4.544z"/></g><g><g><path fill="url(#6prcb)" d="M127.684 23.84c-2.248-11.533.257-16.723 4.484-20.76-3.642 4.775-4.964 11.291-3.243 19.607zm1.662.958c1.463 4.129 6.205 7.912 5.96 10.103-.247 2.192 0 6.286-2.342 4.337-8.149-7.059-3.677-12.41-3.677-13.921zm-5.936 9.411c-5.503-12.295-1.135-23.148.75-25.293-2.4 5.283-3.326 17.797 1.767 26.47zm16.075-2.502c1.428 4.429 6.393 8.811 5.854 11.095-.539 2.284-.96 6.54-3.302 4.325-8.3-7.9-2.81-13.737-2.552-15.42zm21.449 38.107c-7.704-7.89-4.367-17.266-4.192-18.8 2.342 5.72 9.156 11.315 8.196 14.221-.843 2.895-1.499 7.22-4.004 4.579zm-23.802-37.969c-7.154-8.558-4.789-16.124-3.513-19.515-.644 5.444-2.072 10.023 4.192 17.3zm-17.562 3.287c2.786 1.361 15.36 4.314 18.873 14.798.714 2.376-5.994-2.514-9.507-4.221-3.5-1.696-4.554-6.402-9.366-10.577zm31.81 22.33c-7.867-7.475-4.074-15.756-3.922-17.013 1.756 5.098 8.184 10.3 7.446 12.906-.69 2.584-.948 6.563-3.524 4.106zm16.707 25.143c-5.186-9.273-.246-19.734.328-21.545 1.862 6.724 8.067 13.529 5.854 16.724-1.955 3.183-4.625 7.912-6.182 4.82zm2.155 12.283c-.598-8.812 2.81-16.608 12.855-19.215-6.264 5.778-6.498 14.244-7.669 18.35-.796 3.356-5.186 3.68-5.186.877zm-35.124-54.531c11.333 16.92 28.38 32.098 32.302 46.065a28.802 28.802 0 0 1 .14 17.705c-1.463 4.59-3.84 7.335-4.753 8.961-3.489.369-4.344 1.119-4.578.369.047-.865 2.74-2.825 5.081-7.312a26.741 26.741 0 0 0 2.166-18.777c-3.29-15.224-23.24-31.844-30.616-45.962l.258-1.038zm12.083 30.114c-4.543-1.291-7.704-8.546-15.97-11.972 2.353.104 21.788 4.51 25.933 14.36 1.23 3.045-5.187-1.084-9.964-2.376zm-10.14-12.006c-4.636-1.292-7.598-9.331-15.114-13.206 2.26.415 18.592 4.567 26.085 16.562 1.732 2.884-6.205-2.041-10.97-3.345zm17.164 24.601c-3.828-1.522-5.28-9.284-13.534-12.79 2.154.069 21.191 4.336 22.245 14.612.164 3.16-4.508-.253-8.71-1.81zm10.537 13.275c-.772 2.85-4.53.173-8.043-1.188-1.791-.657-1.803-2.883-2.705-5.42a11.34 11.34 0 0 0-2.203-4.055 11.539 11.539 0 0 0-3.65-2.866c1.814.07 18.451 4.199 16.601 13.54z"/></g></g><g><path fill="url(#6prcc)" d="M203.712 62.79v4.221h.316c1.721-.092 10.104-.253 12.375 4.914.394.915.59 1.9.574 2.895v13.344a20.51 20.51 0 0 1-2.356 9.567 20.858 20.858 0 0 1-6.565 7.422 39.237 39.237 0 0 1-21.636 7.116h-.668a38.29 38.29 0 0 1-14.248-2.768 41.361 41.361 0 0 1-7.692-4.106c-1.475 3.264-3.946 6.54-6.662 7.901a47.942 47.942 0 0 0 20.22 7h.105c1.594.173 3.196.257 4.8.255 2.376 0 4.748-.181 7.095-.542h.222c10.409-1.661 19.845-5.387 27.385-12.93l.176.6v.104l2.095 7.093h6.92s.246-11.2.445-22.04c.082-4.614.152-9.124.187-12.688v-4.544a6.957 6.957 0 0 1 .67-3.206 7.066 7.066 0 0 1 2.07-2.56 12.433 12.433 0 0 1 4.929-2.146 22.282 22.282 0 0 1 4.132-.485h1.405V62.79z"/></g><g><path fill="url(#6prcd)" d="M151.44 25.457a6.794 6.794 0 0 1 1.37-3.321c8.195-10.577 19.903-17.209 32.852-17.232h.14c4.492.022 8.944.83 13.148 2.388.714.254 1.429.542 2.131.853a36.567 36.567 0 0 1 7.727 4.44l.106.07a54.213 54.213 0 0 1 4.847 4.083c.057.05.112.105.163.161.13.116.258.243.375.37.117.126.246.242.363.369a50.297 50.297 0 0 1 5.924 7.266h6.545L216.863 2.932l-11.087 3.645-.351.115-1.09-.6A47.197 47.197 0 0 0 182.642.51h-.492a46.77 46.77 0 0 0-3.828.161h-.34c-15.22 1.35-28.532 10.023-37.371 22.918.433 3.771 2.342 7.485 4.94 11.026 4.344 6.02 10.397 11.534 13.476 15.986-1.709-5.352-9.167-12.93-7.586-25.144z"/></g><g><path fill="url(#6prce)" d="M109.176 24.927h-6.474a50.298 50.298 0 0 0-5.924-7.266 5.4 5.4 0 0 0-.363-.37c-.129-.115-.246-.253-.375-.369l-.164-.161a55.994 55.994 0 0 0-4.847-4.083l-.105-.07a36.569 36.569 0 0 0-7.727-4.44 38.265 38.265 0 0 0-15.408-3.264c-10.83 0-20.758 4.614-28.497 12.295-1.686-1.418-5.936-4.071-7.282-4.14C39.901 6.048 49.862 1.707 60.437.67A46.705 46.705 0 0 1 64.253.51h.504a47.115 47.115 0 0 1 21.636 5.548l1.1.6 11.439-3.76z"/></g><g><path fill="url(#6prcf)" d="M122.088 62.79v4.221a22.82 22.82 0 0 0-5.514.485 12.428 12.428 0 0 0-4.93 2.214 7.066 7.066 0 0 0-2.08 2.558 6.957 6.957 0 0 0-.682 3.209v4.544c0 3.576-.106 8.074-.2 12.687-.187 10.842-.433 22.041-.433 22.041h-6.93l-2.132-7.197-.175-.6c-7.54 7.544-16.977 11.269-27.385 12.93a46.533 46.533 0 0 1-7.329.576c-1.6.003-3.198-.082-4.788-.253h-.153a48.088 48.088 0 0 1-2.587-.346 7.288 7.288 0 0 0 2.48-2.62 7.158 7.158 0 0 0 .904-3.47 7.022 7.022 0 0 0-.445-2.376 38.14 38.14 0 0 0 8.066.865h.597a39.133 39.133 0 0 0 21.777-7.116 20.854 20.854 0 0 0 6.53-7.426 20.51 20.51 0 0 0 2.333-9.552V74.843c0-8.916-13.265-7.797-13.265-7.797V62.79z"/></g><g><path fill="url(#6prcg)" d="M60.235 23.461a7.426 7.426 0 0 1-.293 1.153c-.054.189-.12.374-.2.554l-.105.277-.14.288a8.499 8.499 0 0 1-3.325 3.46 13 13 0 0 1-4.332 1.626 14.37 14.37 0 0 1-9.027-1.234 34.211 34.211 0 0 1-3.7-2.306l-3.371-2.4a62.225 62.225 0 0 0-6.709-4.324 24.2 24.2 0 0 0-7.13-2.665 15.048 15.048 0 0 0-7.364.496c-1.2.398-2.354.92-3.442 1.557a13.861 13.861 0 0 0-2.904 2.215 10.326 10.326 0 0 0-3.09 6.032 11.305 11.305 0 0 0 1.17 6.436 13.105 13.105 0 0 0 4.203 4.936c.293.22.597.404.902.588.639.356 1.304.665 1.99.923.518.205 1.05.375 1.592.507.546.18 1.1.33 1.663.45 1.231.19 2.477.268 3.723.23 1.323 0 2.704-.138 4.215-.253a11.38 11.38 0 0 1-3.419 2.884c-.988.569-2.052 1-3.161 1.28a4.714 4.714 0 0 1-2.501-1.136 4.602 4.602 0 0 1-1.421-2.324 2.648 2.648 0 0 0 0 .611c.057.632.25 1.246.568 1.799.317.553.75 1.032 1.27 1.407a12.903 12.903 0 0 1-3.7-.196l-.328-.069a14.576 14.576 0 0 1-4.624-1.926 15.734 15.734 0 0 1-6.17-7.532 15.228 15.228 0 0 1-.562-9.538 15.685 15.685 0 0 1 5.081-7.843 20.599 20.599 0 0 1 3.77-2.537 23.077 23.077 0 0 1 2.025-.957c.691-.289 1.394-.543 2.108-.762 1.446-.45 2.938-.74 4.449-.865a19.19 19.19 0 0 1 4.53.15 25.052 25.052 0 0 1 8.337 2.941 57.228 57.228 0 0 1 7.024 4.73l3.267 2.49a29.752 29.752 0 0 0 3.184 2.18 11.208 11.208 0 0 0 7.025 1.211 10.016 10.016 0 0 0 3.395-1.153 5.997 5.997 0 0 0 2.342-2.307 6.652 6.652 0 0 0 .75-3.275 6.063 6.063 0 0 0-1.078-3.16 5.063 5.063 0 0 0-2.634-1.938 6.034 6.034 0 0 0-3.442 0 5.423 5.423 0 0 0-2.927 1.753 4.013 4.013 0 0 0-.784 3.16 5.734 5.734 0 0 0 1.557 3.149c.437.466.994.808 1.613.989.618.18 1.274.193 1.899.037a3.3 3.3 0 0 1-2.084.658 4.942 4.942 0 0 1-1.17-.22 5.205 5.205 0 0 1-1.043-.53 6.082 6.082 0 0 1-2.47-3.783 6.41 6.41 0 0 1 0-2.364c.144-.799.46-1.558.925-2.226a7.553 7.553 0 0 1 3.875-2.653 8.087 8.087 0 0 1 4.683-.196 7.46 7.46 0 0 1 3.993 2.71 8.333 8.333 0 0 1 1.65 4.418 8.87 8.87 0 0 1-.128 2.387z"/></g><g><path fill="url(#6prch)" d="M63.736 94.941a8.152 8.152 0 0 1-3.35 2.992 7.096 7.096 0 0 1 2.097 5.04 6.996 6.996 0 0 1-1.744 4.67 7.197 7.197 0 0 1-4.438 2.377c.207.673.314 1.373.316 2.076a6.918 6.918 0 0 1-.456 2.77 6.999 6.999 0 0 1-1.522 2.371 7.122 7.122 0 0 1-2.344 1.595 7.21 7.21 0 0 1-5.581 0 7.123 7.123 0 0 1-2.344-1.594 7 7 0 0 1-1.522-2.372 6.918 6.918 0 0 1-.456-2.77 7.07 7.07 0 0 1 .565-2.777 7.16 7.16 0 0 1 1.613-2.344 7.133 7.133 0 0 1-2.175-3.512 7.05 7.05 0 0 1 .15-4.112 8.202 8.202 0 0 1-4.326-2.869 7.996 7.996 0 0 1-1.693-4.858h-.234a8.257 8.257 0 0 1-5.762-2.401 8.012 8.012 0 0 1-2.363-5.707.218.218 0 0 1 0-.093 8.58 8.58 0 0 1-1.815.208 8.26 8.26 0 0 1-5.795-2.365 8.014 8.014 0 0 1-2.4-5.709 8.28 8.28 0 0 1 .293-2.11 8.232 8.232 0 0 1-3.663.025 8.164 8.164 0 0 1-3.3-1.564 8.013 8.013 0 0 1-2.266-2.835 7.893 7.893 0 0 1-.77-3.527 8.064 8.064 0 0 1 .781-3.47 8.182 8.182 0 0 1 2.205-2.816 8.178 8.178 0 0 1-2.114-2.976 8.069 8.069 0 0 1 .442-7.07 8.22 8.22 0 0 1 2.468-2.698l-.14-.22a8.036 8.036 0 0 1-.404-7.294A8.155 8.155 0 0 1 13.974 36a8.315 8.315 0 0 1 3.41-1.674 7.945 7.945 0 0 1 2.251-7.09 8.188 8.188 0 0 1 5.745-2.345c2.155 0 4.222.843 5.746 2.344a7.944 7.944 0 0 1 2.38 5.66c0 .336-.024.671-.07 1.004a8.237 8.237 0 0 1 5.227 2.653 8.005 8.005 0 0 1 2.078 5.42 8.11 8.11 0 0 1-1.674 4.925c.474-.093.957-.139 1.44-.138 2.174 0 4.258.85 5.795 2.365a8.013 8.013 0 0 1 2.4 5.708 8.311 8.311 0 0 1-.304 2.18c.328-.018.656-.018.984 0a8.257 8.257 0 0 1 5.75 2.39 8.013 8.013 0 0 1 2.375 5.684c0 1.474-.405 2.92-1.171 4.187a8.322 8.322 0 0 1 4.21 1.91 8.13 8.13 0 0 1 2.505 3.843c.446 1.49.45 3.075.01 4.567a8.13 8.13 0 0 1-2.487 3.854 8.215 8.215 0 0 1 3.213 3.004 8.052 8.052 0 0 1 1.178 4.205 7.984 7.984 0 0 1-1.23 4.286zm-9.472-12.636a4.84 4.84 0 0 1-2.718-1.088 4.72 4.72 0 0 1-1.567-2.442 3.639 3.639 0 0 0 0 .623 4.908 4.908 0 0 0 1.43 2.855 5.04 5.04 0 0 0 2.902 1.401c3.254.438 6.158-1.903 6.04-4.487a1.962 1.962 0 0 0 0-.369c-.327 2.273-2.985 3.91-6.087 3.507zM36.21 77.287a5.092 5.092 0 0 0 1.485 2.974 5.23 5.23 0 0 0 3.023 1.455c3.395.473 6.427-1.983 6.31-4.682v-.38c-.34 2.375-3.15 4.082-6.263 3.655a5.017 5.017 0 0 1-2.84-1.127 4.893 4.893 0 0 1-1.633-2.552c-.05.216-.078.436-.082.657zM34.196 65.87a4.07 4.07 0 0 0 1.153 2.363 4.179 4.179 0 0 0 2.372 1.19c2.68.38 5.116-1.58 5.022-3.726a1.41 1.41 0 0 0 0-.311c-.316 1.891-2.505 3.264-4.999 2.918a4.001 4.001 0 0 1-2.231-.912 3.902 3.902 0 0 1-1.281-2.018 2.515 2.515 0 0 0 0 .52zm9.261 19.273a1.72 1.72 0 0 0-.011.45c.094.752.441 1.452.987 1.988a3.463 3.463 0 0 0 2.022.964c2.26.346 4.273-1.314 4.191-3.114.006-.084.006-.169 0-.253-.234 1.58-2.107 2.721-4.18 2.433a3.341 3.341 0 0 1-1.887-.75 3.259 3.259 0 0 1-1.087-1.695zm2.37-16.774a4.7 4.7 0 0 1-1.609-2.441 3.702 3.702 0 0 0 0 .623 4.886 4.886 0 0 0 1.43 2.852 5.018 5.018 0 0 0 2.902 1.392c3.255.45 6.159-1.891 6.042-4.475a3.606 3.606 0 0 0 0-.37c-.328 2.239-3.021 3.876-6.006 3.461a4.818 4.818 0 0 1-2.759-1.042zm-7.964-10.801a4.71 4.71 0 0 1-1.57-2.447 2.783 2.783 0 0 0 0 .623c.129 1.08.619 2.087 1.392 2.864a5.015 5.015 0 0 0 2.88 1.426c3.255.45 6.159-1.903 6.042-4.487v-.357c-.34 2.226-3.032 3.875-6.018 3.46a4.829 4.829 0 0 1-2.726-1.082zM29.28 45.604a4.688 4.688 0 0 1-1.605-2.433 3.486 3.486 0 0 0 0 .611 4.897 4.897 0 0 0 1.428 2.857 5.028 5.028 0 0 0 2.904 1.4c3.255.449 6.158-1.904 6.041-4.487v-.37c-.327 2.226-3.02 3.864-6.017 3.46a4.807 4.807 0 0 1-2.75-1.038zm4.835 10.946v-.37c-.328 2.238-3.021 3.876-6.006 3.461a4.806 4.806 0 0 1-2.706-1.054 4.688 4.688 0 0 1-1.58-2.406 2.648 2.648 0 0 0 0 .611 4.886 4.886 0 0 0 1.426 2.86 5.017 5.017 0 0 0 2.906 1.396c3.255.45 6.159-1.903 5.96-4.498zm-.527 12.087c-.293 1.972-2.705 3.495-5.374 3.126a4.31 4.31 0 0 1-2.433-.96 4.203 4.203 0 0 1-1.407-2.177c-.018.18-.018.362 0 .542.123.969.571 1.87 1.273 2.56a4.475 4.475 0 0 0 2.602 1.246c2.904.404 5.503-1.695 5.397-4.002a2.938 2.938 0 0 0-.058-.335zm-19.014-23.56c.305.562.728 1.052 1.241 1.439a5.156 5.156 0 0 0 2.482 1.05c3.255.449 6.159-1.904 6.041-4.487a2.068 2.068 0 0 0 0-.37c-.327 2.238-3.02 3.876-6.006 3.46l-.363-.057a4.715 4.715 0 0 1-2.5-1.136 4.601 4.601 0 0 1-1.422-2.324 2.648 2.648 0 0 0 0 .611c.043.635.222 1.254.527 1.815zm6.088-11.248c-.059.237-.086.482-.082.726a4.898 4.898 0 0 0 1.428 2.857 5.029 5.029 0 0 0 2.904 1.4c3.255.437 6.158-1.904 6.041-4.487v-.37c-.316 2.227-3.02 3.864-6.006 3.46a4.826 4.826 0 0 1-2.719-1.114 4.707 4.707 0 0 1-1.542-2.472zm-7.901 23.37a5.026 5.026 0 0 0 2.867 1.439c3.255.438 6.158-1.915 6.041-4.487a3.55 3.55 0 0 0 0-.37c-.328 2.227-3.02 3.865-6.006 3.461-1-.073-1.95-.452-2.719-1.086a4.709 4.709 0 0 1-1.566-2.443 2.704 2.704 0 0 0 0 .622 4.895 4.895 0 0 0 1.383 2.863zm8.943 9.42v-.37c-.328 2.227-3.02 3.865-6.006 3.46a4.829 4.829 0 0 1-2.751-1.093 4.708 4.708 0 0 1-1.569-2.482 2.783 2.783 0 0 0 0 .623 4.897 4.897 0 0 0 1.428 2.857 5.029 5.029 0 0 0 2.904 1.4c3.255.437 6.158-1.904 5.994-4.395zm9.214 10.126v-.369c-.316 2.226-3.02 3.864-6.006 3.46a4.806 4.806 0 0 1-2.705-1.053 4.688 4.688 0 0 1-1.58-2.407 2.647 2.647 0 0 0 0 .612 4.897 4.897 0 0 0 1.428 2.857 5.029 5.029 0 0 0 2.904 1.399c3.255.392 6.158-1.961 5.96-4.499zm4.496 12.768c3.22.438 6.158-1.903 5.994-4.44a3.496 3.496 0 0 0 0-.37c-.327 2.227-3.02 3.864-6.006 3.46a4.83 4.83 0 0 1-2.725-1.052 4.712 4.712 0 0 1-1.595-2.419 2.76 2.76 0 0 0 0 .623 4.897 4.897 0 0 0 1.428 2.857 5.028 5.028 0 0 0 2.904 1.399zm8.254 7.808c3.255.439 6.158-1.902 5.9-4.382v-.37c-.327 2.227-3.02 3.864-6.005 3.46-1-.072-1.95-.452-2.72-1.085a4.71 4.71 0 0 1-1.565-2.444 2.748 2.748 0 0 0 0 .623 4.897 4.897 0 0 0 1.428 2.857 5.028 5.028 0 0 0 2.904 1.4zm.586 5.929c.085.744.413 1.44.934 1.986a3.529 3.529 0 0 0 1.957 1.036c2.26.334 4.285-1.327 4.203-3.126.005-.085.005-.17 0-.254-.222 1.58-2.095 2.722-4.168 2.434a3.341 3.341 0 0 1-1.894-.747 3.259 3.259 0 0 1-1.091-1.698 2.62 2.62 0 0 0 0 .427zm4.6 13.886c3.256.45 6.17-1.903 5.937-4.498v-.369c-.328 2.238-3.033 3.875-6.018 3.46a4.805 4.805 0 0 1-2.706-1.053 4.688 4.688 0 0 1-1.58-2.407 2.648 2.648 0 0 0 0 .611 4.885 4.885 0 0 0 1.414 2.86 5.016 5.016 0 0 0 2.895 1.408zm11.837-12.756c-.269 1.88-2.505 3.23-5.07 2.895a3.989 3.989 0 0 1-2.23-.905 3.891 3.891 0 0 1-1.282-2.013 2.572 2.572 0 0 0 0 .52c.116.894.53 1.726 1.18 2.363a4.146 4.146 0 0 0 2.403 1.154c2.658.369 5.093-1.58 5-3.714zm1.194-12.802a1.881 1.881 0 0 0 0-.37c-.327 2.227-3.02 3.864-6.017 3.46a4.84 4.84 0 0 1-2.718-1.087 4.72 4.72 0 0 1-1.567-2.442 3.7 3.7 0 0 0 0 .623 4.908 4.908 0 0 0 1.43 2.855 5.04 5.04 0 0 0 2.902 1.401c3.254.438 6.135-1.903 5.97-4.44z"/></g></g></g></g></svg>