<svg width="164" height="276" viewBox="0 0 164 276" fill="none" xmlns="http://www.w3.org/2000/svg">
<g opacity="0.4">
<path d="M152.183 25.2843C152.015 26.2973 151.767 27.2953 151.443 28.2689C151.307 28.757 151.139 29.2355 150.94 29.7015L150.674 30.4178L150.319 31.1639C148.429 34.9004 145.513 38.0087 141.919 40.1176C138.553 42.1767 134.844 43.6026 130.974 44.3258C123.231 45.8226 115.215 44.7001 108.168 41.1323C104.929 39.3465 101.807 37.3527 98.8207 35.1632L90.3017 28.9553C84.8967 24.8604 79.2351 21.1219 73.3525 17.7633C67.7507 14.5103 61.6691 12.1827 55.3383 10.869C49.1283 9.70812 42.7283 10.1496 36.7326 12.1523C33.701 13.1819 30.7859 14.5325 28.0361 16.1815C25.3502 17.7555 22.8834 19.6824 20.7003 21.9118C16.4448 26.0905 13.6961 31.5848 12.8913 37.521C12.2525 43.2444 13.2804 49.0315 15.8492 54.1748C18.2758 59.261 21.9266 63.6527 26.4684 66.9487C27.2079 67.5158 27.977 67.9933 28.7461 68.4708C30.3609 69.3921 32.0418 70.1902 33.7746 70.8585C35.0838 71.3899 36.428 71.8287 37.7975 72.1717C39.1752 72.6377 40.5775 73.0262 41.9978 73.3357C45.1082 73.828 48.2572 74.0279 51.4042 73.9326C54.7467 73.9326 58.2372 73.5744 62.053 73.276C59.6926 76.3162 56.7565 78.8526 53.4157 80.7374C50.919 82.2108 48.2309 83.3258 45.4291 84.0502C43.0782 83.7319 40.8764 82.708 39.1094 81.1114C37.3424 79.5148 36.0918 77.4192 35.5198 75.0966C35.4602 75.6221 35.4602 76.1528 35.5198 76.6784C35.6644 78.3151 36.1535 79.9018 36.9543 81.3326C37.7552 82.7634 38.8494 84.0053 40.1639 84.9754C37.0403 85.2677 33.8911 85.0968 30.8166 84.4681L29.9884 84.289C25.8355 83.3278 21.8812 81.641 18.3044 79.3048C11.2021 74.6287 5.74612 67.8075 2.71579 59.8156C-0.331348 51.9465 -0.828421 43.3054 1.29596 35.1334C3.44587 27.2156 7.92145 20.1402 14.1336 14.8384C17.0574 12.3001 20.2519 10.0979 23.6583 8.27239C25.3444 7.34718 27.0304 6.54135 28.7756 5.79521C30.5208 5.04907 32.2956 4.39247 34.1 3.8254C37.7533 2.66239 41.5231 1.91166 45.3404 1.58699C49.1578 1.25263 53.0012 1.38289 56.7878 1.97498C64.2036 3.21705 71.3374 5.79497 77.8486 9.5856C84.0575 13.2141 89.9899 17.3043 95.5965 21.8223L103.849 28.2689C106.407 30.3238 109.094 32.2081 111.895 33.9097C117.306 36.9022 123.546 38.004 129.643 37.0435C132.659 36.5837 135.566 35.5723 138.221 34.0589C140.706 32.664 142.755 30.5967 144.137 28.0898C145.467 25.471 146.118 22.555 146.03 19.6137C145.89 16.6864 144.948 13.8556 143.309 11.436C141.704 9.06511 139.362 7.30095 136.653 6.42197C133.818 5.5571 130.792 5.5571 127.957 6.42197C125.07 7.08587 122.475 8.67791 120.562 10.9585C119.692 12.1109 119.067 13.4319 118.726 14.8389C118.385 16.246 118.335 17.7088 118.58 19.1362C119.023 22.198 120.397 25.0453 122.514 27.284C123.62 28.4915 125.027 29.3757 126.589 29.8432C128.151 30.3107 129.809 30.3442 131.388 29.9403C129.879 31.1012 128.02 31.702 126.123 31.6415C125.118 31.5753 124.124 31.3849 123.165 31.0744C122.239 30.7189 121.355 30.2583 120.532 29.7015C117.29 27.3616 115.057 23.8594 114.291 19.9122C113.921 17.8898 113.921 15.8161 114.291 13.7938C114.655 11.7278 115.451 9.76403 116.628 8.03363C119.081 4.74891 122.512 2.34324 126.419 1.16915C130.223 -0.192327 134.345 -0.369093 138.251 0.661776C142.293 1.80088 145.843 4.26929 148.337 7.67548C150.778 11.0074 152.225 14.9731 152.508 19.1063C152.673 21.1711 152.563 23.2488 152.183 25.2843Z" fill="#E2D9CF"/>
<path fill-rule="evenodd" clip-rule="evenodd" d="M164 200.256C164.007 196.4 162.983 192.615 161.036 189.308C159.089 186.002 156.295 183.299 152.953 181.491C155.935 178.824 158.107 175.343 159.211 171.459C160.315 167.575 160.306 163.45 159.185 159.57C158.064 155.691 155.878 152.22 152.884 149.566C149.89 146.912 146.213 145.187 142.288 144.593C144.216 141.297 145.234 137.531 145.234 133.694C145.234 128.152 143.086 122.833 139.257 118.897C135.428 114.961 130.228 112.726 124.79 112.678C123.965 112.631 123.139 112.631 122.315 112.678C122.812 110.829 123.07 108.921 123.081 107.004C123.081 101.43 120.908 96.0842 117.041 92.1429C113.174 88.2016 107.929 85.9874 102.459 85.9874C101.243 85.9854 100.029 86.106 98.836 86.3476C101.568 82.6534 103.047 78.1537 103.049 73.5277C103.079 68.3276 101.216 63.3007 97.8208 59.4188C94.4254 55.537 89.7385 53.076 84.6661 52.5114C84.7836 51.6459 84.8426 50.7732 84.8428 49.8994C84.8428 44.3733 82.6888 39.0736 78.8547 35.1661C75.0206 31.2585 69.8204 29.0633 64.3981 29.0633C58.9758 29.0633 53.7756 31.2585 49.9415 35.1661C46.1074 39.0736 43.9534 44.3733 43.9534 49.8994C43.9563 51.1476 44.0648 52.3931 44.2775 53.6223C41.1232 54.3743 38.185 55.8668 35.6968 57.9809C33.2087 60.0949 31.2395 62.7721 29.9462 65.799C28.6529 68.8259 28.0713 72.1188 28.2476 75.4153C28.4239 78.7118 29.3534 81.9208 30.9619 84.7864L31.3154 85.3569C28.7548 87.1943 26.6324 89.5951 25.1053 92.3815C23.5782 95.1679 22.6854 98.2686 22.4931 101.454C22.3007 104.64 22.8137 107.829 23.9941 110.785C25.1744 113.741 26.992 116.389 29.3122 118.533C26.9577 120.53 25.064 123.032 23.7657 125.86C22.4673 128.688 21.7962 131.773 21.8 134.895C21.7507 138.066 22.4134 141.207 23.7373 144.077C25.0613 146.947 27.0115 149.471 29.439 151.455C31.8664 153.439 34.7069 154.832 37.7433 155.526C40.7797 156.221 43.9316 156.198 46.9582 155.461C46.4849 157.253 46.2374 159.1 46.2218 160.955C46.2218 166.529 48.3944 171.875 52.2617 175.816C56.1289 179.757 61.3741 181.972 66.8432 181.972C68.38 181.96 69.911 181.779 71.4094 181.431C71.3927 181.51 71.3927 181.592 71.4094 181.671C71.3858 187.23 73.5238 192.571 77.3555 196.527C81.1871 200.483 86.4003 202.73 91.8541 202.778H92.4433C92.4744 207.354 93.97 211.794 96.7029 215.425C99.4359 219.055 103.257 221.678 107.585 222.893C106.434 226.346 106.303 230.068 107.209 233.596C108.115 237.124 110.018 240.303 112.682 242.739C110.944 244.477 109.564 246.552 108.623 248.841C107.682 251.13 107.199 253.587 107.202 256.069C107.105 258.526 107.495 260.979 108.35 263.279C109.206 265.578 110.508 267.678 112.18 269.452C113.851 271.226 115.857 272.638 118.077 273.602C120.297 274.566 122.686 275.063 125.099 275.063C127.512 275.063 129.901 274.566 132.121 273.602C134.341 272.638 136.347 271.226 138.018 269.452C139.69 267.678 140.992 265.578 141.848 263.279C142.703 260.979 143.093 258.526 142.995 256.069C142.99 254.238 142.722 252.417 142.2 250.665C146.536 250.053 150.505 247.854 153.367 244.478C156.229 241.103 157.789 236.782 157.754 232.321C157.764 227.41 155.868 222.694 152.481 219.2C155.951 217.461 158.871 214.762 160.908 211.412C162.944 208.063 164.016 204.197 164 200.256ZM152.393 169.392C152.422 169.711 152.422 170.033 152.393 170.353C152.687 177.078 145.382 183.173 137.192 182.032C134.43 181.671 131.862 180.389 129.89 178.384C127.919 176.38 126.653 173.767 126.292 170.953C126.247 170.414 126.247 169.871 126.292 169.332C126.924 171.818 128.303 174.041 130.237 175.688C132.17 177.336 134.561 178.325 137.074 178.519C144.881 179.57 151.568 175.306 152.393 169.392ZM91.8541 163.748C92.5041 166.347 93.9413 168.671 95.9614 170.391C97.9816 172.11 100.482 173.137 103.108 173.325C110.944 174.436 118.014 169.992 118.868 163.808C118.868 164.138 118.868 164.468 118.868 164.798C119.163 171.824 111.533 178.219 102.99 176.988C100.113 176.619 97.4375 175.287 95.3845 173.2C93.3315 171.113 92.0171 168.39 91.6479 165.459C91.6574 164.883 91.7266 164.309 91.8541 163.748V163.748ZM86.6693 135.796C86.6244 135.347 86.6244 134.894 86.6693 134.445C87.1823 136.494 88.3091 138.33 89.893 139.697C91.4768 141.063 93.4391 141.893 95.5071 142.071C101.782 142.971 107.291 139.399 108.086 134.475C108.115 134.744 108.115 135.016 108.086 135.286C108.322 140.87 102.194 145.974 95.4482 144.983C93.18 144.645 91.0837 143.557 89.4816 141.886C87.8794 140.216 86.8603 138.055 86.5809 135.736L86.6693 135.796ZM109.972 185.965C110.406 187.692 111.362 189.235 112.705 190.378C114.048 191.52 115.709 192.203 117.454 192.33C122.669 193.08 127.382 190.108 127.971 185.995C127.986 186.215 127.986 186.435 127.971 186.655C128.177 191.339 123.11 195.662 117.425 194.762C115.501 194.528 113.71 193.644 112.338 192.25C110.965 190.857 110.091 189.035 109.854 187.076C109.814 186.686 109.824 186.292 109.883 185.905L109.972 185.965ZM122.786 144.953C130.298 146.034 137.074 141.771 137.899 135.946C137.915 136.266 137.915 136.587 137.899 136.907C138.194 143.632 130.888 149.727 122.698 148.556C119.936 148.206 117.367 146.932 115.394 144.932C113.421 142.932 112.156 140.32 111.798 137.507C111.754 136.968 111.754 136.425 111.798 135.886C112.455 138.387 113.872 140.611 115.846 142.24C117.82 143.869 120.25 144.819 122.786 144.953ZM102.666 116.941C110.178 118.022 116.953 113.729 117.808 107.934V108.865C118.102 115.59 110.796 121.715 102.607 120.544C99.8542 120.158 97.3051 118.852 95.3591 116.831C93.4132 114.81 92.1804 112.188 91.8541 109.375C91.7955 108.837 91.7955 108.293 91.8541 107.754C92.4839 110.247 93.8665 112.476 95.8066 114.124C97.7467 115.773 100.146 116.758 102.666 116.941ZM81.131 85.6871C88.6725 86.7379 95.4482 82.4746 96.273 76.6802V77.6409C96.5676 84.3661 89.2617 90.4908 81.0721 89.3199C78.3079 88.9642 75.7378 87.6834 73.7651 85.6783C71.7924 83.6733 70.5286 81.0575 70.1721 78.2414C70.1273 77.7119 70.1273 77.1796 70.1721 76.6501C70.8283 79.1429 72.242 81.36 74.2107 82.9834C76.1794 84.6068 78.6019 85.5533 81.131 85.6871V85.6871ZM71.38 123.186C68.6139 122.835 66.0411 121.556 64.0675 119.55C62.0939 117.544 60.8317 114.926 60.48 112.108C60.4207 111.579 60.4207 111.045 60.48 110.516C61.1317 112.976 62.5214 115.166 64.4546 116.781C66.3878 118.396 68.7679 119.355 71.2621 119.523C78.7742 120.604 85.5499 116.341 86.3747 110.516C86.3747 110.847 86.3747 111.177 86.3747 111.477C86.8755 118.232 79.5696 124.357 71.38 123.186ZM85.1963 143.812C85.4615 149.817 78.9215 155.281 71.6156 154.23C69.1395 153.922 66.8353 152.78 65.0687 150.985C63.3022 149.19 62.1745 146.845 61.8646 144.323C61.8199 143.853 61.8199 143.381 61.8646 142.911C62.4331 145.132 63.6716 147.116 65.4053 148.581C67.139 150.046 69.2804 150.919 71.5273 151.078C78.244 152.038 84.3126 148.075 85.0491 142.941C85.1144 143.229 85.1635 143.519 85.1963 143.812V143.812ZM35.8816 76.8903C35.8222 76.3616 35.8222 75.8278 35.8816 75.2991C36.4512 77.6356 37.6967 79.7437 39.4565 81.3498C41.2163 82.9559 43.4091 83.9859 45.7504 84.3061L46.6637 84.4562C54.1758 85.537 60.9514 81.2737 61.7763 75.4492C61.8039 75.7688 61.8039 76.0903 61.7763 76.4099C62.0708 83.1352 54.7649 89.2599 46.5753 88.089C44.2909 87.7649 42.134 86.8213 40.3299 85.3569C39.0391 84.3503 37.9744 83.0742 37.2072 81.6139C36.44 80.1537 35.988 78.5432 35.8816 76.8903V76.8903ZM52.585 52.3313C53.1831 54.8385 54.541 57.09 56.4659 58.7661C58.3908 60.4421 60.7848 61.4577 63.3081 61.6685C70.8202 62.7193 77.6253 58.456 78.4207 52.6616C78.4207 52.9918 78.4207 53.292 78.4207 53.6223C78.7153 60.3475 71.4094 66.4422 63.2198 65.3013C60.4556 64.9456 57.8855 63.6648 55.9128 61.6597C53.9401 59.6547 52.6763 57.0389 52.3198 54.2228C52.3079 53.5858 52.3772 52.95 52.526 52.3313H52.585ZM29.1649 105.713C29.1045 105.174 29.1045 104.63 29.1649 104.091C29.793 106.58 31.1712 108.805 33.1055 110.453C35.0397 112.101 37.4326 113.089 39.9469 113.278C47.4591 114.329 54.2347 110.066 55.0595 104.272C55.0757 104.592 55.0757 104.912 55.0595 105.232C55.3541 111.927 48.0482 118.052 39.8586 116.911C37.1142 116.507 34.5779 115.19 32.644 113.164C30.7101 111.139 29.487 108.519 29.1649 105.713V105.713ZM40.0648 149.126C37.3006 148.771 34.7306 147.49 32.7578 145.485C30.7851 143.48 29.5214 140.864 29.1649 138.048C29.1062 137.509 29.1062 136.965 29.1649 136.426C29.7764 138.951 31.1586 141.212 33.1121 142.885C35.0657 144.558 37.4899 145.555 40.0353 145.734C47.5474 146.784 54.3231 142.521 55.1479 136.727C55.1479 137.057 55.1479 137.357 55.1479 137.687C55.5604 144.172 48.2545 150.267 40.0648 149.126V149.126ZM63.3376 175.757C60.5734 175.401 58.0034 174.12 56.0306 172.115C54.0579 170.11 52.7942 167.494 52.4377 164.678C52.3783 164.15 52.3783 163.616 52.4377 163.087C53.0894 165.546 54.479 167.737 56.4122 169.352C58.3454 170.967 60.7256 171.925 63.2198 172.094C70.7319 173.145 77.5369 168.882 78.3323 163.087C78.3323 163.417 78.3323 163.748 78.3323 164.048C78.8332 170.653 71.5273 176.778 63.3376 175.757ZM89.6447 197.434C86.8805 197.078 84.3105 195.797 82.3378 193.792C80.365 191.787 79.1013 189.171 78.7448 186.355C78.6854 185.816 78.6854 185.273 78.7448 184.734C79.4041 187.208 80.8069 189.41 82.7565 191.031C84.706 192.652 87.1044 193.61 89.6152 193.771C97.1273 194.822 103.903 190.558 104.728 184.764C104.744 185.084 104.744 185.405 104.728 185.725C105.14 192.33 97.746 198.424 89.6447 197.284V197.434ZM110.266 217.759C107.502 217.404 104.932 216.123 102.959 214.118C100.986 212.113 99.7227 209.497 99.3662 206.681C99.3069 206.142 99.3069 205.598 99.3662 205.06C99.9943 207.548 101.373 209.773 103.307 211.421C105.241 213.069 107.634 214.058 110.148 214.247C117.66 215.297 124.436 211.034 125.261 205.24C125.261 205.57 125.261 205.87 125.261 206.2C125.909 212.655 118.603 218.75 110.413 217.609L110.266 217.759ZM111.739 233.191C111.71 232.822 111.71 232.45 111.739 232.08C112.175 233.812 113.136 235.359 114.485 236.502C115.833 237.645 117.501 238.325 119.251 238.445C124.466 239.196 129.179 236.224 129.739 232.11C129.751 232.33 129.751 232.551 129.739 232.771C129.945 237.455 124.849 241.778 119.163 240.907C117.278 240.575 115.55 239.629 114.238 238.211C112.926 236.792 112.101 234.978 111.886 233.041L111.739 233.191ZM123.317 269.219C120.557 268.855 117.994 267.566 116.032 265.555C114.069 263.544 112.818 260.925 112.476 258.111C112.416 257.582 112.416 257.048 112.476 256.519C113.127 258.979 114.517 261.169 116.45 262.784C118.383 264.399 120.764 265.358 123.258 265.526C130.77 266.607 137.575 262.344 138.4 256.519V257.48C138.989 264.235 131.654 270.36 123.464 269.189L123.317 269.219ZM153.247 235.983V236.764C153.483 242.318 147.355 247.392 140.668 246.432C138.381 246.143 136.253 245.087 134.62 243.428C132.988 241.77 131.944 239.605 131.654 237.274C131.609 236.825 131.609 236.373 131.654 235.923C132.168 237.969 133.296 239.801 134.88 241.162C136.464 242.524 138.426 243.348 140.491 243.519C146.943 244.39 152.57 240.877 153.247 235.983ZM141.228 214.217C138.466 213.856 135.898 212.574 133.926 210.569C131.955 208.565 130.689 205.952 130.328 203.138C130.284 202.599 130.284 202.056 130.328 201.517C130.96 204.003 132.339 206.226 134.273 207.873C136.206 209.521 138.597 210.51 141.11 210.704C148.652 211.755 155.427 207.491 156.252 201.697C156.282 202.016 156.282 202.338 156.252 202.658C156.664 209.263 149.418 215.357 141.228 214.217V214.217Z" fill="#E2D9CF"/>
</g>
</svg>
