<svg xmlns="http://www.w3.org/2000/svg" width="115" height="83" viewBox="0 0 115 83"><defs><linearGradient id="oe4aa" x1="5.32" x2="5.32" y1="67.43" y2="79.29" gradientUnits="userSpaceOnUse"><stop offset="0" stop-color="#f3f7ff"/><stop offset="1" stop-color="#c3c7d2"/></linearGradient><linearGradient id="oe4ab" x1="14.22" x2="14.22" y1="70.75" y2="79.05" gradientUnits="userSpaceOnUse"><stop offset="0" stop-color="#f3f7ff"/><stop offset="1" stop-color="#c3c7d2"/></linearGradient><linearGradient id="oe4ac" x1="21.45" x2="21.45" y1="70.67" y2="79.2" gradientUnits="userSpaceOnUse"><stop offset="0" stop-color="#f3f7ff"/><stop offset="1" stop-color="#c3c7d2"/></linearGradient><linearGradient id="oe4ad" x1="29.82" x2="29.82" y1="70.71" y2="82.8" gradientUnits="userSpaceOnUse"><stop offset="0" stop-color="#f3f7ff"/><stop offset="1" stop-color="#c3c7d2"/></linearGradient><linearGradient id="oe4ae" x1="38.4" x2="38.4" y1="70.7" y2="79.23" gradientUnits="userSpaceOnUse"><stop offset="0" stop-color="#f3f7ff"/><stop offset="1" stop-color="#c3c7d2"/></linearGradient><linearGradient id="oe4af" x1="45.71" x2="45.71" y1="70.7" y2="79.23" gradientUnits="userSpaceOnUse"><stop offset="0" stop-color="#f3f7ff"/><stop offset="1" stop-color="#c3c7d2"/></linearGradient><linearGradient id="oe4ag" x1="59.47" x2="59.47" y1="67.41" y2="79.26" gradientUnits="userSpaceOnUse"><stop offset="0" stop-color="#f3f7ff"/><stop offset="1" stop-color="#c3c7d2"/></linearGradient><linearGradient id="oe4ah" x1="75.26" x2="75.26" y1="67.43" y2="79.29" gradientUnits="userSpaceOnUse"><stop offset="0" stop-color="#f3f7ff"/><stop offset="1" stop-color="#c3c7d2"/></linearGradient><linearGradient id="oe4ai" x1="84.12" x2="84.12" y1="70.75" y2="79.05" gradientUnits="userSpaceOnUse"><stop offset="0" stop-color="#f3f7ff"/><stop offset="1" stop-color="#c3c7d2"/></linearGradient><linearGradient id="oe4aj" x1="91.35" x2="91.35" y1="70.67" y2="79.2" gradientUnits="userSpaceOnUse"><stop offset="0" stop-color="#f3f7ff"/><stop offset="1" stop-color="#c3c7d2"/></linearGradient><linearGradient id="oe4ak" x1="97.65" x2="97.65" y1="67" y2="79.05" gradientUnits="userSpaceOnUse"><stop offset="0" stop-color="#f3f7ff"/><stop offset="1" stop-color="#c3c7d2"/></linearGradient><linearGradient id="oe4al" x1="104.5" x2="104.5" y1="70.7" y2="79.05" gradientUnits="userSpaceOnUse"><stop offset="0" stop-color="#f3f7ff"/><stop offset="1" stop-color="#c3c7d2"/></linearGradient><linearGradient id="oe4am" x1="112.3" x2="112.3" y1="70.7" y2="79.23" gradientUnits="userSpaceOnUse"><stop offset="0" stop-color="#f3f7ff"/><stop offset="1" stop-color="#c3c7d2"/></linearGradient><linearGradient id="oe4an" x1="64.27" x2="64.27" y1="36.07" y2="55.59" gradientUnits="userSpaceOnUse"><stop offset="0" stop-color="#f3f7ff"/><stop offset="1" stop-color="#c3c7d2"/></linearGradient><linearGradient id="oe4ao" x1="72.51" x2="72.51" y1="1.25" y2="55.09" gradientUnits="userSpaceOnUse"><stop offset="0" stop-color="#f3f7ff"/><stop offset="1" stop-color="#c3c7d2"/></linearGradient><linearGradient id="oe4ap" x1="95.15" x2="95.15" y1="30.29" y2="58.38" gradientUnits="userSpaceOnUse"><stop offset="0" stop-color="#f3f7ff"/><stop offset="1" stop-color="#c3c7d2"/></linearGradient><linearGradient id="oe4aq" x1="88.1" x2="88.1" y1="0" y2="24.36" gradientUnits="userSpaceOnUse"><stop offset="0" stop-color="#f3f7ff"/><stop offset="1" stop-color="#c3c7d2"/></linearGradient><linearGradient id="oe4ar" x1="33.82" x2="33.82" y1="0" y2="11.88" gradientUnits="userSpaceOnUse"><stop offset="0" stop-color="#f3f7ff"/><stop offset="1" stop-color="#c3c7d2"/></linearGradient><linearGradient id="oe4as" x1="42.85" x2="42.85" y1="30.29" y2="58.34" gradientUnits="userSpaceOnUse"><stop offset="0" stop-color="#f3f7ff"/><stop offset="1" stop-color="#c3c7d2"/></linearGradient><linearGradient id="oe4at" x1="14.47" x2="14.47" y1="6.41" y2="22.41" gradientUnits="userSpaceOnUse"><stop offset="0" stop-color="#f3f7ff"/><stop offset="1" stop-color="#c3c7d2"/></linearGradient><linearGradient id="oe4au" x1="17.59" x2="17.59" y1="11.86" y2="57.83" gradientUnits="userSpaceOnUse"><stop offset="0" stop-color="#f3f7ff"/><stop offset="1" stop-color="#c3c7d2"/></linearGradient></defs><g><g><g><g><path fill="url(#oe4aa)" d="M6.4 73.595h4.252v.7l-.941.08-.282.236v4.074c-.627.187-1.265.336-1.91.448a9.242 9.242 0 0 1-1.613.155 6.993 6.993 0 0 1-1.59-.178 5.163 5.163 0 0 1-1.343-.505 5.63 5.63 0 0 1-2.157-2.18 6.175 6.175 0 0 1-.81-3.07 5.739 5.739 0 0 1 1.653-4.31 6.135 6.135 0 0 1 4.453-1.607c.535.003 1.068.045 1.596.126.568.088 1.13.213 1.681.373v2.709h-.93l-.258-1.55-.235-.31a4.93 4.93 0 0 0-.964-.333 4.591 4.591 0 0 0-.976-.109 3.896 3.896 0 0 0-3.104 1.309 5.285 5.285 0 0 0-1.148 3.586 5.6 5.6 0 0 0 1.176 3.765 3.982 3.982 0 0 0 3.197 1.377 7.497 7.497 0 0 0 1.721-.23v-3.54l-.292-.235-1.205-.08z"/></g><g><path fill="url(#oe4ab)" d="M11.28 79.054v-.574l.907-.08.292-.276v-6.18H11.28v-.534l1.98-.608h.648v1.595c.276-.281.574-.574.867-.832.292-.258.62-.574.952-.815H16.152c.17-.001.34.018.505.057.177.04.35.095.517.167v1.463h-.528a1.217 1.217 0 0 0-.385-.304 1.148 1.148 0 0 0-.488-.103c-.31.015-.61.12-.86.304a5.09 5.09 0 0 0-.993.947v4.866l.292.276 1.188.08v.55z"/></g><g><path fill="url(#oe4ac)" d="M22.63 78.09a8.034 8.034 0 0 1-1.51.839c-.408.168-.844.26-1.286.27a2.06 2.06 0 0 1-2.18-2.181 1.986 1.986 0 0 1 .895-1.722c.597-.413 1.957-.876 4.08-1.389v-.539a2.376 2.376 0 0 0-.35-1.486 1.504 1.504 0 0 0-1.217-.42c-.214 0-.427.023-.637.07a4.016 4.016 0 0 0-.66.195v1.434h-1.147a.574.574 0 0 1-.42-.114.574.574 0 0 1-.114-.414 1.601 1.601 0 0 1 .958-1.377 4.964 4.964 0 0 1 2.485-.574 2.72 2.72 0 0 1 1.946.574 2.479 2.479 0 0 1 .608 1.871v4.941l.293.275.883.138v.574h-2.404zm0-3.574a9.698 9.698 0 0 0-2.807 1.096 1.526 1.526 0 0 0-.671 1.291 1.389 1.389 0 0 0 .367 1.004 1.331 1.331 0 0 0 .998.379c.315-.01.626-.074.919-.19a8.734 8.734 0 0 0 1.193-.579z"/></g><g><path fill="url(#oe4ad)" d="M25.62 82.79v-.608l.924-.092.27-.264v-9.882H25.62v-.533l1.98-.609h.643v.93c.402-.31.842-.567 1.308-.769.381-.162.79-.248 1.205-.252a2.915 2.915 0 0 1 2.347 1.113c.636.818.961 1.834.918 2.87a4.488 4.488 0 0 1-1.147 3.213 3.983 3.983 0 0 1-3.042 1.21c-.218 0-.459 0-.717-.034-.258-.034-.574-.063-.867-.115v2.87l.293.264 1.085.092v.608zm2.623-4.7c.253.086.512.155.774.207.223.044.45.067.677.069a2.53 2.53 0 0 0 2.05-.947 3.787 3.787 0 0 0 .78-2.496 3.558 3.558 0 0 0-.678-2.296 2.192 2.192 0 0 0-1.807-.85 2.6 2.6 0 0 0-.838.144c-.334.113-.656.261-.958.442z"/></g><g><path fill="url(#oe4ae)" d="M41.901 78.215a6.077 6.077 0 0 1-1.572.752c-.53.17-1.085.257-1.642.258a3.535 3.535 0 0 1-2.743-1.147 4.333 4.333 0 0 1-1.038-3.042 4.465 4.465 0 0 1 1.101-3.122 3.655 3.655 0 0 1 2.835-1.21 2.915 2.915 0 0 1 2.244.89c.58.69.872 1.578.815 2.478v.522h-5.532v.19a3.856 3.856 0 0 0 .775 2.548 2.565 2.565 0 0 0 2.089.935c.431-.005.859-.086 1.262-.241a6.961 6.961 0 0 0 1.406-.752zm-1.515-4.327v-.263a2.422 2.422 0 0 0-.453-1.573 1.618 1.618 0 0 0-1.32-.574 1.94 1.94 0 0 0-1.47.689 2.76 2.76 0 0 0-.694 1.721z"/></g><g><path fill="url(#oe4af)" d="M48.158 71.08v1.934h-.844l-.132-1.21a3.322 3.322 0 0 0-.648-.27 2.072 2.072 0 0 0-.615-.092 1.55 1.55 0 0 0-1.038.321 1.147 1.147 0 0 0-.379.907c-.008.299.101.59.304.809a3.81 3.81 0 0 0 1.148.74c.086.046.224.11.407.19a6.64 6.64 0 0 1 1.395.797c.211.166.377.384.482.631.115.263.172.546.166.833a2.261 2.261 0 0 1-.843 1.876 3.633 3.633 0 0 1-2.342.677 7.77 7.77 0 0 1-1.176-.086 5.038 5.038 0 0 1-1.033-.27v-2.209h.815l.206 1.446c.225.134.466.236.718.304.237.068.482.103.729.104.415.016.823-.118 1.147-.38a1.251 1.251 0 0 0 .436-.992 1.234 1.234 0 0 0-.298-.855 4.89 4.89 0 0 0-1.423-.855 5.429 5.429 0 0 1-1.722-1.079 1.813 1.813 0 0 1-.459-1.257 2.112 2.112 0 0 1 .792-1.761 3.49 3.49 0 0 1 2.227-.626 5.63 5.63 0 0 1 1.067.098c.313.06.618.153.913.275z"/></g><g><path fill="url(#oe4ag)" d="M61.412 76.181c.243-.339.456-.698.637-1.073.146-.3.254-.615.321-.941l-.31-.322-.94-.132v-.682h3.443v.682l-1.223.161a9.234 9.234 0 0 1-.574 1.55c-.23.473-.502.924-.814 1.348l1.32 1.538 1.555.086v.654h-3.002v-.407l-.763-.855a7.002 7.002 0 0 1-1.681 1.107 4.11 4.11 0 0 1-1.659.368 3.661 3.661 0 0 1-2.594-.959 3.132 3.132 0 0 1-1.027-2.404 2.932 2.932 0 0 1 .574-1.78 4.126 4.126 0 0 1 1.687-1.267 5.894 5.894 0 0 1-1.067-1.343 2.686 2.686 0 0 1-.107-2.371c.155-.347.383-.656.67-.906a3.133 3.133 0 0 1 2.208-.82c.77-.031 1.521.23 2.107.728a2.295 2.295 0 0 1 .82 1.83 2.554 2.554 0 0 1-.574 1.682 5.509 5.509 0 0 1-1.962 1.343zm-4.453-2.812a3.369 3.369 0 0 0-1.016.999 2.255 2.255 0 0 0-.315 1.199 2.743 2.743 0 0 0 .705 1.934 2.353 2.353 0 0 0 1.797.757c.426.006.849-.08 1.24-.252a3.838 3.838 0 0 0 1.147-.769zm.9-.941a3.03 3.03 0 0 0 1.27-.964c.274-.408.414-.892.4-1.383a1.98 1.98 0 0 0-.452-1.354 1.555 1.555 0 0 0-1.217-.505 1.504 1.504 0 0 0-1.148.47 1.681 1.681 0 0 0-.447 1.2c.005.421.128.833.355 1.187.348.506.765.96 1.24 1.349z"/></g><g><path fill="url(#oe4ah)" d="M76.326 73.595h4.247v.7l-.935.08-.287.236v4.074c-.626.188-1.262.337-1.906.448a9.357 9.357 0 0 1-1.618.155 7.062 7.062 0 0 1-1.59-.178 5.336 5.336 0 0 1-1.342-.505 5.652 5.652 0 0 1-2.152-2.18 6.112 6.112 0 0 1-.786-3.07 5.739 5.739 0 0 1 1.652-4.31 6.135 6.135 0 0 1 4.453-1.607c.535.003 1.068.045 1.596.126.566.088 1.126.212 1.675.373v2.709h-.946l-.259-1.55-.24-.31a5.01 5.01 0 0 0-.959-.333 4.62 4.62 0 0 0-.976-.109 3.908 3.908 0 0 0-3.11 1.309 5.28 5.28 0 0 0-1.148 3.586 5.6 5.6 0 0 0 1.177 3.765 3.977 3.977 0 0 0 3.196 1.377c.276-.003.552-.022.827-.057.307-.037.612-.095.912-.172V74.61l-.293-.235-1.205-.08z"/></g><g><path fill="url(#oe4ai)" d="M81.18 79.054v-.574l.907-.08.292-.276v-6.18H81.18v-.534l1.98-.608h.631v1.595c.281-.281.574-.574.872-.832.299-.258.62-.574.953-.815H86.04c.17-.001.34.018.505.057.177.04.35.095.516.167v1.463h-.54a1.24 1.24 0 0 0-.39-.304 1.148 1.148 0 0 0-.482-.103c-.31.013-.61.119-.86.304-.374.269-.71.588-.999.947v4.866l.293.276 1.188.08v.55z"/></g><g><path fill="url(#oe4aj)" d="M92.524 78.09c-.47.335-.977.616-1.51.838a3.54 3.54 0 0 1-1.285.27 2.055 2.055 0 0 1-2.175-2.18 1.991 1.991 0 0 1 .89-1.722c.596-.414 1.956-.876 4.08-1.39v-.539a2.341 2.341 0 0 0-.35-1.486 1.492 1.492 0 0 0-1.211-.419c-.216 0-.432.023-.643.07a3.977 3.977 0 0 0-.654.194v1.435H88.49a.574.574 0 0 1-.42-.115.574.574 0 0 1-.108-.413 1.59 1.59 0 0 1 .958-1.377 4.964 4.964 0 0 1 2.485-.574 2.737 2.737 0 0 1 1.945.574 2.502 2.502 0 0 1 .603 1.87v4.941l.292.276.901.08v.631h-2.398zm0-3.575a9.847 9.847 0 0 0-2.806 1.079 1.526 1.526 0 0 0-.672 1.291 1.395 1.395 0 0 0 .373 1.016 1.326 1.326 0 0 0 .993.379c.315-.01.625-.074.918-.19.413-.158.812-.35 1.194-.574z"/></g><g><path fill="url(#oe4ak)" d="M97.687 70.799h.666v7.305l.286.276.919.08v.591H95.73v-.574l.901-.08.287-.276v-6.18H95.73v-.534zm.063-3.782a.981.981 0 0 1 .993.987.93.93 0 0 1-.287.689.999.999 0 0 1-1.616-.314.93.93 0 0 1-.071-.375.959.959 0 0 1 .287-.7.941.941 0 0 1 .694-.304z"/></g><g><path fill="url(#oe4al)" d="M100.06 79.05v-.574l.924-.08.293-.276v-6.18h-1.217v-.534l1.98-.608h.648v.93c.531-.301 1.081-.566 1.647-.793.35-.14.72-.218 1.096-.23a2.158 2.158 0 0 1 1.722.666 2.8 2.8 0 0 1 .574 1.929v4.803l.292.275.913.08v.592h-3.724v-.574l.814-.08.293-.276v-4.51a1.882 1.882 0 0 0-.396-1.355 1.808 1.808 0 0 0-1.325-.402c-.3.005-.597.051-.884.138a6.21 6.21 0 0 0-1.022.42v5.71l.293.275.815.08v.574z"/></g><g><path fill="url(#oe4am)" d="M114.748 71.08v1.934h-.838l-.132-1.21a3.322 3.322 0 0 0-.649-.27 2.094 2.094 0 0 0-.614-.092 1.567 1.567 0 0 0-1.044.32 1.148 1.148 0 0 0-.373.908c-.005.297.101.586.298.809.337.311.725.561 1.148.74l.407.19a6.56 6.56 0 0 1 1.4.797c.212.166.378.384.483.631.112.263.169.547.166.832a2.261 2.261 0 0 1-.844 1.877 3.633 3.633 0 0 1-2.34.677 7.718 7.718 0 0 1-1.177-.086 5.096 5.096 0 0 1-1.039-.27v-2.209h.815l.212 1.446c.224.134.466.236.718.304.236.069.482.103.728.104.416.016.824-.118 1.148-.38a1.251 1.251 0 0 0 .436-.992 1.234 1.234 0 0 0-.298-.855 4.889 4.889 0 0 0-1.43-.855 5.429 5.429 0 0 1-1.72-1.079 1.785 1.785 0 0 1-.46-1.257 2.106 2.106 0 0 1 .786-1.761 3.512 3.512 0 0 1 2.233-.626c.358 0 .715.032 1.067.098.313.06.619.152.913.275z"/></g></g></g><g><g><g><path fill="url(#oe4an)" d="M67.474 50.492c.401-.558.754-1.15 1.054-1.768.237-.49.412-1.009.522-1.542l-.505-.561-1.548-.22V45.28h5.688v1.122l-2.002.275a16.201 16.201 0 0 1-.982 2.547c-.378.788-.828 1.54-1.346 2.244l2.176 2.53 2.558.134v1.122h-4.936v-.673l-1.257-1.408a11.218 11.218 0 0 1-2.771 1.806c-.854.394-1.781.6-2.721.606a6.008 6.008 0 0 1-4.27-1.576 5.162 5.162 0 0 1-1.682-3.927 4.819 4.819 0 0 1 .909-2.956 6.804 6.804 0 0 1 2.805-2.082A9.604 9.604 0 0 1 57.41 42.8a4.376 4.376 0 0 1 .92-5.38 5.167 5.167 0 0 1 3.635-1.346 5.049 5.049 0 0 1 3.467 1.19 3.837 3.837 0 0 1 1.346 3.006 4.196 4.196 0 0 1-.942 2.766 8.976 8.976 0 0 1-3.17 2.222zm-7.27-4.623a5.47 5.47 0 0 0-1.683 1.644 3.714 3.714 0 0 0-.522 1.969 4.488 4.488 0 0 0 1.161 3.18 3.87 3.87 0 0 0 2.956 1.252c.701.003 1.395-.14 2.037-.421a6.497 6.497 0 0 0 1.857-1.262zm1.503-1.548a5.049 5.049 0 0 0 2.092-1.588 3.82 3.82 0 0 0 .657-2.244 3.214 3.214 0 0 0-.746-2.244 2.541 2.541 0 0 0-2.003-.836 2.435 2.435 0 0 0-1.857.78 2.732 2.732 0 0 0-.74 1.97c.009.692.213 1.369.589 1.951a10.536 10.536 0 0 0 2.008 2.21z"/></g><g><g><path fill="url(#oe4ao)" d="M61.178 11.348C60.1 5.738 61.3 3.213 63.326 1.25c-1.744 2.322-2.378 5.492-1.554 9.537zm.796.465c.701 2.009 2.973 3.849 2.856 4.914-.118 1.066 0 3.058-1.122 2.11-3.905-3.433-1.762-6.036-1.762-6.771zm-2.844 4.578c-2.637-5.98-.544-11.259.36-12.302-1.151 2.569-1.594 8.655.846 12.874zm7.702-1.217c.685 2.154 3.063 4.286 2.805 5.396-.258 1.111-.46 3.181-1.582 2.104-3.977-3.843-1.346-6.681-1.223-7.5zM77.11 33.709c-3.692-3.838-2.093-8.398-2.009-9.145 1.122 2.783 4.387 5.504 3.927 6.917-.404 1.408-.718 3.512-1.919 2.227zM65.704 15.24c-3.428-4.163-2.295-7.843-1.683-9.492-.309 2.648-.993 4.875 2.008 8.415zM57.29 16.84c1.335.662 7.36 2.098 9.043 7.197.342 1.156-2.872-1.223-4.555-2.053-1.677-.825-2.182-3.113-4.488-5.144zM72.532 27.7c-3.77-3.635-1.952-7.663-1.88-8.274.842 2.48 3.922 5.01 3.568 6.277-.33 1.257-.454 3.192-1.688 1.997zm8.005 12.23c-2.485-4.51-.118-9.599.157-10.48.892 3.271 3.865 6.58 2.805 8.135-.937 1.548-2.216 3.848-2.962 2.345zm1.032 5.974c-.286-4.286 1.347-8.078 6.16-9.346-3.001 2.81-3.114 6.928-3.675 8.926-.381 1.632-2.485 1.789-2.485.426zM64.74 19.381c5.431 8.23 13.6 15.612 15.478 22.406a14.21 14.21 0 0 1 .068 8.61c-.701 2.233-1.84 3.569-2.278 4.36-1.672.18-2.081.544-2.193.18.022-.422 1.312-1.375 2.434-3.558a13.183 13.183 0 0 0 1.038-9.132c-1.576-7.405-11.135-15.49-14.67-22.355l.124-.505zm5.79 14.647c-2.176-.628-3.691-4.157-7.652-5.823 1.128.05 10.44 2.194 12.426 6.984.59 1.481-2.485-.527-4.774-1.155zm-4.858-5.84c-2.221-.628-3.64-4.538-7.242-6.423 1.083.202 8.908 2.222 12.499 8.056.83 1.402-2.974-.993-5.257-1.627zm8.224 11.966c-1.834-.74-2.53-4.516-6.485-6.221 1.032.034 10.154 2.11 10.659 7.108.078 1.537-2.16-.124-4.174-.881zm5.049 6.457c-.37 1.386-2.171.084-3.854-.578-.858-.32-.864-1.402-1.296-2.636a5.542 5.542 0 0 0-2.805-3.366c.87.033 8.841 2.042 7.955 6.586z"/></g></g><g><path fill="url(#oe4ap)" d="M97.61 30.29v2.053h.152c.824-.045 4.841-.123 5.93 2.39.188.445.281.925.274 1.408v6.49a10.097 10.097 0 0 1-4.274 8.264 18.614 18.614 0 0 1-10.367 3.461h-.32a18.11 18.11 0 0 1-6.827-1.346 19.721 19.721 0 0 1-3.686-1.997c-.707 1.587-1.89 3.18-3.192 3.842a22.748 22.748 0 0 0 9.688 3.406h.05a22 22 0 0 0 5.7-.14h.107c4.987-.808 9.508-2.62 13.121-6.29l.084.292v.051l1.004 3.45h3.316s.118-5.447.213-10.72c.04-2.244.073-4.438.09-6.171v-2.21a3.427 3.427 0 0 1 1.313-2.805 5.912 5.912 0 0 1 2.361-1.044c.651-.14 1.314-.22 1.98-.235h.674V30.29z"/></g><g><path fill="url(#oe4aq)" d="M72.56 12.134a3.333 3.333 0 0 1 .655-1.616c3.927-5.144 9.537-8.37 15.742-8.38h.067c2.152.01 4.285.403 6.3 1.16.342.124.684.264 1.02.416a17.459 17.459 0 0 1 3.703 2.16l.05.033a26.084 26.084 0 0 1 2.402 2.065c.062.056.123.117.18.18.055.06.117.117.173.179a24.402 24.402 0 0 1 2.839 3.534h3.136l-4.92-10.687-5.313 1.773-.168.056-.522-.292A22.35 22.35 0 0 0 87.51 0h-.235c-.617 0-1.229.028-1.835.079h-.162C77.984.735 71.605 4.953 67.37 11.225c.208 1.835 1.122 3.641 2.367 5.363 2.082 2.929 4.982 5.61 6.457 7.775-.819-2.602-4.392-6.288-3.635-12.229z"/></g><g><path fill="url(#oe4ar)" d="M52.314 11.876h-3.102a24.401 24.401 0 0 0-2.838-3.534c-.057-.062-.113-.124-.174-.18-.062-.056-.118-.123-.18-.18l-.078-.078a26.924 26.924 0 0 0-2.323-1.986l-.05-.033a17.459 17.459 0 0 0-3.703-2.16 18.103 18.103 0 0 0-7.382-1.588c-5.19 0-9.947 2.244-13.655 5.98-.808-.69-2.844-1.98-3.489-2.014A23.864 23.864 0 0 1 28.96.08C29.567.028 30.179 0 30.79 0h.24a22.31 22.31 0 0 1 10.368 2.698l.527.292 5.48-1.829z"/></g><g><path fill="url(#oe4as)" d="M58.497 30.29v2.053c-.887-.03-1.774.049-2.642.236a5.912 5.912 0 0 0-2.362 1.077 3.427 3.427 0 0 0-1.324 2.805v2.21c0 1.74-.05 3.927-.095 6.17-.09 5.274-.208 10.721-.208 10.721h-3.32l-1.022-3.5-.084-.292c-3.612 3.669-8.134 5.48-13.121 6.289a21.983 21.983 0 0 1-5.806.157h-.073c-.415-.045-.83-.101-1.24-.169a3.522 3.522 0 0 0 1.621-2.962 3.462 3.462 0 0 0-.213-1.155c1.27.28 2.565.42 3.865.42h.286a18.563 18.563 0 0 0 10.435-3.46 10.096 10.096 0 0 0 4.246-8.258v-6.48c0-4.336-6.356-3.792-6.356-3.792v-2.07z"/></g><g><path fill="url(#oe4at)" d="M28.861 11.162c-.031.19-.078.378-.14.561a2.193 2.193 0 0 1-.095.27l-.05.134-.068.14a4.107 4.107 0 0 1-1.593 1.684 6.17 6.17 0 0 1-2.076.79 6.794 6.794 0 0 1-4.325-.6 16.355 16.355 0 0 1-1.773-1.122l-1.615-1.166a29.771 29.771 0 0 0-3.215-2.104 11.487 11.487 0 0 0-3.416-1.296 7.108 7.108 0 0 0-3.529.241 8.594 8.594 0 0 0-1.649.757c-.51.296-.977.659-1.391 1.078a5.049 5.049 0 0 0-1.481 2.934 5.57 5.57 0 0 0 .56 3.13 6.35 6.35 0 0 0 2.447 2.687c.306.173.625.323.953.449.249.1.504.182.763.247.262.087.528.16.797.218a9.64 9.64 0 0 0 1.784.113c.634 0 1.296-.068 2.02-.124a5.476 5.476 0 0 1-1.639 1.403 5.905 5.905 0 0 1-1.514.622 2.244 2.244 0 0 1-1.88-1.683 1.307 1.307 0 0 0 0 .298 2.171 2.171 0 0 0 .881 1.56 6.093 6.093 0 0 1-1.773-.096l-.157-.034a6.927 6.927 0 0 1-2.216-.937 7.63 7.63 0 0 1-2.956-3.663 7.512 7.512 0 0 1-.27-4.64A7.64 7.64 0 0 1 2.68 9.2a9.861 9.861 0 0 1 1.807-1.234 10.978 10.978 0 0 1 1.98-.836 9.829 9.829 0 0 1 2.132-.42 9.06 9.06 0 0 1 2.17.072c1.407.234 2.76.718 3.995 1.43a27.401 27.401 0 0 1 3.366 2.3l1.565 1.212c.485.387.995.74 1.526 1.06 1.026.563 2.21.77 3.366.59a4.752 4.752 0 0 0 1.627-.561c.47-.262.86-.651 1.122-1.122.252-.492.375-1.04.359-1.593a2.98 2.98 0 0 0-.516-1.537 2.43 2.43 0 0 0-1.263-.943 2.85 2.85 0 0 0-1.649 0 2.592 2.592 0 0 0-1.402.853 1.981 1.981 0 0 0-.376 1.537c.084.575.344 1.11.746 1.531a1.716 1.716 0 0 0 1.683.5 1.565 1.565 0 0 1-.999.32 2.333 2.333 0 0 1-.56-.107 2.478 2.478 0 0 1-.5-.258 2.962 2.962 0 0 1-1.184-1.84c-.07-.38-.07-.77 0-1.15.07-.389.22-.758.443-1.083a3.618 3.618 0 0 1 1.857-1.29 3.82 3.82 0 0 1 2.244-.096c.767.214 1.44.678 1.913 1.319.463.626.737 1.371.791 2.148.031.388.01.779-.061 1.161z"/></g><g><path fill="url(#oe4au)" d="M30.54 45.932a3.928 3.928 0 0 1-1.604 1.455 3.478 3.478 0 0 1 1.004 2.451 3.433 3.433 0 0 1-2.962 3.428c.1.328.15.668.151 1.01a3.409 3.409 0 0 1-4.745 3.276 3.412 3.412 0 0 1-2.07-3.276 3.485 3.485 0 0 1 1.043-2.49 3.478 3.478 0 0 1-.97-3.709 3.927 3.927 0 0 1-2.884-3.758h-.112a3.927 3.927 0 0 1-3.894-3.99 4.052 4.052 0 0 1-.87.102 3.927 3.927 0 0 1-3.926-3.927c.003-.347.05-.692.14-1.027a3.889 3.889 0 0 1-4.79-3.842 3.972 3.972 0 0 1 1.43-3.058 3.977 3.977 0 0 1 .381-6.199l-.067-.106a3.96 3.96 0 0 1 2.536-5.823 3.893 3.893 0 1 1 7.725-.696c0 .163-.012.327-.034.488a3.927 3.927 0 0 1 3.5 3.927c0 .865-.282 1.705-.802 2.396.227-.046.459-.068.69-.068a3.927 3.927 0 0 1 3.781 4.987c.157-.008.314-.008.471 0a3.927 3.927 0 0 1 3.894 3.927c0 .717-.194 1.42-.561 2.037a3.96 3.96 0 0 1 2.03 6.894 3.96 3.96 0 0 1 2.104 3.506 3.927 3.927 0 0 1-.589 2.085zm-4.538-6.146a2.3 2.3 0 0 1-2.053-1.717c-.009.1-.009.202 0 .303a2.4 2.4 0 0 0 2.075 2.07c1.56.213 2.951-.926 2.895-2.182a.98.98 0 0 0 0-.18c-.157 1.105-1.43 1.902-2.917 1.706zm-8.65-2.44a2.491 2.491 0 0 0 2.16 2.154c1.626.23 3.079-.965 3.023-2.278v-.185c-.163 1.156-1.51 1.986-3.001 1.778a2.383 2.383 0 0 1-2.143-1.79 1.53 1.53 0 0 0-.04.32zm-.965-5.554a1.991 1.991 0 0 0 1.688 1.728c1.285.185 2.452-.769 2.407-1.812a.698.698 0 0 0 0-.152c-.152.92-1.2 1.588-2.396 1.42a1.902 1.902 0 0 1-1.683-1.425 1.252 1.252 0 0 0 0 .252zm4.437 9.374a.847.847 0 0 0-.006.219 1.65 1.65 0 0 0 1.442 1.436c1.083.168 2.048-.64 2.008-1.515a.907.907 0 0 0 0-.123c-.112.768-1.01 1.324-2.002 1.183a1.587 1.587 0 0 1-1.425-1.189zm1.135-8.159a2.29 2.29 0 0 1-.77-1.187c-.009.1-.009.202 0 .303a2.39 2.39 0 0 0 2.075 2.064c1.56.219 2.95-.92 2.895-2.176.003-.06.003-.12 0-.18-.157 1.088-1.448 1.885-2.878 1.683a2.289 2.289 0 0 1-1.322-.507zm-3.816-5.253a2.294 2.294 0 0 1-.752-1.19 1.37 1.37 0 0 0 0 .302 2.39 2.39 0 0 0 2.047 2.087c1.56.219 2.951-.926 2.895-2.182v-.174c-.163 1.083-1.453 1.885-2.883 1.683a2.295 2.295 0 0 1-1.307-.526zm-4.112-5.82a2.283 2.283 0 0 1-.77-1.182 1.728 1.728 0 0 0 0 .297 2.396 2.396 0 0 0 2.077 2.07c1.559.219 2.95-.926 2.894-2.182v-.18c-.157 1.083-1.447 1.88-2.883 1.683a2.283 2.283 0 0 1-1.318-.505zm2.316 5.325v-.18c-.157 1.089-1.447 1.885-2.878 1.683a2.283 2.283 0 0 1-2.053-1.683 1.307 1.307 0 0 0 0 .298 2.39 2.39 0 0 0 2.076 2.07c1.56.219 2.95-.926 2.855-2.188zm-.252 5.88c-.14.958-1.296 1.699-2.575 1.52a2.048 2.048 0 0 1-1.84-1.526 1.362 1.362 0 0 0 0 .263 2.132 2.132 0 0 0 1.857 1.851c1.39.197 2.636-.824 2.586-1.946a1.444 1.444 0 0 0-.028-.163zm-9.11-11.46c.146.273.348.511.594.7.344.273.754.45 1.19.51 1.559.219 2.95-.926 2.894-2.182.005-.06.005-.12 0-.18-.157 1.088-1.447 1.885-2.878 1.683l-.174-.028A2.244 2.244 0 0 1 6.732 20.5a1.307 1.307 0 0 0 0 .297c.02.31.106.61.252.883zm2.917-5.471a1.374 1.374 0 0 0-.04.353 2.395 2.395 0 0 0 2.076 2.07c1.56.213 2.95-.926 2.895-2.182v-.18c-.152 1.083-1.448 1.88-2.878 1.683a2.294 2.294 0 0 1-2.042-1.744zM6.115 27.574c.369.379.852.625 1.374.7 1.56.213 2.951-.93 2.895-2.182.003-.06.003-.12 0-.18-.157 1.083-1.447 1.88-2.878 1.684a2.295 2.295 0 0 1-2.053-1.717c-.012.1-.012.202 0 .303.061.524.294 1.014.662 1.392zm4.286 4.582v-.18c-.157 1.084-1.448 1.88-2.878 1.684a2.294 2.294 0 0 1-2.07-1.74c-.011.101-.011.203 0 .304a2.395 2.395 0 0 0 2.076 2.07c1.56.213 2.95-.926 2.872-2.138zm4.415 4.926v-.18c-.152 1.083-1.448 1.88-2.878 1.683a2.283 2.283 0 0 1-2.053-1.683 1.307 1.307 0 0 0 0 .298 2.395 2.395 0 0 0 2.075 2.07c1.56.19 2.951-.954 2.856-2.188zm2.154 6.21c1.543.213 2.95-.926 2.872-2.16.003-.06.003-.12 0-.18-.157 1.083-1.447 1.88-2.878 1.684a2.295 2.295 0 0 1-2.07-1.689c-.011.1-.011.202 0 .303a2.395 2.395 0 0 0 2.076 2.07zm3.955 3.798c1.56.213 2.95-.926 2.827-2.132v-.18c-.157 1.083-1.447 1.88-2.878 1.683a2.294 2.294 0 0 1-2.053-1.716c-.011.1-.011.202 0 .303a2.395 2.395 0 0 0 2.076 2.07zm.28 2.883a1.684 1.684 0 0 0 1.386 1.47c1.083.163 2.053-.645 2.014-1.52a1.058 1.058 0 0 0 0-.124c-.107.769-1.004 1.324-1.997 1.184a1.588 1.588 0 0 1-1.43-1.19c-.006.07-.006.14 0 .208zm2.205 6.754c1.56.22 2.956-.925 2.844-2.187v-.18c-.157 1.088-1.453 1.885-2.883 1.683a2.283 2.283 0 0 1-2.053-1.683 1.308 1.308 0 0 0 0 .297 2.39 2.39 0 0 0 2.064 2.076zm5.672-6.204c-.13.914-1.201 1.57-2.43 1.408a1.896 1.896 0 0 1-1.682-1.42 1.268 1.268 0 0 0 0 .253 1.974 1.974 0 0 0 1.716 1.711c1.274.18 2.44-.768 2.396-1.806zm.572-6.227a.944.944 0 0 0 0-.18c-.157 1.083-1.448 1.88-2.884 1.684a2.3 2.3 0 0 1-2.053-1.717c-.008.1-.008.202 0 .303a2.4 2.4 0 0 0 2.076 2.07c1.56.213 2.94-.926 2.86-2.16z"/></g></g></g></g></svg>