<svg xmlns="http://www.w3.org/2000/svg" width="62" height="31" viewBox="0 0 62 31"><defs><linearGradient id="y76na" x1="34.19" x2="34.19" y1="19.19" y2="29.57" gradientUnits="userSpaceOnUse"><stop offset="0" stop-color="#f3f7ff"/><stop offset="1" stop-color="#c3c7d2"/></linearGradient><linearGradient id="y76nb" x1="38.58" x2="38.58" y1=".67" y2="29.32" gradientUnits="userSpaceOnUse"><stop offset="0" stop-color="#f3f7ff"/><stop offset="1" stop-color="#c3c7d2"/></linearGradient><linearGradient id="y76nc" x1="50.62" x2="50.62" y1="16.12" y2="31.07" gradientUnits="userSpaceOnUse"><stop offset="0" stop-color="#f3f7ff"/><stop offset="1" stop-color="#c3c7d2"/></linearGradient><linearGradient id="y76nd" x1="46.87" x2="46.87" y1="0" y2="12.96" gradientUnits="userSpaceOnUse"><stop offset="0" stop-color="#f3f7ff"/><stop offset="1" stop-color="#c3c7d2"/></linearGradient><linearGradient id="y76ne" x1="18" x2="18" y1="0" y2="6.32" gradientUnits="userSpaceOnUse"><stop offset="0" stop-color="#f3f7ff"/><stop offset="1" stop-color="#c3c7d2"/></linearGradient><linearGradient id="y76nf" x1="22.8" x2="22.8" y1="16.12" y2="31.04" gradientUnits="userSpaceOnUse"><stop offset="0" stop-color="#f3f7ff"/><stop offset="1" stop-color="#c3c7d2"/></linearGradient><linearGradient id="y76ng" x1="7.7" x2="7.7" y1="3.41" y2="11.92" gradientUnits="userSpaceOnUse"><stop offset="0" stop-color="#f3f7ff"/><stop offset="1" stop-color="#c3c7d2"/></linearGradient><linearGradient id="y76nh" x1="9.35" x2="9.35" y1="6.31" y2="30.76" gradientUnits="userSpaceOnUse"><stop offset="0" stop-color="#f3f7ff"/><stop offset="1" stop-color="#c3c7d2"/></linearGradient></defs><g><g><g><g><path fill="url(#y76na)" d="M35.897 26.863c.213-.297.401-.612.561-.94.126-.262.219-.537.278-.821l-.27-.299-.823-.116v-.597h3.027v.597l-1.066.146c-.136.466-.31.919-.522 1.355-.201.42-.44.82-.717 1.194l1.158 1.346 1.361.071v.597h-2.626v-.358l-.669-.749a5.968 5.968 0 0 1-1.474.961c-.454.21-.947.32-1.447.322a3.197 3.197 0 0 1-2.272-.838 2.746 2.746 0 0 1-.895-2.09 2.564 2.564 0 0 1 .484-1.572 3.62 3.62 0 0 1 1.492-1.107 5.11 5.11 0 0 1-.934-1.194 2.328 2.328 0 0 1 .49-2.862 2.749 2.749 0 0 1 1.933-.717 2.686 2.686 0 0 1 1.845.633 2.041 2.041 0 0 1 .716 1.6 2.232 2.232 0 0 1-.502 1.471 4.775 4.775 0 0 1-1.686 1.182zm-3.868-2.46a2.91 2.91 0 0 0-.895.875c-.189.316-.285.679-.278 1.047-.023.623.199 1.23.618 1.693a2.06 2.06 0 0 0 1.573.665c.372.002.742-.074 1.083-.224.366-.165.7-.392.988-.671zm.8-.823c.439-.179.823-.47 1.113-.845.238-.352.36-.77.35-1.194a1.71 1.71 0 0 0-.398-1.194 1.352 1.352 0 0 0-1.065-.444 1.295 1.295 0 0 0-.988.414 1.453 1.453 0 0 0-.394 1.048c.005.369.113.729.313 1.039.299.44.659.836 1.069 1.176z"/></g><g><g><path fill="url(#y76nb)" d="M32.548 6.042c-.573-2.984.066-4.327 1.143-5.372-.928 1.236-1.265 2.922-.826 5.074zm.424.248c.373 1.068 1.582 2.047 1.52 2.614-.063.567 0 1.627-.598 1.123-2.077-1.827-.937-3.212-.937-3.603zM31.46 8.725c-1.403-3.181-.29-5.99.19-6.545-.61 1.367-.847 4.605.452 6.85zm4.098-.647c.364 1.146 1.63 2.28 1.492 2.87-.137.592-.245 1.693-.842 1.12-2.116-2.044-.716-3.555-.65-3.99zm5.467 9.86c-1.963-2.04-1.113-4.467-1.068-4.864.597 1.48 2.334 2.928 2.09 3.68-.216.749-.383 1.868-1.022 1.185zm-6.067-9.825c-1.824-2.214-1.22-4.172-.896-5.05-.164 1.41-.528 2.594 1.069 4.477zm-4.477.851c.71.352 3.916 1.116 4.811 3.83.182.614-1.528-.651-2.423-1.093-.893-.439-1.161-1.657-2.388-2.737zm8.109 5.778c-2.006-1.934-1.039-4.077-1-4.402.448 1.319 2.086 2.665 1.898 3.34-.176.668-.241 1.698-.898 1.062zm4.259 6.506c-1.322-2.4-.063-5.106.084-5.575.474 1.74 2.056 3.501 1.492 4.328-.499.824-1.18 2.047-1.576 1.247zm.55 3.179c-.153-2.28.715-4.298 3.276-4.972-1.597 1.495-1.656 3.686-1.955 4.748-.203.869-1.322.952-1.322.227zm-8.955-14.111c2.89 4.378 7.235 8.306 8.235 11.92a7.56 7.56 0 0 1 .036 4.581c-.373 1.188-.98 1.899-1.212 2.32-.89.095-1.107.289-1.167.095.012-.224.698-.731 1.295-1.892a7.013 7.013 0 0 0 .552-4.859c-.838-3.94-5.924-8.24-7.804-11.893l.065-.269zm3.08 7.793c-1.158-.335-1.963-2.212-4.07-3.098.6.027 5.554 1.167 6.61 3.715.314.788-1.322-.28-2.54-.614zm-2.584-3.107c-1.182-.335-1.937-2.415-3.853-3.418.576.108 4.74 1.182 6.65 4.286.441.746-1.582-.528-2.797-.865zm4.375 6.366c-.976-.394-1.346-2.403-3.45-3.31.55.018 5.402 1.122 5.67 3.781.043.818-1.148-.065-2.22-.468zM42 24.803c-.197.737-1.155.045-2.05-.307-.457-.17-.46-.747-.69-1.403a2.95 2.95 0 0 0-1.492-1.79c.463.017 4.704 1.085 4.232 3.503z"/></g></g><g><path fill="url(#y76nc)" d="M51.93 16.12v1.092h.08c.439-.024 2.576-.065 3.155 1.272.1.237.15.492.146.749v3.453a5.373 5.373 0 0 1-2.274 4.396 9.902 9.902 0 0 1-5.516 1.842h-.17a9.634 9.634 0 0 1-3.632-.717 10.5 10.5 0 0 1-1.96-1.062c-.377.845-1.007 1.692-1.699 2.044a12.103 12.103 0 0 0 5.154 1.812h.027a11.714 11.714 0 0 0 3.032-.075h.057c2.653-.43 5.059-1.394 6.981-3.345l.045.155v.027l.534 1.835h1.764s.062-2.898.113-5.703c.021-1.194.039-2.361.048-3.283v-1.176a1.824 1.824 0 0 1 .698-1.492 3.145 3.145 0 0 1 1.257-.556 5.6 5.6 0 0 1 1.053-.125h.358V16.12z"/></g><g><path fill="url(#y76nd)" d="M38.6 6.456c.039-.313.16-.61.35-.86 2.09-2.737 5.074-4.453 8.374-4.459h.036a9.657 9.657 0 0 1 3.352.618c.182.066.364.14.543.22.701.301 1.363.687 1.97 1.15l.027.018a13.887 13.887 0 0 1 1.373 1.194c.03.032.062.062.092.095a12.98 12.98 0 0 1 1.51 1.88h1.669L55.278.627l-2.826.943-.09.03-.277-.155A11.89 11.89 0 0 0 46.555 0h-.126c-.328 0-.654.015-.976.042h-.086c-3.88.349-7.274 2.593-9.527 5.93.11.976.597 1.937 1.26 2.853 1.107 1.558 2.65 2.985 3.435 4.137-.436-1.385-2.337-3.346-1.934-6.506z"/></g><g><path fill="url(#y76ne)" d="M27.831 6.318h-1.65a12.98 12.98 0 0 0-1.603-1.976c-.033-.03-.063-.065-.096-.095l-.041-.042a14.31 14.31 0 0 0-1.236-1.056l-.027-.018a9.288 9.288 0 0 0-1.97-1.15 9.63 9.63 0 0 0-3.927-.844c-2.761 0-5.292 1.194-7.265 3.182-.43-.367-1.513-1.054-1.856-1.072A12.696 12.696 0 0 1 15.406.042C15.73.015 16.054 0 16.38 0h.129a11.87 11.87 0 0 1 5.515 1.436l.28.155L25.22.618z"/></g><g><path fill="url(#y76nf)" d="M31.12 16.12v1.092a5.733 5.733 0 0 0-1.405.126 3.146 3.146 0 0 0-1.256.573 1.823 1.823 0 0 0-.705 1.492v1.176c0 .925-.027 2.09-.05 3.283-.048 2.805-.111 5.703-.111 5.703h-1.767l-.543-1.862-.045-.155c-1.922 1.952-4.327 2.916-6.98 3.345a11.691 11.691 0 0 1-3.09.084h-.038c-.221-.024-.442-.054-.66-.09a1.875 1.875 0 0 0 .863-1.575 1.841 1.841 0 0 0-.114-.615 9.589 9.589 0 0 0 2.056.224h.153a9.877 9.877 0 0 0 5.55-1.842 5.372 5.372 0 0 0 2.26-4.393v-3.447c0-2.307-3.381-2.018-3.381-2.018V16.12z"/></g><g><path fill="url(#y76ng)" d="M15.355 5.938a1.952 1.952 0 0 1-.075.299c-.013.049-.03.097-.05.143l-.027.072-.036.074c-.19.374-.485.685-.848.896-.34.206-.714.348-1.104.42-.781.15-1.59.038-2.301-.319a8.69 8.69 0 0 1-.943-.597l-.86-.62a15.84 15.84 0 0 0-1.71-1.12 6.112 6.112 0 0 0-1.817-.69 3.781 3.781 0 0 0-1.878.13c-.306.102-.6.237-.877.402a3.54 3.54 0 0 0-.74.573c-.43.418-.707.967-.788 1.561-.065.572.039 1.151.298 1.665.245.51.613.948 1.072 1.278.074.057.152.104.23.152a3.756 3.756 0 0 0 .913.37c.139.047.28.086.423.117.314.049.632.069.95.06.337 0 .689-.037 1.074-.066a2.913 2.913 0 0 1-.871.746 3.14 3.14 0 0 1-.806.331 1.194 1.194 0 0 1-1-.895.695.695 0 0 0 0 .158 1.155 1.155 0 0 0 .468.83c-.315.029-.632.012-.943-.051l-.083-.018a3.686 3.686 0 0 1-1.18-.499A4.059 4.059 0 0 1 .275 9.392a3.996 3.996 0 0 1-.143-2.469c.217-.791.668-1.499 1.295-2.03.295-.253.617-.473.961-.656a5.843 5.843 0 0 1 1.054-.444 5.23 5.23 0 0 1 1.134-.224 4.82 4.82 0 0 1 1.155.038 6.325 6.325 0 0 1 2.125.762c.626.362 1.225.771 1.79 1.223l.833.645c.258.205.53.394.812.564.546.3 1.176.41 1.79.313.305-.046.598-.147.866-.298.25-.14.458-.346.597-.597.134-.262.2-.554.191-.848a1.585 1.585 0 0 0-.274-.817 1.292 1.292 0 0 0-.672-.502 1.516 1.516 0 0 0-.877 0 1.379 1.379 0 0 0-.747.454 1.053 1.053 0 0 0-.2.818c.045.306.184.59.397.814a.913.913 0 0 0 .896.266.832.832 0 0 1-.531.17 1.241 1.241 0 0 1-.299-.057 1.321 1.321 0 0 1-.266-.137 1.576 1.576 0 0 1-.63-1.59c.037-.207.118-.404.236-.577.248-.328.594-.569.988-.686.384-.136.8-.154 1.194-.05.408.113.766.36 1.018.7.246.334.392.73.42 1.144a2.33 2.33 0 0 1-.032.617z"/></g><g><path fill="url(#y76nh)" d="M16.243 24.437a2.088 2.088 0 0 1-.853.774c.343.347.535.816.534 1.304a1.827 1.827 0 0 1-1.576 1.824c.053.174.08.355.08.537a1.814 1.814 0 1 1-3.626 0 1.853 1.853 0 0 1 .556-1.325 1.85 1.85 0 0 1-.517-1.973 2.089 2.089 0 0 1-1.534-2h-.06a2.09 2.09 0 0 1-2.07-2.122A2.09 2.09 0 0 1 4.7 18.874a2.068 2.068 0 0 1-2.55-2.044 2.113 2.113 0 0 1 .761-1.626 2.116 2.116 0 0 1 .203-3.298l-.036-.057a2.107 2.107 0 0 1 1.35-3.098 2.071 2.071 0 1 1 4.092-.11 2.09 2.09 0 0 1 1.862 2.09c0 .459-.15.906-.427 1.273a2.09 2.09 0 0 1 2.379 2.617c.083-.004.167-.004.25 0a2.089 2.089 0 0 1 2.071 2.09c0 .381-.103.756-.298 1.083a2.106 2.106 0 0 1 1.08 3.668 2.106 2.106 0 0 1 1.12 1.866c.001.391-.107.776-.314 1.109zm-2.414-3.27a1.223 1.223 0 0 1-1.093-.913.964.964 0 0 0 0 .16 1.277 1.277 0 0 0 1.105 1.102c.83.114 1.57-.492 1.54-1.16a.525.525 0 0 0 0-.096c-.084.588-.761 1.011-1.552.907zm-4.602-1.298a1.325 1.325 0 0 0 1.149 1.146c.865.122 1.638-.514 1.608-1.212v-.098c-.086.614-.803 1.056-1.596.946a1.268 1.268 0 0 1-1.14-.952.814.814 0 0 0-.021.17zm-.514-2.955a1.06 1.06 0 0 0 .899.92c.683.098 1.304-.41 1.28-.965a.37.37 0 0 0 0-.08c-.08.49-.639.844-1.274.755a1.012 1.012 0 0 1-.896-.758.662.662 0 0 0 0 .134zm2.361 4.987a.45.45 0 0 0-.003.117.877.877 0 0 0 .767.764c.576.09 1.09-.34 1.068-.806a.48.48 0 0 0 0-.066c-.06.409-.537.704-1.065.63a.844.844 0 0 1-.758-.633zm.604-4.34a1.217 1.217 0 0 1-.41-.632.974.974 0 0 0 0 .161 1.272 1.272 0 0 0 1.104 1.098c.83.117 1.57-.489 1.54-1.158a.95.95 0 0 0 0-.095c-.083.579-.77 1.003-1.53.895a1.217 1.217 0 0 1-.704-.27zm-2.03-2.795a1.22 1.22 0 0 1-.4-.634.731.731 0 0 0 0 .162 1.271 1.271 0 0 0 1.089 1.11c.83.116 1.57-.493 1.54-1.161v-.093c-.087.576-.773 1.003-1.534.896a1.22 1.22 0 0 1-.695-.28zM7.46 11.67a1.215 1.215 0 0 1-.41-.63.92.92 0 0 0 0 .159A1.274 1.274 0 0 0 8.156 12.3c.83.116 1.57-.492 1.54-1.161v-.096c-.083.576-.77 1-1.534.896a1.215 1.215 0 0 1-.701-.269zm1.232 2.833v-.096c-.083.579-.77 1.003-1.53.895a1.215 1.215 0 0 1-1.093-.895.695.695 0 0 0 0 .158 1.271 1.271 0 0 0 1.104 1.102c.83.116 1.57-.493 1.52-1.164zm-.134 3.127c-.075.51-.69.905-1.37.81a1.089 1.089 0 0 1-.979-.813.726.726 0 0 0 0 .14 1.134 1.134 0 0 0 .988.985c.74.105 1.403-.438 1.376-1.035a.772.772 0 0 0-.015-.087zm-4.847-6.096a1.304 1.304 0 0 0 .95.644c.829.116 1.57-.493 1.54-1.161a.544.544 0 0 0 0-.096c-.084.58-.77 1.003-1.532.895l-.092-.014a1.194 1.194 0 0 1-1-.896 1.155 1.155 0 0 0 .134.628zm1.552-2.911a.731.731 0 0 0-.02.188 1.274 1.274 0 0 0 1.104 1.101c.83.114 1.57-.492 1.54-1.16v-.096c-.081.576-.77 1-1.532.895a1.22 1.22 0 0 1-1.086-.928zM3.25 14.67c.196.202.453.333.73.373.83.113 1.57-.496 1.54-1.161a.933.933 0 0 0 0-.096c-.083.576-.77 1-1.53.896a1.22 1.22 0 0 1-1.093-.914.71.71 0 0 0 0 .162c.033.279.157.539.353.74zm2.28 2.438v-.096c-.084.576-.77 1-1.531.896a1.22 1.22 0 0 1-1.102-.925.73.73 0 0 0 0 .16 1.274 1.274 0 0 0 1.105 1.102c.83.114 1.57-.492 1.528-1.137zm2.349 2.62v-.095c-.081.576-.77 1-1.531.895a1.215 1.215 0 0 1-1.093-.895.696.696 0 0 0 0 .158 1.274 1.274 0 0 0 1.104 1.101c.83.102 1.57-.507 1.52-1.164zm1.146 3.304c.82.114 1.57-.492 1.528-1.149a.933.933 0 0 0 0-.095c-.084.576-.77 1-1.531.895a1.22 1.22 0 0 1-1.102-.898.723.723 0 0 0 0 .161 1.274 1.274 0 0 0 1.105 1.101zm2.104 2.02c.83.114 1.57-.492 1.504-1.133v-.096c-.084.576-.77 1-1.531.896a1.221 1.221 0 0 1-1.092-.914.723.723 0 0 0 0 .161 1.275 1.275 0 0 0 1.104 1.102zm.149 1.535a.895.895 0 0 0 .737.782c.576.086 1.093-.343 1.072-.809a.598.598 0 0 0 0-.066c-.057.41-.535.705-1.063.63a.845.845 0 0 1-.761-.633.687.687 0 0 0 0 .11zm1.173 3.593c.83.117 1.573-.492 1.513-1.164v-.095c-.084.579-.773 1.003-1.534.895a1.215 1.215 0 0 1-1.092-.895.695.695 0 0 0 0 .158 1.271 1.271 0 0 0 1.098 1.104zm3.017-3.3c-.068.486-.639.835-1.292.749a1.008 1.008 0 0 1-.895-.756.67.67 0 0 0 0 .135 1.05 1.05 0 0 0 .913.91c.677.095 1.298-.409 1.274-.961zm.305-3.313a.508.508 0 0 0 0-.096c-.084.576-.77 1-1.534.895a1.223 1.223 0 0 1-1.093-.913.964.964 0 0 0 0 .161 1.277 1.277 0 0 0 1.104 1.102c.83.113 1.564-.493 1.523-1.15z"/></g></g></g></g></svg>