<svg xmlns="http://www.w3.org/2000/svg" width="134" height="19" viewBox="0 0 134 19"><defs><linearGradient id="hwhma" x1="6.2" x2="6.2" y1=".5" y2="14.32" gradientUnits="userSpaceOnUse"><stop offset="0" stop-color="#f3f7ff"/><stop offset="1" stop-color="#c3c7d2"/></linearGradient><linearGradient id="hwhmb" x1="16.58" x2="16.58" y1="4.37" y2="14.05" gradientUnits="userSpaceOnUse"><stop offset="0" stop-color="#f3f7ff"/><stop offset="1" stop-color="#c3c7d2"/></linearGradient><linearGradient id="hwhmc" x1="25" x2="25" y1="4.27" y2="14.21" gradientUnits="userSpaceOnUse"><stop offset="0" stop-color="#f3f7ff"/><stop offset="1" stop-color="#c3c7d2"/></linearGradient><linearGradient id="hwhmd" x1="34.75" x2="34.75" y1="4.32" y2="18.41" gradientUnits="userSpaceOnUse"><stop offset="0" stop-color="#f3f7ff"/><stop offset="1" stop-color="#c3c7d2"/></linearGradient><linearGradient id="hwhme" x1="44.75" x2="44.75" y1="4.31" y2="14.25" gradientUnits="userSpaceOnUse"><stop offset="0" stop-color="#f3f7ff"/><stop offset="1" stop-color="#c3c7d2"/></linearGradient><linearGradient id="hwhmf" x1="53.26" x2="53.26" y1="4.31" y2="14.25" gradientUnits="userSpaceOnUse"><stop offset="0" stop-color="#f3f7ff"/><stop offset="1" stop-color="#c3c7d2"/></linearGradient><linearGradient id="hwhmg" x1="69.29" x2="69.29" y1=".48" y2="14.29" gradientUnits="userSpaceOnUse"><stop offset="0" stop-color="#f3f7ff"/><stop offset="1" stop-color="#c3c7d2"/></linearGradient><linearGradient id="hwhmh" x1="87.7" x2="87.7" y1=".5" y2="14.32" gradientUnits="userSpaceOnUse"><stop offset="0" stop-color="#f3f7ff"/><stop offset="1" stop-color="#c3c7d2"/></linearGradient><linearGradient id="hwhmi" x1="98.01" x2="98.01" y1="4.37" y2="14.05" gradientUnits="userSpaceOnUse"><stop offset="0" stop-color="#f3f7ff"/><stop offset="1" stop-color="#c3c7d2"/></linearGradient><linearGradient id="hwhmj" x1="106.44" x2="106.44" y1="4.27" y2="14.21" gradientUnits="userSpaceOnUse"><stop offset="0" stop-color="#f3f7ff"/><stop offset="1" stop-color="#c3c7d2"/></linearGradient><linearGradient id="hwhmk" x1="113.77" x2="113.77" y1="0" y2="14.04" gradientUnits="userSpaceOnUse"><stop offset="0" stop-color="#f3f7ff"/><stop offset="1" stop-color="#c3c7d2"/></linearGradient><linearGradient id="hwhml" x1="121.76" x2="121.76" y1="4.31" y2="14.04" gradientUnits="userSpaceOnUse"><stop offset="0" stop-color="#f3f7ff"/><stop offset="1" stop-color="#c3c7d2"/></linearGradient><linearGradient id="hwhmm" x1="130.85" x2="130.85" y1="4.31" y2="14.25" gradientUnits="userSpaceOnUse"><stop offset="0" stop-color="#f3f7ff"/><stop offset="1" stop-color="#c3c7d2"/></linearGradient></defs><g><g><g><g><path fill="url(#hwhma)" d="M7.457 7.684h4.955V8.5l-1.097.093-.328.274v4.748c-.731.217-1.475.392-2.226.522-.62.115-1.249.175-1.88.18a8.142 8.142 0 0 1-1.852-.207 6.017 6.017 0 0 1-1.564-.589 6.56 6.56 0 0 1-2.515-2.54 7.195 7.195 0 0 1-.942-3.578A6.687 6.687 0 0 1 1.933 2.38 7.148 7.148 0 0 1 7.123.51c.622.004 1.243.053 1.858.147.662.103 1.316.248 1.96.435v3.156H9.856l-.3-1.806-.275-.36a5.744 5.744 0 0 0-1.123-.389 5.35 5.35 0 0 0-1.137-.127A4.54 4.54 0 0 0 3.404 3.09a6.159 6.159 0 0 0-1.337 4.18 6.526 6.526 0 0 0 1.37 4.386 4.64 4.64 0 0 0 3.725 1.605c.677-.012 1.35-.101 2.006-.268V8.867l-.34-.274L7.422 8.5z"/></g><g><path fill="url(#hwhmb)" d="M13.15 14.046v-.669l1.057-.093.34-.321V5.76H13.15v-.622l2.307-.709h.756v1.86c.32-.328.668-.67 1.01-.97.34-.301.721-.669 1.11-.95h.494c.198-.002.396.02.588.067.207.045.408.11.602.194v1.705h-.615a1.418 1.418 0 0 0-.448-.354 1.337 1.337 0 0 0-.568-.12c-.362.016-.711.14-1.003.354a5.931 5.931 0 0 0-1.157 1.103v5.67l.34.321 1.385.094v.642z"/></g><g><path fill="url(#hwhmc)" d="M26.372 12.917a9.361 9.361 0 0 1-1.759.976 4.18 4.18 0 0 1-1.498.314 2.4 2.4 0 0 1-2.54-2.54 2.314 2.314 0 0 1 1.043-2.006c.695-.482 2.28-1.021 4.754-1.619v-.628a2.768 2.768 0 0 0-.408-1.732 1.752 1.752 0 0 0-1.418-.488c-.25 0-.498.026-.742.08-.262.054-.52.13-.769.227v1.672h-1.337a.669.669 0 0 1-.488-.134.669.669 0 0 1-.134-.481 1.866 1.866 0 0 1 1.117-1.605 5.784 5.784 0 0 1 2.895-.669 3.17 3.17 0 0 1 2.267.669 2.889 2.889 0 0 1 .709 2.18v5.757l.34.321 1.03.16v.67h-2.801zm0-4.166a11.3 11.3 0 0 0-3.27 1.277 1.779 1.779 0 0 0-.782 1.505 1.618 1.618 0 0 0 .428 1.17 1.551 1.551 0 0 0 1.163.441 3.21 3.21 0 0 0 1.07-.22c.48-.19.945-.416 1.39-.676z"/></g><g><path fill="url(#hwhmd)" d="M29.85 18.396v-.709l1.077-.107.314-.307V5.758H29.85v-.622l2.307-.708h.749V5.51c.47-.36.981-.661 1.524-.896a3.698 3.698 0 0 1 1.405-.294 3.397 3.397 0 0 1 2.735 1.297 5.102 5.102 0 0 1 1.07 3.343 5.229 5.229 0 0 1-1.338 3.745 4.64 4.64 0 0 1-3.544 1.41c-.254 0-.535 0-.836-.04-.3-.04-.668-.073-1.01-.133v3.343l.342.308 1.263.107v.709zm3.056-5.476c.295.1.597.18.903.24.26.052.524.079.789.08a2.949 2.949 0 0 0 2.387-1.103c.639-.83.961-1.862.91-2.908a4.146 4.146 0 0 0-.79-2.675A2.554 2.554 0 0 0 35 5.564a3.03 3.03 0 0 0-.976.168c-.39.13-.764.303-1.117.514z"/></g><g><path fill="url(#hwhme)" d="M48.818 13.067a7.081 7.081 0 0 1-1.832.876c-.619.198-1.264.3-1.913.301a4.12 4.12 0 0 1-3.196-1.337 5.048 5.048 0 0 1-1.21-3.544 5.202 5.202 0 0 1 1.283-3.638 4.26 4.26 0 0 1 3.304-1.41 3.397 3.397 0 0 1 2.614 1.036 4.092 4.092 0 0 1 .95 2.888v.609h-6.446v.22a4.494 4.494 0 0 0 .902 2.97 2.989 2.989 0 0 0 2.434 1.09 4.24 4.24 0 0 0 1.471-.282 8.11 8.11 0 0 0 1.639-.876zm-1.766-5.042v-.307a2.822 2.822 0 0 0-.528-1.832 1.886 1.886 0 0 0-1.538-.67 2.26 2.26 0 0 0-1.712.803 3.216 3.216 0 0 0-.809 2.006z"/></g><g><path fill="url(#hwhmf)" d="M56.118 4.753v2.253h-.983l-.154-1.41a3.871 3.871 0 0 0-.755-.315 2.414 2.414 0 0 0-.716-.107 1.805 1.805 0 0 0-1.21.375 1.337 1.337 0 0 0-.441 1.056c-.01.349.117.687.354.943.39.366.843.658 1.337.863.1.053.261.127.475.22a7.737 7.737 0 0 1 1.625.93c.246.193.44.447.562.735.134.306.2.636.194.97a2.634 2.634 0 0 1-.983 2.186 4.233 4.233 0 0 1-2.729.79 9.055 9.055 0 0 1-1.37-.1 5.87 5.87 0 0 1-1.204-.315v-2.575h.95l.24 1.686c.261.155.543.274.836.354.276.08.562.12.85.12.484.02.959-.137 1.337-.441a1.458 1.458 0 0 0 .508-1.157c.014-.364-.11-.72-.348-.996a5.697 5.697 0 0 0-1.658-.996 6.326 6.326 0 0 1-2.006-1.258 2.113 2.113 0 0 1-.535-1.464 2.46 2.46 0 0 1 .923-2.053 4.066 4.066 0 0 1 2.594-.729 6.56 6.56 0 0 1 1.244.114c.364.07.72.178 1.063.321z"/></g><g><path fill="url(#hwhmg)" d="M71.56 10.7c.283-.395.531-.813.742-1.25.17-.349.296-.717.375-1.097l-.361-.374-1.097-.154v-.796h4.012v.796l-1.424.187a10.76 10.76 0 0 1-.669 1.806 10.033 10.033 0 0 1-.95 1.57l1.539 1.793 1.812.1v.762h-3.497v-.474l-.89-.997a8.158 8.158 0 0 1-1.959 1.291 4.788 4.788 0 0 1-1.932.428 4.266 4.266 0 0 1-3.023-1.117 3.651 3.651 0 0 1-1.197-2.801A3.417 3.417 0 0 1 63.71 8.3a4.808 4.808 0 0 1 1.966-1.478 6.867 6.867 0 0 1-1.244-1.565 3.13 3.13 0 0 1-.124-2.763 3.05 3.05 0 0 1 .78-1.055 3.651 3.651 0 0 1 2.574-.956 3.564 3.564 0 0 1 2.454.849 2.675 2.675 0 0 1 .956 2.133 2.976 2.976 0 0 1-.669 1.96 6.42 6.42 0 0 1-2.286 1.564zm-5.189-3.276a3.925 3.925 0 0 0-1.183 1.163c-.251.422-.378.907-.368 1.398-.029.83.266 1.637.822 2.253a2.741 2.741 0 0 0 2.093.883c.497.006.99-.095 1.445-.294.496-.216.95-.52 1.337-.897zm1.05-1.097A3.53 3.53 0 0 0 68.9 5.204c.32-.476.484-1.039.468-1.612a2.307 2.307 0 0 0-.528-1.578 1.812 1.812 0 0 0-1.418-.588 1.752 1.752 0 0 0-1.337.548 1.96 1.96 0 0 0-.522 1.397c.006.492.15.971.415 1.385.404.59.89 1.118 1.444 1.571z"/></g><g><path fill="url(#hwhmh)" d="M88.94 7.684h4.948V8.5l-1.09.093-.334.274v4.748a18.98 18.98 0 0 1-2.22.522c-.622.114-1.253.175-1.886.18a8.228 8.228 0 0 1-1.852-.207 6.216 6.216 0 0 1-1.565-.589 6.586 6.586 0 0 1-2.507-2.54 7.121 7.121 0 0 1-.916-3.578 6.687 6.687 0 0 1 1.925-5.022A7.148 7.148 0 0 1 88.633.51c.622.004 1.243.053 1.858.147.66.102 1.312.247 1.953.435v3.156H91.34l-.3-1.806-.281-.36a5.838 5.838 0 0 0-1.117-.389 5.383 5.383 0 0 0-1.137-.127 4.554 4.554 0 0 0-3.624 1.525 6.152 6.152 0 0 0-1.337 4.18 6.526 6.526 0 0 0 1.37 4.386 4.634 4.634 0 0 0 3.725 1.605c.322-.004.643-.026.963-.067.358-.044.713-.11 1.063-.201V8.867l-.34-.274L88.92 8.5z"/></g><g><path fill="url(#hwhmi)" d="M94.59 14.046v-.669l1.057-.094.34-.32V5.76H94.59v-.622l2.307-.709h.735v1.86c.328-.328.67-.67 1.017-.97.348-.301.722-.67 1.11-.95h.495a2.48 2.48 0 0 1 .588.067c.206.045.408.11.602.194v1.705h-.629a1.444 1.444 0 0 0-.454-.354 1.337 1.337 0 0 0-.562-.12 1.812 1.812 0 0 0-1.003.354 5.944 5.944 0 0 0-1.164 1.103v5.67l.341.321 1.385.094v.642z"/></g><g><path fill="url(#hwhmj)" d="M107.816 12.916a8.968 8.968 0 0 1-1.76.977 4.126 4.126 0 0 1-1.497.314 2.394 2.394 0 0 1-2.534-2.541 2.32 2.32 0 0 1 1.036-2.006c.696-.482 2.28-1.021 4.755-1.618v-.629a2.728 2.728 0 0 0-.408-1.732 1.739 1.739 0 0 0-1.411-.488c-.252 0-.503.027-.75.08-.26.054-.514.13-.761.228v1.671h-1.371a.669.669 0 0 1-.488-.133.669.669 0 0 1-.127-.482 1.852 1.852 0 0 1 1.116-1.605 5.784 5.784 0 0 1 2.896-.668 3.19 3.19 0 0 1 2.266.668 2.915 2.915 0 0 1 .703 2.18v5.758l.34.32 1.05.094v.736h-2.795zm0-4.166c-1.148.25-2.251.674-3.27 1.258a1.779 1.779 0 0 0-.783 1.504 1.625 1.625 0 0 0 .435 1.184 1.545 1.545 0 0 0 1.157.44 3.15 3.15 0 0 0 1.07-.22 9.482 9.482 0 0 0 1.39-.668z"/></g><g><path fill="url(#hwhmk)" d="M113.82 4.427h.776v8.512l.334.32 1.07.094v.69h-4.46v-.67l1.05-.093.334-.321V5.757h-1.384v-.622zm.074-4.407a1.144 1.144 0 0 1 1.157 1.15 1.083 1.083 0 0 1-.335.803 1.164 1.164 0 0 1-1.883-.367 1.083 1.083 0 0 1-.083-.436 1.117 1.117 0 0 1 .335-.816 1.097 1.097 0 0 1 .809-.354z"/></g><g><path fill="url(#hwhml)" d="M116.59 14.04v-.67l1.077-.093.34-.321V5.754h-1.417v-.622l2.307-.708h.756v1.083c.618-.35 1.26-.658 1.919-.923a3.731 3.731 0 0 1 1.277-.267 2.514 2.514 0 0 1 2.006.775c.493.64.732 1.441.668 2.247v5.597l.342.32 1.063.095v.688h-4.34v-.668l.95-.094.34-.321V7.7a2.193 2.193 0 0 0-.46-1.578 2.106 2.106 0 0 0-1.545-.468c-.35.005-.696.06-1.03.16-.41.128-.809.29-1.19.489v6.653l.34.321.95.094v.668z"/></g><g><path fill="url(#hwhmm)" d="M133.698 4.753v2.253h-.976l-.154-1.41a3.872 3.872 0 0 0-.756-.315 2.44 2.44 0 0 0-.715-.107 1.826 1.826 0 0 0-1.217.375 1.337 1.337 0 0 0-.435 1.056 1.39 1.39 0 0 0 .348.943c.393.362.845.654 1.337.862l.475.221c.58.242 1.128.554 1.632.93.246.193.44.446.561.735.131.306.197.637.194.97a2.635 2.635 0 0 1-.983 2.186 4.233 4.233 0 0 1-2.728.79 8.994 8.994 0 0 1-1.37-.101 5.938 5.938 0 0 1-1.211-.314v-2.575h.95l.247 1.685c.261.156.542.275.836.355.276.08.562.12.849.12.484.02.96-.137 1.337-.441a1.458 1.458 0 0 0 .509-1.157c.014-.364-.11-.72-.348-.996a5.697 5.697 0 0 0-1.665-.997 6.326 6.326 0 0 1-2.006-1.257 2.08 2.08 0 0 1-.535-1.464 2.454 2.454 0 0 1 .916-2.053 4.092 4.092 0 0 1 2.601-.729c.417 0 .834.037 1.244.114.364.07.72.178 1.063.32z"/></g></g></g></g></svg>