<svg xmlns="http://www.w3.org/2000/svg" width="93" height="67" viewBox="0 0 93 67"><defs><linearGradient id="acsra" x1="4.3" x2="4.3" y1="54.4" y2="63.97" gradientUnits="userSpaceOnUse"><stop offset="0" stop-color="#f3f7ff"/><stop offset="1" stop-color="#c3c7d2"/></linearGradient><linearGradient id="acsrb" x1="11.48" x2="11.48" y1="57.08" y2="63.78" gradientUnits="userSpaceOnUse"><stop offset="0" stop-color="#f3f7ff"/><stop offset="1" stop-color="#c3c7d2"/></linearGradient><linearGradient id="acsrc" x1="17.31" x2="17.31" y1="57.01" y2="63.89" gradientUnits="userSpaceOnUse"><stop offset="0" stop-color="#f3f7ff"/><stop offset="1" stop-color="#c3c7d2"/></linearGradient><linearGradient id="acsrd" x1="24.06" x2="24.06" y1="57.04" y2="66.8" gradientUnits="userSpaceOnUse"><stop offset="0" stop-color="#f3f7ff"/><stop offset="1" stop-color="#c3c7d2"/></linearGradient><linearGradient id="acsre" x1="30.97" x2="30.97" y1="57.04" y2="63.92" gradientUnits="userSpaceOnUse"><stop offset="0" stop-color="#f3f7ff"/><stop offset="1" stop-color="#c3c7d2"/></linearGradient><linearGradient id="acsrf" x1="36.88" x2="36.88" y1="57.04" y2="63.92" gradientUnits="userSpaceOnUse"><stop offset="0" stop-color="#f3f7ff"/><stop offset="1" stop-color="#c3c7d2"/></linearGradient><linearGradient id="acsrg" x1="47.96" x2="47.96" y1="54.38" y2="63.94" gradientUnits="userSpaceOnUse"><stop offset="0" stop-color="#f3f7ff"/><stop offset="1" stop-color="#c3c7d2"/></linearGradient><linearGradient id="acsrh" x1="60.73" x2="60.73" y1="54.4" y2="63.97" gradientUnits="userSpaceOnUse"><stop offset="0" stop-color="#f3f7ff"/><stop offset="1" stop-color="#c3c7d2"/></linearGradient><linearGradient id="acsri" x1="67.87" x2="67.87" y1="57.08" y2="63.78" gradientUnits="userSpaceOnUse"><stop offset="0" stop-color="#f3f7ff"/><stop offset="1" stop-color="#c3c7d2"/></linearGradient><linearGradient id="acsrj" x1="73.69" x2="73.69" y1="57.01" y2="63.89" gradientUnits="userSpaceOnUse"><stop offset="0" stop-color="#f3f7ff"/><stop offset="1" stop-color="#c3c7d2"/></linearGradient><linearGradient id="acsrk" x1="78.78" x2="78.78" y1="54.05" y2="63.77" gradientUnits="userSpaceOnUse"><stop offset="0" stop-color="#f3f7ff"/><stop offset="1" stop-color="#c3c7d2"/></linearGradient><linearGradient id="acsrl" x1="84.3" x2="84.3" y1="57.04" y2="63.78" gradientUnits="userSpaceOnUse"><stop offset="0" stop-color="#f3f7ff"/><stop offset="1" stop-color="#c3c7d2"/></linearGradient><linearGradient id="acsrm" x1="90.6" x2="90.6" y1="57.04" y2="63.92" gradientUnits="userSpaceOnUse"><stop offset="0" stop-color="#f3f7ff"/><stop offset="1" stop-color="#c3c7d2"/></linearGradient><linearGradient id="acsrn" x1="51.85" x2="51.85" y1="29.1" y2="44.85" gradientUnits="userSpaceOnUse"><stop offset="0" stop-color="#f3f7ff"/><stop offset="1" stop-color="#c3c7d2"/></linearGradient><linearGradient id="acsro" x1="58.5" x2="58.5" y1="1.01" y2="44.45" gradientUnits="userSpaceOnUse"><stop offset="0" stop-color="#f3f7ff"/><stop offset="1" stop-color="#c3c7d2"/></linearGradient><linearGradient id="acsrp" x1="76.76" x2="76.76" y1="24.44" y2="47.11" gradientUnits="userSpaceOnUse"><stop offset="0" stop-color="#f3f7ff"/><stop offset="1" stop-color="#c3c7d2"/></linearGradient><linearGradient id="acsrq" x1="71.08" x2="71.08" y1="0" y2="19.66" gradientUnits="userSpaceOnUse"><stop offset="0" stop-color="#f3f7ff"/><stop offset="1" stop-color="#c3c7d2"/></linearGradient><linearGradient id="acsrr" x1="27.29" x2="27.29" y1="0" y2="9.58" gradientUnits="userSpaceOnUse"><stop offset="0" stop-color="#f3f7ff"/><stop offset="1" stop-color="#c3c7d2"/></linearGradient><linearGradient id="acsrs" x1="34.56" x2="34.56" y1="24.44" y2="47.07" gradientUnits="userSpaceOnUse"><stop offset="0" stop-color="#f3f7ff"/><stop offset="1" stop-color="#c3c7d2"/></linearGradient><linearGradient id="acsrt" x1="11.68" x2="11.68" y1="5.17" y2="18.08" gradientUnits="userSpaceOnUse"><stop offset="0" stop-color="#f3f7ff"/><stop offset="1" stop-color="#c3c7d2"/></linearGradient><linearGradient id="acsru" x1="14.19" x2="14.19" y1="9.57" y2="46.65" gradientUnits="userSpaceOnUse"><stop offset="0" stop-color="#f3f7ff"/><stop offset="1" stop-color="#c3c7d2"/></linearGradient></defs><g><g><g><g><path fill="url(#acsra)" d="M5.163 59.374h3.43v.565l-.759.064-.227.19v3.287c-.506.15-1.02.272-1.541.361-.43.08-.865.122-1.301.125a5.64 5.64 0 0 1-1.283-.143 4.167 4.167 0 0 1-1.083-.407 4.542 4.542 0 0 1-1.74-1.76 4.982 4.982 0 0 1-.654-2.477 4.63 4.63 0 0 1 1.334-3.477 4.95 4.95 0 0 1 3.592-1.296c.431.003.861.037 1.287.102.458.071.912.172 1.357.3v2.186h-.75l-.209-1.25-.19-.25a3.977 3.977 0 0 0-.777-.268 3.704 3.704 0 0 0-.787-.088 3.144 3.144 0 0 0-2.505 1.055 4.264 4.264 0 0 0-.926 2.894 4.518 4.518 0 0 0 .95 3.037 3.213 3.213 0 0 0 2.578 1.111 6.05 6.05 0 0 0 1.389-.185v-2.857l-.236-.19-.972-.064z"/></g><g><path fill="url(#acsrb)" d="M9.1 63.78v-.464l.731-.065.237-.222v-4.986H9.1v-.43l1.597-.491h.523v1.287c.223-.227.463-.463.7-.672.236-.208.5-.462.768-.657H13.031a1.69 1.69 0 0 1 .407.046c.143.032.282.077.417.135v1.18h-.426a.981.981 0 0 0-.31-.245.926.926 0 0 0-.394-.084c-.25.012-.492.098-.694.246-.3.217-.57.474-.801.764v3.926l.236.222.958.065v.444z"/></g><g><path fill="url(#acsrc)" d="M18.257 62.997c-.38.268-.789.495-1.218.676-.329.136-.68.21-1.037.217a1.662 1.662 0 0 1-1.759-1.759 1.602 1.602 0 0 1 .722-1.389c.482-.333 1.579-.707 3.292-1.12v-.435c.04-.42-.059-.842-.282-1.2a1.213 1.213 0 0 0-.982-.337c-.173 0-.345.018-.514.055-.181.037-.36.09-.532.158v1.157h-.926a.463.463 0 0 1-.338-.093.463.463 0 0 1-.093-.333 1.292 1.292 0 0 1 .773-1.111 4.005 4.005 0 0 1 2.005-.463 2.194 2.194 0 0 1 1.57.463 2 2 0 0 1 .49 1.51v3.985l.236.223.713.11v.464h-1.94zm0-2.884a7.824 7.824 0 0 0-2.264.884 1.231 1.231 0 0 0-.542 1.042 1.12 1.12 0 0 0 .297.81 1.074 1.074 0 0 0 .805.305c.254-.008.505-.06.741-.152.332-.132.654-.288.963-.468z"/></g><g><path fill="url(#acsrd)" d="M20.67 66.786v-.49l.745-.075.218-.213v-7.972h-.963v-.43l1.597-.492h.519v.75c.325-.249.68-.457 1.055-.62.308-.13.638-.2.973-.204a2.352 2.352 0 0 1 1.893.899c.513.66.776 1.48.74 2.314a3.62 3.62 0 0 1-.925 2.593 3.213 3.213 0 0 1-2.454.977c-.176 0-.37 0-.579-.028-.208-.028-.462-.05-.699-.092v2.314l.237.213.875.074v.491zm2.116-3.792c.204.07.413.125.625.167.18.035.363.054.546.055a2.042 2.042 0 0 0 1.653-.763c.442-.576.665-1.29.63-2.014a2.87 2.87 0 0 0-.547-1.852 1.769 1.769 0 0 0-1.458-.685c-.23 0-.459.04-.676.115-.27.091-.529.21-.773.357z"/></g><g><path fill="url(#acsre)" d="M33.798 63.103a4.903 4.903 0 0 1-1.268.607 4.366 4.366 0 0 1-1.325.208 2.852 2.852 0 0 1-2.212-.926 3.495 3.495 0 0 1-.838-2.454 3.602 3.602 0 0 1 .888-2.518 2.95 2.95 0 0 1 2.288-.977 2.352 2.352 0 0 1 1.81.717c.468.558.703 1.274.657 2v.422h-4.463v.153c-.042.737.18 1.466.625 2.055a2.07 2.07 0 0 0 1.685.755c.349-.004.694-.07 1.019-.195.4-.158.78-.361 1.134-.606zm-1.222-3.49v-.214c.029-.452-.1-.9-.366-1.268a1.306 1.306 0 0 0-1.065-.463 1.565 1.565 0 0 0-1.185.555c-.341.385-.54.876-.56 1.39z"/></g><g><path fill="url(#acsrf)" d="M38.853 57.347v1.56h-.68l-.107-.977a2.68 2.68 0 0 0-.523-.218 1.672 1.672 0 0 0-.496-.074 1.25 1.25 0 0 0-.838.26.926.926 0 0 0-.305.731.926.926 0 0 0 .245.653c.27.253.584.455.926.597.07.037.18.088.329.153.4.168.777.384 1.125.643.17.135.304.31.389.51.092.211.138.44.134.671a1.824 1.824 0 0 1-.68 1.514 2.93 2.93 0 0 1-1.89.546c-.317.001-.635-.022-.949-.07a4.064 4.064 0 0 1-.833-.217v-1.782h.657l.167 1.166c.18.108.376.19.579.246.191.055.389.083.588.083.335.014.664-.095.926-.305a1.01 1.01 0 0 0 .352-.801.995.995 0 0 0-.241-.69 3.944 3.944 0 0 0-1.148-.69 4.38 4.38 0 0 1-1.39-.87 1.463 1.463 0 0 1-.37-1.014 1.704 1.704 0 0 1 .64-1.422 2.815 2.815 0 0 1 1.796-.504c.288-.001.577.025.86.078.253.05.5.124.737.223z"/></g><g><path fill="url(#acsrg)" d="M49.54 61.456c.195-.273.367-.563.513-.866.118-.24.205-.496.26-.759l-.25-.26-.76-.106v-.55h2.778v.55l-.986.13c-.117.43-.272.848-.463 1.25a6.945 6.945 0 0 1-.658 1.088l1.065 1.24 1.255.07v.528h-2.422v-.329l-.615-.69a5.648 5.648 0 0 1-1.357.894c-.42.19-.876.292-1.338.296a2.954 2.954 0 0 1-2.092-.773 2.528 2.528 0 0 1-.83-1.94 2.366 2.366 0 0 1 .464-1.435 3.329 3.329 0 0 1 1.361-1.023 4.755 4.755 0 0 1-.861-1.083 2.167 2.167 0 0 1-.086-1.913c.125-.28.309-.53.54-.731a2.528 2.528 0 0 1 1.782-.662 2.468 2.468 0 0 1 1.7.588 1.852 1.852 0 0 1 .661 1.477 2.06 2.06 0 0 1-.463 1.356 4.444 4.444 0 0 1-1.583 1.084zm-3.594-2.268a2.718 2.718 0 0 0-.819.805 1.82 1.82 0 0 0-.255.968c-.02.574.185 1.134.57 1.56a1.898 1.898 0 0 0 1.449.611c.344.004.685-.065 1-.204.344-.149.657-.359.926-.62zm.727-.76a2.444 2.444 0 0 0 1.024-.777c.221-.33.335-.72.324-1.116a1.597 1.597 0 0 0-.366-1.093 1.255 1.255 0 0 0-.982-.407 1.213 1.213 0 0 0-.926.38c-.243.262-.373.61-.36.967.003.34.103.672.286.958.28.409.617.775 1 1.088z"/></g><g><path fill="url(#acsrh)" d="M61.584 59.374h3.426v.565l-.754.064-.232.19v3.287c-.505.151-1.018.272-1.537.361-.43.08-.868.122-1.306.125a5.7 5.7 0 0 1-1.282-.143 4.305 4.305 0 0 1-1.083-.407 4.56 4.56 0 0 1-1.736-1.76 4.93 4.93 0 0 1-.635-2.477 4.63 4.63 0 0 1 1.334-3.477 4.95 4.95 0 0 1 3.592-1.296c.431.003.861.037 1.287.102.457.07.909.171 1.352.3v2.186h-.764l-.208-1.25-.194-.25a4.042 4.042 0 0 0-.774-.268 3.727 3.727 0 0 0-.787-.088 3.153 3.153 0 0 0-2.509 1.055 4.26 4.26 0 0 0-.926 2.894 4.519 4.519 0 0 0 .95 3.037 3.208 3.208 0 0 0 2.578 1.111 5.77 5.77 0 0 0 .667-.046c.248-.03.494-.077.736-.14v-2.856l-.236-.19-.973-.064z"/></g><g><path fill="url(#acsri)" d="M65.49 63.78v-.464l.731-.065.237-.222v-4.986h-.968v-.43l1.597-.491h.51v1.287c.226-.227.462-.463.703-.672.241-.208.5-.463.769-.657H69.41c.138 0 .274.015.408.046.143.032.282.077.416.135v1.18H69.8a1 1 0 0 0-.315-.245.926.926 0 0 0-.388-.084c-.251.01-.493.096-.695.246a4.116 4.116 0 0 0-.805.764v3.926l.236.222.958.065v.444z"/></g><g><path fill="url(#acsrj)" d="M74.643 62.996c-.38.27-.788.497-1.218.676-.33.137-.68.21-1.037.218a1.657 1.657 0 0 1-1.755-1.76 1.607 1.607 0 0 1 .718-1.388c.481-.334 1.579-.707 3.292-1.12v-.436a1.889 1.889 0 0 0-.283-1.199 1.204 1.204 0 0 0-.977-.338c-.174 0-.348.019-.518.056-.18.037-.357.09-.528.157v1.158h-.949a.463.463 0 0 1-.338-.093.463.463 0 0 1-.088-.333 1.282 1.282 0 0 1 .773-1.112 4.005 4.005 0 0 1 2.005-.463 2.208 2.208 0 0 1 1.57.463 2.019 2.019 0 0 1 .485 1.51v3.986l.237.222.726.065v.51h-1.935zm0-2.884a7.945 7.945 0 0 0-2.264.87 1.232 1.232 0 0 0-.542 1.042 1.125 1.125 0 0 0 .301.82 1.07 1.07 0 0 0 .8.305 2.18 2.18 0 0 0 .742-.153c.333-.127.655-.282.963-.463z"/></g><g><path fill="url(#acsrk)" d="M78.809 57.115h.537v5.893l.231.223.741.064v.477H77.23v-.463l.727-.064.231-.223v-4.986h-.958v-.43zm.05-3.051a.792.792 0 0 1 .802.796.75.75 0 0 1-.232.556.806.806 0 0 1-1.303-.254.75.75 0 0 1-.058-.302.773.773 0 0 1 .231-.565.76.76 0 0 1 .56-.245z"/></g><g><path fill="url(#acsrl)" d="M80.72 63.776v-.463l.745-.065.236-.222V58.04h-.981v-.43l1.597-.491h.523v.75c.429-.243.873-.456 1.33-.64.28-.112.58-.175.883-.184a1.74 1.74 0 0 1 1.39.537c.341.443.506.997.462 1.555v3.875l.236.223.736.064v.477h-3.004v-.463l.657-.065.236-.222v-3.639a1.518 1.518 0 0 0-.32-1.092 1.458 1.458 0 0 0-1.069-.324 2.602 2.602 0 0 0-.713.11c-.284.089-.56.202-.824.339v4.606l.237.222.657.065v.463z"/></g><g><path fill="url(#acsrm)" d="M92.573 57.347v1.56h-.676l-.107-.977a2.681 2.681 0 0 0-.523-.218 1.69 1.69 0 0 0-.495-.074 1.264 1.264 0 0 0-.843.26.926.926 0 0 0-.3.731.963.963 0 0 0 .24.653c.272.25.585.453.926.597l.329.153c.401.167.78.383 1.13.643.17.134.304.31.388.51.09.212.137.44.135.67a1.824 1.824 0 0 1-.681 1.515 2.93 2.93 0 0 1-1.889.546 6.228 6.228 0 0 1-.949-.07 4.112 4.112 0 0 1-.838-.217v-1.782h.657l.172 1.166c.18.108.375.19.578.246.192.055.39.083.588.083.336.013.665-.095.926-.306a1.01 1.01 0 0 0 .352-.8.995.995 0 0 0-.24-.69 3.945 3.945 0 0 0-1.153-.69 4.38 4.38 0 0 1-1.39-.87 1.44 1.44 0 0 1-.37-1.014 1.7 1.7 0 0 1 .635-1.422 2.833 2.833 0 0 1 1.8-.504c.29-.001.578.025.862.078.252.05.499.124.736.223z"/></g></g></g><g><g><g><path fill="url(#acsrn)" d="M54.43 40.735c.324-.45.609-.927.851-1.426a5.39 5.39 0 0 0 .421-1.245l-.407-.452-1.25-.177v-.905h4.59v.905l-1.616.222c-.206.706-.47 1.393-.792 2.055a11.268 11.268 0 0 1-1.086 1.81l1.756 2.041 2.064.109v.905h-3.983v-.543l-1.014-1.136a9.05 9.05 0 0 1-2.236 1.457 5.327 5.327 0 0 1-2.195.49 4.847 4.847 0 0 1-3.444-1.273 4.164 4.164 0 0 1-1.357-3.168 3.888 3.888 0 0 1 .733-2.385 5.49 5.49 0 0 1 2.263-1.679 7.748 7.748 0 0 1-1.417-1.81 3.53 3.53 0 0 1 .742-4.34 4.168 4.168 0 0 1 2.933-1.087c1.02-.041 2.018.301 2.797.96a3.096 3.096 0 0 1 1.086 2.426 3.385 3.385 0 0 1-.76 2.23 7.241 7.241 0 0 1-2.557 1.793zm-5.865-3.73a4.413 4.413 0 0 0-1.358 1.326 2.996 2.996 0 0 0-.42 1.589 3.62 3.62 0 0 0 .936 2.566 3.123 3.123 0 0 0 2.385 1.01 4.045 4.045 0 0 0 1.643-.34 5.24 5.24 0 0 0 1.498-1.018zm1.213-1.249a4.073 4.073 0 0 0 1.688-1.28 3.082 3.082 0 0 0 .53-1.81 2.593 2.593 0 0 0-.602-1.811 2.05 2.05 0 0 0-1.616-.674 1.964 1.964 0 0 0-1.498.629 2.204 2.204 0 0 0-.598 1.588c.008.56.172 1.105.476 1.575a8.5 8.5 0 0 0 1.62 1.783z"/></g><g><g><path fill="url(#acsro)" d="M49.356 9.156c-.869-4.525.1-6.562 1.734-8.146-1.408 1.874-1.92 4.43-1.254 7.694zm.643.376c.566 1.62 2.399 3.105 2.304 3.965-.095.86 0 2.466-.905 1.701-3.15-2.77-1.422-4.87-1.422-5.462zm-2.295 3.693c-2.127-4.824-.439-9.083.29-9.925-.928 2.073-1.285 6.983.683 10.387zm6.214-.982c.553 1.738 2.471 3.458 2.263 4.354-.208.896-.37 2.566-1.276 1.697-3.209-3.1-1.086-5.39-.987-6.051zm8.292 14.953c-2.978-3.096-1.688-6.775-1.62-7.377.905 2.245 3.539 4.44 3.167 5.58-.325 1.136-.579 2.834-1.547 1.797zm-9.201-14.899C50.243 8.94 51.158 5.97 51.65 4.64c-.249 2.136-.801 3.933 1.62 6.788zm-6.789 1.29c1.077.534 5.938 1.693 7.296 5.807.276.932-2.318-.987-3.675-1.657-1.354-.665-1.76-2.512-3.621-4.15zm12.297 8.762c-3.042-2.933-1.575-6.182-1.517-6.676.68 2 3.164 4.042 2.879 5.065-.267 1.014-.367 2.575-1.362 1.611zm6.458 9.866c-2.005-3.639-.095-7.743.127-8.454.72 2.639 3.118 5.309 2.263 6.563-.756 1.249-1.788 3.104-2.39 1.891zm.833 4.82c-.231-3.457 1.086-6.517 4.969-7.54-2.421 2.268-2.512 5.59-2.965 7.2-.307 1.318-2.004 1.445-2.004.345zM52.23 15.637c4.381 6.64 10.97 12.596 12.487 18.076.736 2.255.755 4.682.054 6.947-.565 1.802-1.484 2.879-1.837 3.517-1.349.145-1.68.439-1.77.145.018-.34 1.06-1.11 1.964-2.87a10.635 10.635 0 0 0 .838-7.368C62.694 28.11 54.982 21.59 52.13 16.05l.1-.407zm4.67 11.817c-1.755-.507-2.977-3.354-6.172-4.698.91.041 8.422 1.77 10.024 5.635.475 1.195-2.005-.425-3.851-.932zm-3.918-4.711c-1.793-.507-2.938-3.661-5.843-5.182.873.163 7.187 1.792 10.083 6.499.67 1.131-2.398-.801-4.24-1.313zm6.634 9.653c-1.48-.597-2.04-3.643-5.231-5.019.832.027 8.191 1.702 8.599 5.734.063 1.24-1.743-.1-3.368-.71zm4.074 5.21c-.3 1.117-1.752.067-3.11-.467-.692-.258-.697-1.131-1.045-2.127a4.472 4.472 0 0 0-2.263-2.715c.702.027 7.133 1.647 6.418 5.313z"/></g></g><g><path fill="url(#acsrp)" d="M78.749 24.44v1.656h.122c.666-.036 3.906-.1 4.784 1.928.152.36.228.746.222 1.136v5.237a8.147 8.147 0 0 1-3.449 6.666 15.016 15.016 0 0 1-8.363 2.793h-.259a14.608 14.608 0 0 1-5.507-1.087 15.91 15.91 0 0 1-2.974-1.61c-.57 1.28-1.525 2.565-2.575 3.1a18.352 18.352 0 0 0 7.816 2.747h.04a17.738 17.738 0 0 0 4.598-.113h.087c4.023-.652 7.671-2.114 10.586-5.074l.068.235v.041l.81 2.783h2.674s.095-4.394.172-8.648c.032-1.81.06-3.58.073-4.979v-1.783a2.764 2.764 0 0 1 1.059-2.263 4.77 4.77 0 0 1 1.905-.842 8.489 8.489 0 0 1 1.598-.19h.543V24.44z"/></g><g><path fill="url(#acsrq)" d="M58.536 9.79c.058-.475.24-.924.53-1.304 3.168-4.15 7.694-6.753 12.7-6.762h.053c1.737.009 3.458.326 5.083.937.276.1.552.213.824.335a14.085 14.085 0 0 1 2.987 1.742l.04.028A21.029 21.029 0 0 1 82.69 6.43c.05.045.1.095.145.145.045.05.095.095.14.145a19.68 19.68 0 0 1 2.29 2.851h2.53L83.826.95 79.54 2.38l-.135.046-.421-.236A18.03 18.03 0 0 0 70.598 0h-.19c-.498 0-.992.023-1.48.063h-.132c-5.883.53-11.029 3.933-14.446 8.993.167 1.48.905 2.937 1.91 4.327 1.679 2.362 4.019 4.526 5.21 6.273-.662-2.1-3.545-5.074-2.934-9.867z"/></g><g><path fill="url(#acsrr)" d="M42.2 9.581h-2.503a19.68 19.68 0 0 0-2.29-2.851c-.046-.05-.09-.1-.14-.145-.05-.045-.096-.1-.146-.145l-.063-.063a21.716 21.716 0 0 0-1.874-1.602l-.04-.027a14.083 14.083 0 0 0-2.987-1.743 14.605 14.605 0 0 0-5.956-1.28c-4.187 0-8.024 1.81-11.016 4.824-.652-.557-2.295-1.598-2.815-1.625A19.253 19.253 0 0 1 23.359.064C23.847.022 24.34 0 24.834 0h.195a18 18 0 0 1 8.363 2.177l.426.235L38.239.937z"/></g><g><path fill="url(#acsrs)" d="M47.19 24.44v1.656a8.694 8.694 0 0 0-2.132.19 4.771 4.771 0 0 0-1.906.87 2.766 2.766 0 0 0-1.068 2.262v1.784c0 1.403-.04 3.168-.077 4.978-.072 4.254-.167 8.649-.167 8.649h-2.68l-.823-2.824-.068-.236c-2.915 2.96-6.562 4.422-10.586 5.074a17.722 17.722 0 0 1-4.684.126h-.059c-.335-.036-.67-.081-1-.135a2.843 2.843 0 0 0 1.308-2.39 2.793 2.793 0 0 0-.172-.932c1.024.225 2.07.339 3.118.34h.231a14.976 14.976 0 0 0 8.418-2.793 8.147 8.147 0 0 0 3.426-6.662v-5.228c0-3.498-5.128-3.059-5.128-3.059v-1.67z"/></g><g><path fill="url(#acsrt)" d="M23.284 9.004a2.95 2.95 0 0 1-.113.453 1.76 1.76 0 0 1-.077.217l-.04.109-.055.113a3.313 3.313 0 0 1-1.285 1.357 4.979 4.979 0 0 1-1.675.639 5.48 5.48 0 0 1-3.49-.485c-.495-.27-.972-.573-1.43-.905l-1.303-.941a24.016 24.016 0 0 0-2.593-1.697 9.269 9.269 0 0 0-2.756-1.046 5.734 5.734 0 0 0-2.847.195c-.464.156-.91.36-1.33.61-.411.24-.789.532-1.123.87a4.073 4.073 0 0 0-1.195 2.367c-.097.868.06 1.745.453 2.525a5.123 5.123 0 0 0 1.973 2.168c.247.14.504.26.77.362.2.08.406.147.615.2.21.07.425.129.643.176.476.074.957.105 1.439.09.511 0 1.045-.054 1.63-.1-.362.462-.811.846-1.322 1.132a4.76 4.76 0 0 1-1.222.502 1.81 1.81 0 0 1-1.516-1.357c-.01.08-.01.16 0 .24a1.752 1.752 0 0 0 .71 1.258c-.478.044-.96.018-1.43-.077l-.127-.027a5.59 5.59 0 0 1-1.787-.756A6.155 6.155 0 0 1 .416 14.24a6.06 6.06 0 0 1-.218-3.742A6.164 6.164 0 0 1 2.162 7.42a7.956 7.956 0 0 1 1.458-.996 8.856 8.856 0 0 1 1.597-.674 7.929 7.929 0 0 1 1.72-.34 7.31 7.31 0 0 1 1.752.06 9.59 9.59 0 0 1 3.222 1.154 22.1 22.1 0 0 1 2.715 1.855l1.263.978c.391.311.803.597 1.231.855.828.454 1.783.62 2.716.475.461-.07.906-.223 1.312-.452.38-.212.694-.525.905-.905.204-.398.303-.84.29-1.286a2.402 2.402 0 0 0-.416-1.24 1.96 1.96 0 0 0-1.019-.76 2.3 2.3 0 0 0-1.33 0c-.442.1-.84.342-1.132.688a1.599 1.599 0 0 0-.303 1.24c.068.464.278.896.602 1.235a1.386 1.386 0 0 0 1.358.403c-.231.176-.516.267-.806.258a1.882 1.882 0 0 1-.453-.086 2.003 2.003 0 0 1-.402-.208 2.39 2.39 0 0 1-.955-2.412c.055-.314.177-.611.357-.874a2.92 2.92 0 0 1 1.498-1.04 3.082 3.082 0 0 1 1.81-.078 2.883 2.883 0 0 1 1.544 1.064c.373.505.595 1.107.638 1.733.025.313.008.628-.05.937z"/></g><g><path fill="url(#acsru)" d="M24.641 37.058a3.169 3.169 0 0 1-1.294 1.174c.52.526.811 1.237.81 1.978a2.77 2.77 0 0 1-2.39 2.765c.08.264.122.538.123.814a2.752 2.752 0 1 1-5.5 0 2.811 2.811 0 0 1 .842-2.009 2.806 2.806 0 0 1-.782-2.992 3.168 3.168 0 0 1-2.327-3.032h-.09a3.168 3.168 0 0 1-3.141-3.218 3.26 3.26 0 0 1-.702.082 3.168 3.168 0 0 1-3.168-3.168c.003-.28.04-.558.113-.829a3.136 3.136 0 0 1-3.865-3.1 3.204 3.204 0 0 1 1.154-2.466 3.208 3.208 0 0 1 .308-5.001l-.054-.086a3.195 3.195 0 0 1 2.046-4.698 3.14 3.14 0 1 1 6.205-.167 3.168 3.168 0 0 1 2.823 3.168c0 .697-.227 1.375-.647 1.932.184-.036.37-.054.557-.054a3.168 3.168 0 0 1 3.05 4.023c.127-.007.254-.007.38 0a3.168 3.168 0 0 1 3.141 3.168c0 .579-.156 1.146-.452 1.643a3.196 3.196 0 0 1 1.638 5.562 3.194 3.194 0 0 1 1.697 2.829 3.168 3.168 0 0 1-.475 1.682zm-3.661-4.959a1.854 1.854 0 0 1-1.657-1.384 1.467 1.467 0 0 0 0 .244 1.937 1.937 0 0 0 1.675 1.67c1.258.172 2.38-.747 2.335-1.76a.778.778 0 0 0 0-.146c-.126.892-1.154 1.535-2.353 1.376zM14 30.131a2.01 2.01 0 0 0 1.742 1.738c1.313.185 2.485-.779 2.44-1.838v-.15c-.131.933-1.218 1.603-2.421 1.435a1.924 1.924 0 0 1-1.73-1.443c-.019.084-.03.17-.031.258zm-.778-4.48a1.607 1.607 0 0 0 1.362 1.393c1.036.15 1.978-.62 1.941-1.462a.555.555 0 0 0 0-.122c-.122.742-.968 1.28-1.932 1.145a1.534 1.534 0 0 1-1.358-1.15 1.005 1.005 0 0 0 0 .204zm3.58 7.562a.677.677 0 0 0-.005.176 1.33 1.33 0 0 0 1.163 1.159c.874.136 1.652-.516 1.62-1.222a.75.75 0 0 0 0-.1c-.09.62-.814 1.068-1.615.955a1.281 1.281 0 0 1-1.15-.96zm.915-6.582a1.846 1.846 0 0 1-.621-.958 1.467 1.467 0 0 0 0 .244 1.927 1.927 0 0 0 1.674 1.666c1.258.176 2.38-.743 2.335-1.756a1.399 1.399 0 0 0 0-.145c-.126.878-1.167 1.52-2.321 1.358a1.847 1.847 0 0 1-1.067-.41zm-3.078-4.239a1.852 1.852 0 0 1-.607-.96 1.11 1.11 0 0 0 0 .244 1.927 1.927 0 0 0 1.652 1.684c1.258.177 2.38-.747 2.335-1.76v-.14c-.131.873-1.172 1.52-2.326 1.357a1.851 1.851 0 0 1-1.054-.425zm-3.318-4.694a1.842 1.842 0 0 1-.62-.955c-.007.08-.007.16 0 .24a1.933 1.933 0 0 0 1.674 1.67c1.258.177 2.38-.747 2.336-1.76v-.145c-.127.873-1.168 1.516-2.327 1.358a1.842 1.842 0 0 1-1.063-.408zm1.869 4.295v-.145c-.127.879-1.168 1.521-2.322 1.358a1.842 1.842 0 0 1-1.656-1.358c-.01.08-.01.16 0 .24a1.928 1.928 0 0 0 1.674 1.67c1.258.177 2.38-.746 2.304-1.765zm-.204 4.743c-.113.774-1.045 1.372-2.077 1.227a1.653 1.653 0 0 1-1.485-1.231 1.1 1.1 0 0 0 0 .213 1.72 1.72 0 0 0 1.498 1.493c1.123.158 2.128-.665 2.087-1.57a1.17 1.17 0 0 0-.023-.132zm-7.35-9.244c.118.22.282.412.48.564.277.22.609.363.96.412 1.258.176 2.38-.747 2.335-1.76a.824.824 0 0 0 0-.146c-.127.878-1.168 1.521-2.322 1.358l-.14-.023a1.81 1.81 0 0 1-1.516-1.357c-.01.08-.01.16 0 .24.016.249.086.492.203.712zm2.354-4.415c-.023.094-.034.19-.032.286a1.932 1.932 0 0 0 1.675 1.67c1.258.172 2.38-.747 2.335-1.76v-.146c-.122.874-1.168 1.516-2.322 1.358A1.851 1.851 0 0 1 8 13.077zm-3.055 9.17c.297.306.687.504 1.109.565 1.258.172 2.38-.75 2.335-1.76a1.404 1.404 0 0 0 0-.145c-.127.874-1.168 1.516-2.322 1.358a1.851 1.851 0 0 1-1.656-1.385c-.01.081-.01.163 0 .244.05.423.237.818.534 1.124zm3.458 3.697V25.8c-.127.874-1.168 1.517-2.322 1.358a1.851 1.851 0 0 1-1.67-1.403 1.108 1.108 0 0 0 0 .245 1.933 1.933 0 0 0 1.674 1.67c1.259.172 2.38-.747 2.318-1.725zm3.561 3.974v-.145c-.122.874-1.167 1.516-2.321 1.358a1.842 1.842 0 0 1-1.657-1.358c-.009.08-.009.16 0 .24a1.932 1.932 0 0 0 1.675 1.67c1.258.154 2.38-.77 2.303-1.765zm1.738 5.01c1.245.172 2.38-.747 2.318-1.742a1.399 1.399 0 0 0 0-.145c-.127.873-1.168 1.516-2.322 1.357a1.85 1.85 0 0 1-1.67-1.362c-.01.081-.01.163 0 .245a1.932 1.932 0 0 0 1.674 1.67zm3.19 3.064c1.26.172 2.382-.747 2.282-1.72v-.145c-.127.874-1.168 1.516-2.322 1.358a1.85 1.85 0 0 1-1.656-1.385c-.01.081-.01.163 0 .245a1.932 1.932 0 0 0 1.674 1.67zm.227 2.326a1.358 1.358 0 0 0 1.118 1.186c.874.131 1.656-.52 1.625-1.227a.87.87 0 0 0 0-.1c-.086.62-.81 1.069-1.611.956a1.28 1.28 0 0 1-1.154-.96 1.04 1.04 0 0 0 0 .168zm1.779 5.45c1.258.176 2.385-.747 2.294-1.766v-.145c-.126.878-1.172 1.521-2.326 1.358a1.842 1.842 0 0 1-1.656-1.358c-.01.08-.01.16 0 .24a1.927 1.927 0 0 0 1.665 1.675zm4.575-5.006c-.104.737-.968 1.267-1.96 1.136a1.53 1.53 0 0 1-1.357-1.145 1.035 1.035 0 0 0 0 .203 1.593 1.593 0 0 0 1.385 1.38c1.027.146 1.969-.62 1.932-1.457zm.462-5.024a.761.761 0 0 0 0-.145c-.127.874-1.168 1.516-2.326 1.358a1.856 1.856 0 0 1-1.657-1.385 1.467 1.467 0 0 0 0 .245 1.937 1.937 0 0 0 1.675 1.67c1.258.172 2.371-.747 2.308-1.743z"/></g></g></g></g></svg>