<svg width="275" height="338" viewBox="0 0 275 338" fill="none" xmlns="http://www.w3.org/2000/svg">
<path d="M140.324 119.796C140.453 118.443 140.731 117.082 140.818 115.729C140.873 114.886 140.929 114.052 140.91 113.207C140.898 112.722 140.888 112.677 141.21 112.319C141.463 112.038 141.614 111.804 141.793 111.469C142.219 110.671 142.336 110.031 142.378 109.138C142.416 108.339 142.229 107.586 142.13 106.793C142.087 106.447 141.786 106.221 142.175 106.078C142.338 106.017 143.028 105.724 143.127 105.86C143.544 106.429 144.324 106.553 144.988 106.727C144.477 105.996 145.389 106.057 145.555 105.479C145.624 105.237 145.546 104.927 145.276 104.793C144.821 104.567 144.45 104.999 144.296 105.357C144.068 105.883 143.942 105.56 143.947 105.188C143.952 104.739 144.099 104.596 144.375 104.268C144.574 104.032 144.805 103.938 145.08 103.794C145.194 103.734 145.198 103.55 145.292 103.471C145.391 103.389 145.573 103.351 145.692 103.301C145.579 103.093 145.427 102.972 145.565 102.77C145.691 102.589 145.658 102.419 145.661 102.199C145.16 102.219 144.825 102.231 144.369 102.431C144.251 102.483 144.234 102.954 144.211 103.073C144.149 103.388 144.11 103.447 143.876 103.675C143.881 103.271 144.086 102.053 143.886 101.715C143.702 101.402 143.373 101.008 143.456 100.631C143.548 100.208 143.612 99.8963 143.882 99.5672C144.412 98.9238 144.959 98.887 145.758 98.8972C146.165 98.9016 146.293 98.8951 146.525 98.5834C146.735 98.3001 146.937 98.0208 147.128 97.7245C146.867 97.8448 146.538 97.9381 146.304 98.1039C145.977 98.3348 146.041 98.4641 145.602 98.4367C145.092 98.4051 145.076 98.4114 144.81 97.9679C144.615 97.6429 144.557 97.3011 144.445 96.942C144.242 96.2914 144.074 95.6405 143.911 94.9774C143.775 94.4213 143.847 93.8196 143.734 93.2587C143.585 92.5253 143.493 92.051 143.091 91.4324C142.938 91.1978 142.599 90.8526 142.535 90.5781C142.504 90.4467 142.564 89.8462 142.662 89.7607C142.906 89.5498 143.15 89.338 143.392 89.1261C143.546 88.9909 143.86 89.3152 144.098 89.3483C144.38 89.3874 144.518 89.4929 144.689 89.2759C144.843 89.0803 145.239 88.4595 145.385 88.5432C145.284 88.376 145.155 87.9781 144.951 87.9578C144.642 87.9272 144.333 87.8967 144.025 87.8661C144.13 87.6619 144.236 87.4575 144.341 87.2533C144.062 87.4841 143.769 87.8247 143.449 87.9913C143.267 88.0858 143.021 88.1204 142.825 88.1796C142.545 88.2641 142.585 88.2063 142.439 87.9488C142.064 87.2833 141.656 86.6345 141.309 85.9536C140.503 84.3732 139.773 82.7423 139.338 81.0264C139.764 81.0597 140.257 81.7282 140.559 82.0625C140.783 82.3111 140.927 82.6224 141.164 82.8511C141.355 83.0346 141.623 83.176 141.755 83.4068C141.89 83.6442 141.997 83.8321 142.064 84.0943C142.175 84.5305 142.317 84.6504 142.645 84.9866C142.854 85.1996 142.558 83.8409 142.505 83.694C142.33 83.2007 142.874 82.8996 143.209 82.5416C143.567 82.1579 143.795 81.8966 144.318 81.8799C144.644 81.8696 144.77 81.8853 144.963 81.6357C145.215 81.3087 145.225 81.3183 145.643 81.3235C145.901 81.3267 146.163 81.3746 146.419 81.402C146.706 81.4327 146.863 81.2727 147.109 81.1212C146.815 81.1028 146.52 81.0846 146.226 81.0662C146.228 81.0702 146.262 81.071 146.266 81.0683C146.058 81.2026 144.242 80.4973 145.176 80.3488C144.876 79.8579 144.975 80.1701 144.525 80.1644C144.105 80.1594 143.821 80.1278 143.638 79.6692C143.496 79.316 143.726 79.0614 143.896 78.7769C143.998 78.6076 144.738 78.7463 144.885 78.7595C144.791 78.1471 144.772 78.2279 144.15 78.1894C143.743 78.1641 143.336 78.168 142.929 78.163C142.177 78.1538 141.573 78.7197 141.068 79.2123C140.674 79.5949 139.555 80.3435 138.982 79.991C138.492 79.6895 138.433 79.6761 138.313 79.1284C138.226 78.7369 138.143 78.3521 138.025 77.9695C137.526 76.3597 137.035 74.847 136.197 73.3793C135.451 72.0752 134.784 70.6354 133.867 69.4426C133.574 69.061 132.65 68.1883 132.599 67.7023C132.531 67.0595 132.368 66.1963 133.077 65.8431C133.071 66.3517 133.1 66.8451 133.368 67.3001C133.431 66.9499 133.631 65.6481 134.176 66.2752C134.493 66.6396 134.541 67.1579 134.778 67.5818C134.892 67.7858 135.083 67.923 135.08 68.163C135.073 68.6848 135.063 68.4049 135.428 68.5588C136.072 68.83 136.17 69.2694 136.162 69.8891C136.254 69.8495 136.377 69.8809 136.472 69.8487C136.471 69.9552 136.407 70.3648 136.512 70.387C136.757 70.4391 136.892 70.4605 137.086 70.6122C137.431 70.8835 137.78 71.1473 138.131 71.4105C138.008 71.1337 137.66 70.7877 137.64 70.5293C137.606 70.1008 137.077 69.9443 137.833 69.9535C137.96 69.955 137.967 69.6995 137.814 69.6614C137.706 69.6349 137.173 69.5644 137.189 69.457C137.259 69.0099 137.791 69.1532 138.202 69.1212C138.058 69.0541 137.793 68.9919 137.697 68.8656C137.61 68.7519 137.524 68.6383 137.438 68.5247C137.373 68.4398 137.588 68.3615 137.595 68.277C137.636 67.7688 137.297 67.3282 137.303 66.8599C137.309 66.3637 137.682 66.0862 137.596 65.5266C137.572 65.3713 137.763 65.0167 137.804 64.8416C137.848 64.6551 137.46 64.7146 137.731 64.3589C137.343 64.188 137.08 64.0549 136.766 63.7747C136.908 64.0082 136.95 64.2693 137.012 64.5313C137.092 64.8692 136.68 64.7865 136.489 64.7842C136.551 65.0092 136.509 65.2186 136.481 65.4448C135.893 65.313 135.519 64.8424 135.213 64.3723C135.211 64.5721 135.253 65.024 134.983 65.1182C134.62 65.2447 134.492 64.8016 134.429 64.5849C134.361 64.3463 134.439 64.0846 134.51 63.858C134.6 63.5741 134.539 63.3429 134.655 63.0441C135.124 63.3502 135.401 63.7141 135.965 63.7208C136.089 63.7222 136.095 63.5435 136.195 63.5034C136.288 63.4659 136.404 63.4812 136.502 63.4527C136.731 63.3862 136.636 63.1975 136.778 63.0885C136.887 63.0052 136.995 63.1155 137.085 63.028C137.291 62.8282 137.625 63.0109 137.792 62.8621C138.016 62.6631 137.791 62.473 138.131 62.2937C138.316 62.1955 138.87 62.0608 138.863 61.8256C138.852 61.5005 138.526 61.3576 138.298 61.1946C138.261 61.3708 138.223 61.5469 138.186 61.7229C138.139 61.9426 137.972 61.8982 137.802 62.0254C137.422 62.3108 137.506 62.4623 137.002 62.4562C137.036 62.1189 137.069 61.7817 137.103 61.4446C136.976 61.7867 136.846 62.1206 136.693 62.4524C136.637 62.305 136.579 62.1574 136.522 62.0099C136.54 62.1164 136.661 62.465 136.563 62.5177C136.358 62.6278 136.225 62.6608 136.137 62.873C136.073 63.0272 135.799 63.1241 135.661 63.2098C135.567 63.268 135.389 62.9176 135.29 62.8588C135.191 62.7995 134.834 62.6631 134.794 62.5615C134.772 62.5079 134.93 61.9821 134.978 61.9472C135.356 61.6668 135.523 62.3859 135.947 62.0911C135.736 61.6886 135.621 61.5854 135.768 61.1613C135.728 61.2758 136.5 61.012 136.579 60.9538C136.942 60.6883 136.894 60.4864 136.899 60.0669C136.905 59.5729 137.294 59.7208 137.609 59.7773C137.461 59.3798 137.526 59.1553 137.096 59.3101C137.125 59.2995 136.586 58.7036 136.476 58.6184C136.505 59.3522 136.502 60.0089 136.361 60.7312C136.138 60.6487 135.866 60.4684 135.632 60.537C135.165 60.6738 135.183 60.6883 134.865 60.3167C135.027 60.3188 135.189 60.3207 135.351 60.3228C135.302 59.7656 135.235 59.8842 134.682 59.9026C134.279 59.9158 133.943 59.8545 133.948 59.4036C133.952 59.1664 134.641 58.8532 134.444 58.6379C134.387 58.5762 133.953 58.6318 133.86 58.6308C133.769 58.6297 133.68 58.9827 133.644 59.0687C133.587 58.9706 133.483 58.8996 133.426 58.8019C133.103 59.2501 132.938 59.8068 133.309 60.3146C133.58 60.6835 133.649 60.7506 134.082 60.8889C134.341 60.972 134.598 61.0645 134.855 61.1536C134.668 61.3611 134.247 61.912 133.941 61.8126C133.391 61.6335 133.245 61.4752 132.824 61.0848C132.472 60.7577 132.155 60.5517 131.901 60.142C131.827 60.024 131.64 59.6878 131.517 59.6595C131.356 59.6221 130.965 59.865 130.791 59.9035C130.669 59.9307 129.951 59.1783 129.808 59.0611C129.453 58.7712 129.361 58.3707 129.131 57.9788C128.679 57.2053 128.308 56.3862 127.858 55.6069C127.286 55.7799 127.589 56.7683 127.75 57.1472C128.024 57.7887 128.446 58.1969 128.946 58.6565C129.352 59.0308 129.668 59.5141 130.034 59.9298C130.366 60.3062 131.181 60.9509 130.745 61.4557C131.344 61.463 131.51 61.6426 131.897 62.0936C132.241 62.496 132.391 62.6171 131.918 63.0115C132.235 63.1747 132.642 63.2939 132.749 63.6823C132.775 63.7772 132.788 64.7102 132.709 64.7539C131.909 65.1977 131.343 65.1625 130.451 65.1516C129.834 65.1441 129.829 63.5398 129.757 63.0969C129.638 62.3602 129.106 61.5756 128.754 60.9207C127.994 59.506 126.996 58.2307 126.054 56.9367C125.102 55.6297 124.229 54.2681 123.272 52.9625C122.417 51.7953 121.509 50.6675 120.639 49.511C120.118 48.8178 119.551 48.1414 119.069 47.4204C118.639 46.777 118.258 46.0791 117.737 45.5077C117.653 45.4158 117.431 45.2556 117.432 45.1231C117.435 44.9124 117.791 44.1969 117.633 44.0529C117.305 43.7554 119.321 43.9686 119.062 43.6079C119.04 43.5765 118.959 42.5752 118.48 42.5438C118.114 42.5196 118.727 42.2363 118.384 42.2122C118.267 42.204 117.488 42.4442 117.221 42.5945C116.959 42.7413 116.747 42.1871 116.494 42.3545C116.41 42.4103 116.566 42.8836 116.552 43.0158C116.537 43.1654 116.359 42.9805 116.389 43.1451C116.438 43.4163 116.612 43.9465 116.608 43.9416C116.498 43.7923 115.936 43.1548 115.825 43.007C115.709 42.8535 115.948 42.6972 115.83 42.5447C115.684 42.3551 114.966 41.4661 114.819 41.2772C114.74 41.1751 115.205 40.656 115.126 40.5539C114.989 40.3786 114.85 40.542 114.731 40.351C114.652 40.2237 114.246 40.5709 114.167 40.4432C114.07 40.2861 114.112 40.1932 114.006 40.0449C113.923 39.9294 114.405 39.5588 114.311 39.454C114.23 39.3641 114.102 39.3149 114.115 39.1873C114.139 38.9762 113.58 39.0971 113.43 38.9439C113.162 38.6701 112.963 38.2303 112.676 38.0018C112.379 37.7656 112.234 37.4668 111.964 37.2231C111.829 37.1007 111.028 36.8396 111.426 36.4874C111.522 36.4025 111.767 36.0908 111.89 36.0772C112.024 36.0625 112.173 36.3006 112.319 36.3025C112.757 36.3079 113.166 36.3104 113.438 35.8757C113.6 35.6146 113.632 35.148 113.738 34.844C113.9 34.3781 113.886 34.0531 113.869 33.5546C113.84 32.7672 113.315 31.9902 112.921 31.3437C112.105 30.0059 111.292 28.7108 110.372 27.4392C109.895 26.7807 109.45 26.1156 108.946 25.4775C108.849 25.3545 108.691 25.2135 108.624 25.0703C108.571 24.9551 108.614 24.7473 108.524 24.6553C108.219 24.3439 107.903 24.0429 107.628 23.705C107.05 22.9963 106.463 22.2324 105.706 21.7314C105.451 21.5623 105.524 21.5081 105.177 21.4652C105.043 21.4487 104.885 21.107 104.808 20.9984C104.707 20.8558 104.697 20.6034 104.574 20.4844C104.447 20.3616 104.085 20.3151 103.914 20.2563C104.39 19.9477 104.393 19.7124 104.546 19.1627C105.145 19.3613 105.761 19.5979 106.394 19.6695C106.823 19.7182 107.176 19.6084 107.572 19.4611C107.779 19.3839 107.841 18.7568 107.981 18.7656C108.704 18.8106 109.418 18.8838 110.137 18.9648C110.247 18.9771 110.6 18.4018 110.782 18.3139C111.094 18.1635 111.385 18.5005 111.661 18.6769C110.938 18.8121 110.861 19.1449 110.809 19.8255C110.79 20.0883 110.688 20.3622 110.627 20.6189C110.566 20.8788 110.778 21.0982 110.525 21.2614C110.317 21.3964 110.659 22.4806 110.676 22.8268C110.703 23.371 110.849 23.8845 111.125 24.3456C111.476 24.9335 111.752 25.3662 112.246 25.8349C112.633 26.202 113.038 26.4525 113.349 26.9115C113.514 27.1553 113.669 27.4024 113.825 27.6522C113.95 27.8534 113.448 28.038 113.327 27.9141C113.101 27.6833 113.072 27.4143 112.882 27.1921C112.711 26.9919 112.379 26.8569 112.182 26.655C112.355 27.0385 112.537 27.3967 112.742 27.7628C112.981 28.1876 113.211 28.2089 113.708 28.215C113.619 28.6349 113.638 28.82 114.074 29.0165C114.439 29.1814 114.814 29.3783 115.205 29.4804C115.605 29.5852 115.99 29.7028 115.76 30.1781C115.703 30.2944 115.548 30.4913 115.446 30.5706C115.184 30.7746 115.124 30.52 115.161 30.9407C115.199 31.3745 115.224 31.7571 115.702 31.7628C115.895 31.7653 115.98 31.7069 116.14 31.592C116.211 31.5408 116.204 31.3803 116.276 31.3295C116.351 31.2755 116.569 31.3562 116.63 31.2899C116.94 30.9537 116.61 30.3576 116.473 30.0327C116.309 29.6473 116.167 29.4157 116.172 28.9941C116.614 29.096 117.282 28.933 117.634 28.6596C117.991 28.3811 117.974 27.622 118.093 27.1678C118.465 27.2534 118.372 28.2392 118.561 28.2418C118.907 28.2459 119.01 28.1945 119.22 28.4637C119.358 28.6395 119.484 28.8136 119.357 29.0113C119.213 29.2345 118.987 29.0807 118.774 29.2351C118.563 29.3896 118.313 29.3441 118.054 29.3534C117.529 29.3718 117.702 30.1363 117.759 30.4413C117.975 31.5923 118.869 31.8923 119.919 31.9525C120.511 31.9866 120.724 31.799 120.768 31.2452C120.805 30.7736 121.127 30.5336 121.248 30.0582C121.612 30.3503 121.733 30.339 121.604 30.7893C121.877 30.8154 122.086 30.8142 122.357 30.7721C122.44 30.7595 122.903 31.2556 123.036 31.3372C123.252 31.4703 123.411 30.9671 123.685 31.1778C123.945 31.3768 124.085 31.7107 124.256 31.9858C124.325 32.0982 124.799 32.0312 124.961 32.1222C125.239 32.2775 125.461 32.2609 125.775 32.244C126.015 32.231 126.363 32.168 126.587 32.2373C126.914 32.3388 127.015 32.5729 127.378 32.5773C127.596 32.58 128.038 32.5783 128.204 32.7195C128.432 32.9127 128.428 33.3476 128.425 33.6092C128.417 34.276 128.779 34.7312 129.369 34.9356C129.925 35.1279 130.476 34.8176 131.022 34.9804C131.324 35.0704 132.139 35.7493 132.171 36.0709C131.986 36.1207 131.804 36.138 131.614 36.1516C131.371 36.169 131.315 36.4515 131.203 36.6536C130.844 36.5243 131.113 36.3192 130.951 36.1232C130.85 36.0002 130.747 35.8769 130.645 35.7537C130.563 35.6547 130.539 35.8924 130.455 35.7773C130.083 35.2706 129.652 35.5941 129.423 36.0372C129.908 35.7426 130.507 36.4358 130.639 36.8117C130.037 36.6575 129.688 36.7735 129.276 37.2245C129.571 37.1109 130.6 36.8787 130.819 37.2421C131.1 37.7108 131.511 38.1359 130.949 38.5002C131.242 38.6688 131.491 38.818 131.74 39.0439C131.866 39.159 131.743 39.758 131.726 39.93C131.917 39.9432 132.133 39.9898 132.322 39.9704C132.533 39.9486 132.707 39.7821 132.888 39.7459C133.369 39.6496 133.677 39.7505 134.01 40.057C134.255 39.6743 133.413 39.2567 133.093 39.253C132.855 39.25 132.616 39.2471 132.379 39.2442C132.029 39.2398 132.085 39.1778 132.005 38.8431C132.297 38.9195 132.67 38.9448 132.248 38.6738C132.099 38.5784 131.97 38.0595 131.885 37.8836C132.205 37.938 132.515 38.333 132.837 38.4753C133.24 38.6533 133.442 38.6931 133.863 38.6014C133.73 38.4046 133.412 38.128 133.739 37.9392C133.891 37.8516 134.425 38.0072 134.599 38.0489C134.299 37.3689 134.828 37.3865 135.402 37.3651C135.393 37.231 135.354 37.0676 135.374 36.9354C135.43 36.9249 135.484 36.9147 135.54 36.9044C135.555 36.8134 135.523 36.6889 135.516 36.5975C135.512 36.5554 136.187 36.4669 136.309 36.3192C136.351 36.441 136.394 36.5626 136.437 36.6841C136 36.7871 135.823 36.7722 135.741 37.2289C135.678 37.579 135.489 37.8468 135.857 38.0974C135.288 38.1591 135.513 38.6447 135.686 38.9981C135.951 39.5431 136.221 39.7798 136.794 39.9919C136.552 40.4468 136.042 40.1388 135.668 39.9781C135.798 40.2311 135.902 40.5102 136.093 40.7223C136.391 41.0523 136.351 41.2084 136.509 41.6069C136.662 41.9894 136.963 42.1266 137.229 42.4047C137.408 42.5915 137.768 42.453 137.99 42.3515C138.111 42.9049 138.446 43.2721 138.635 43.7799C138.833 44.3113 138.508 44.6898 138.839 45.215C138.952 45.3953 139.149 45.3717 139.358 45.3742C139.667 45.378 139.757 45.5355 139.869 45.8429C140.05 46.3408 139.988 46.9124 139.982 47.4298C139.229 47.1478 139.347 47.9558 139.34 48.4709C139.337 48.6577 139.611 48.9615 139.663 49.1821C139.754 49.5764 139.509 49.6099 139.19 49.8426C139.3 49.8032 140.209 49.5997 140.206 49.8411C140.202 50.1706 140.198 50.5 140.194 50.8295C140.185 51.5488 140.508 51.9143 140.925 52.4623C140.51 52.764 140.317 52.7052 139.801 52.6702C139.692 52.6629 139.716 52.221 139.648 52.1384C139.547 52.0149 139.225 51.9373 139.077 51.8672C139.072 52.3022 139.041 52.4447 138.818 52.8163C138.669 53.064 138.472 53.3485 138.421 53.6329C138.276 54.4409 138.374 54.9627 138.784 55.6772C139.05 56.1414 139.322 57.0114 139.959 57.0859C140.505 57.1501 140.643 57.0733 140.882 57.5654C141.035 57.882 141.065 58.2462 141.212 58.5634C141.831 59.8953 142.676 61.1228 143.836 62.0455C144.131 62.2803 144.419 62.3196 144.789 62.4112C145.27 62.5305 144.829 62.991 144.699 63.1812C144.554 63.3914 144.111 63.3004 143.932 63.5241C143.606 63.9319 143.842 64.0191 144.134 64.4367C144.122 64.2311 144.11 64.0254 144.097 63.8197C144.321 63.7858 144.376 63.9566 144.499 64.1181C144.635 64.297 144.86 64.3666 145.058 64.4687C145.377 64.6323 145.82 64.5545 146.072 64.8127C145.74 64.9324 145.455 65.0694 145.102 65.0652C144.732 65.0608 144.445 65.2106 144.09 65.2316C143.698 65.2546 143.321 65.1962 143.412 65.7494C143.482 66.1781 143.859 66.2224 144.199 66.3317C143.997 66.8491 143.735 67.3121 143.431 67.7755C143.387 67.41 143.26 65.668 142.57 66.0034C142.67 66.5084 142.686 67.0677 142.828 67.5567C142.885 67.7519 143.129 68.231 143.057 68.4235C142.925 68.7718 142.886 68.9867 142.882 69.3593C142.878 69.6543 142.877 69.887 142.957 70.1692C143.041 70.46 143.426 70.5695 143.679 70.7159C143.706 70.7312 144.227 70.4029 144.326 70.363C144.634 70.2397 144.925 70.2159 145.256 70.1759C145.168 70.4098 145.156 70.6266 144.918 70.7182C144.667 70.8147 144.35 70.7456 144.133 70.8505C143.83 70.9971 143.741 71.1243 143.542 71.3997C143.491 71.4712 143.337 71.417 143.298 71.4733C143.233 71.5679 143.26 71.8397 143.248 71.9572C143.395 71.9443 143.542 71.9315 143.69 71.9185C143.736 72.506 143.739 73.132 143.886 73.7055C143.965 74.0135 143.998 74.415 144.142 74.6989C144.291 74.995 144.612 75.2705 144.824 75.5274C145.074 75.8318 144.562 76.0775 145.091 76.1545C145.214 76.1725 146.022 76.23 146.021 76.2585C146.017 76.5357 146.085 76.9263 145.68 76.7968C145.338 76.6874 144.999 76.5957 144.649 76.5108C144.702 76.6746 144.754 76.8384 144.807 77.002C144.869 77.1954 145.286 77.1795 145.421 77.3171C145.76 77.6636 145.667 78.0429 145.597 78.4603C145.842 78.4308 146.272 78.5114 146.247 78.2251C146.217 77.8801 146.102 77.8437 145.829 77.6264C146.295 77.3027 146.34 76.8487 146.462 76.3128C146.69 76.597 146.802 76.7497 147.117 76.8989C147.521 77.0893 147.456 77.6107 147.15 77.8626C147.6 77.8502 147.513 78.0651 147.54 78.44C147.616 78.25 147.692 78.0603 147.768 77.8701C147.869 77.9743 147.971 78.0781 148.073 78.1823C148.226 77.7885 148.156 77.6201 148.051 77.2056C147.941 76.7717 148.823 76.9485 148.946 76.9732C149.195 77.0236 149.436 77.0937 149.676 77.1746C149.773 77.2073 149.684 77.5295 149.674 77.623C149.661 77.7418 149.794 77.8157 149.801 77.9316C149.812 78.1396 149.823 78.348 149.835 78.5561C150.058 78.5294 150.321 78.5377 150.534 78.4637C150.959 78.3153 150.952 78.2603 151.219 78.6246C151.354 78.8078 151.754 78.3609 151.869 78.3609C152.017 78.3607 152.481 78.6294 152.587 78.7384C152.867 79.0248 153.506 79.4794 153.607 79.8784C153.751 80.4431 153.813 81.0195 153.971 81.5796C154.067 81.9202 154.061 82.0117 153.965 82.3546C153.874 82.6768 153.949 82.903 154.015 83.2352C154.117 83.7497 154.119 84.3163 154.484 84.7349C154.715 84.9994 155.427 85.3965 155.79 85.3159C156.077 85.2523 156.387 85.2251 156.642 85.0778C157.072 84.8297 157.248 84.8404 157.659 85.126C157.799 84.8341 157.874 84.5995 158.131 84.405C158.427 84.1811 158.55 84.3832 158.859 84.568C158.666 84.2301 158.623 83.8876 158.456 83.5685C158.339 83.3457 157.852 82.718 157.87 82.4956C157.943 81.628 158.002 80.9653 157.783 80.1121C157.678 79.7021 157.62 79.3206 157.385 78.9694C157.141 78.6032 156.895 78.2383 156.647 77.8747C156.431 77.5594 156.167 77.2012 156.171 76.8049C156.176 76.4746 156.168 76.5198 156.494 76.5101C156.741 76.5028 156.988 76.4957 157.235 76.4884C156.995 76.393 156.608 76.3507 156.578 76.0396C156.813 76.0718 157.048 76.1043 157.283 76.1365C157.154 76.0701 156.203 75.5948 156.777 75.6017C157.242 75.6073 157.443 75.4504 157.827 75.2015C158.022 75.0755 157.843 74.3664 157.615 74.2905C157.298 74.1844 157.246 74.5447 157.173 74.7535C157.095 74.9788 156.897 74.9876 156.679 75.0717C156.782 74.6774 156.869 74.3541 157.185 74.0855C157.593 73.7377 157.049 73.5831 156.78 73.3436C156.48 73.0751 156.643 72.595 156.723 72.27C156.748 72.1656 156.982 71.9485 156.973 71.92C156.905 71.7085 156.837 71.497 156.769 71.2852C157.235 71.2576 157.386 71.3779 157.392 70.8936C157.391 70.9609 156.779 70.65 156.706 70.5387C156.317 69.9401 155.571 69.8903 155.115 69.3273C154.873 69.0292 154.814 68.6011 154.819 68.2239C154.825 67.7427 154.806 67.5717 155.314 67.4357C155.712 67.3297 155.909 67.3711 156.221 67.6263C156.575 67.9161 156.578 68.0571 156.67 68.5095C156.698 68.4032 156.77 68.3067 156.806 68.2027C157.033 68.4682 157.138 68.5697 157.462 68.6952C157.394 68.2483 157.589 68.3444 157.957 68.3488C158.018 68.3496 158.362 68.8622 158.497 68.9501C158.834 69.1704 158.693 69.3028 158.606 69.688C158.541 69.9719 158.542 70.1424 158.413 70.4245C158.697 70.5423 159.447 70.5626 159.521 70.8737C159.583 71.1371 159.687 71.2965 159.525 71.517C159.355 71.7484 159.516 71.9024 159.628 72.1571C159.436 72.184 159.245 72.211 159.053 72.2382C159.214 72.6994 159.339 72.3995 159.668 72.554C159.778 72.606 160.148 73.0117 160.146 73.1306C160.142 73.4954 159.909 74.7315 160.64 74.3275C160.95 74.1553 161.059 73.9886 161.221 73.6758C161.324 73.4754 161.75 73.4927 161.988 73.4281C162.286 73.3469 162.584 73.2645 162.882 73.1793C163.221 73.0822 163.277 72.854 163.547 73.1297C163.672 73.2578 164.027 73.5084 164.07 73.6647C164.18 74.0691 163.812 73.8951 163.588 74.034C163.303 74.2106 163.05 74.3466 162.737 74.4669C162.541 74.542 162.633 75.0353 162.505 75.187C162.313 75.4163 161.998 75.3634 161.798 75.6555C161.652 75.8691 161.791 76.303 161.651 76.4539C161.356 76.7721 161.227 76.2984 161.292 76.9121C161.338 77.35 161.437 77.3558 161.813 77.6008C161.774 76.9945 161.717 76.5116 162.097 76.0187C162.345 76.2566 162.592 76.4945 162.839 76.7323C162.842 76.4976 162.845 76.2628 162.848 76.0279C163.149 76.0745 163.398 76.0553 163.612 76.2737C163.746 76.4099 163.879 76.5468 164.012 76.6832C164.084 76.7568 163.893 76.9995 163.894 77.0976C163.898 77.3305 164.161 77.6642 164.253 77.8852C164.394 78.2247 164.537 78.5461 164.712 78.8693C164.449 78.8953 164.311 78.8175 164.319 79.0936C164.327 79.3177 164.248 79.7726 164.373 79.9636C164.56 80.2508 164.62 80.2755 164.523 80.5892C164.428 80.8948 164.333 81.2007 164.239 81.5064C164.426 81.293 164.814 80.5979 165.126 81.0769C165.3 81.3424 165.157 82.2345 165.153 82.549C165.143 83.3796 165.132 84.2102 165.122 85.0406C164.777 84.7755 164.615 84.5219 164.382 84.1508C164.419 84.8138 164.484 85.2377 165.018 85.6858C165.292 85.9151 165.112 85.981 165.151 86.3183C165.178 86.5642 165.311 86.8345 165.384 87.0701C165.544 87.5837 165.682 88.09 165.806 88.6131C165.928 89.1246 165.829 89.5203 166.066 90.0073C166.505 90.9101 167.401 91.5434 167.766 92.4875C167.858 92.7272 168.1 92.999 167.828 93.1116C167.564 93.2204 167.351 92.9463 167.163 92.7536C166.751 92.3322 166.385 91.8602 165.971 91.4374C165.968 91.6499 165.931 91.8523 166.025 92.0445C166.132 92.2657 166.372 92.4852 166.125 92.6176C165.755 92.8172 165.718 93.3947 165.865 93.8006C166.084 94.4056 166.164 94.5 166.679 94.8737C167.172 95.2321 167.564 95.6871 168.064 96.0472C168.404 96.2918 169.031 96.2311 169.445 96.2357C169.934 96.2416 170.376 96.1185 169.943 95.6018C169.703 95.3164 169.02 95.5538 168.66 95.3892C168.075 95.1218 167.731 94.4887 167.53 93.9219C167.711 93.8688 167.893 93.8154 168.074 93.7621C168.155 93.7386 168.344 94.2018 168.498 94.242C168.908 94.3495 169.08 94.8986 169.498 95.0484C169.839 95.1705 170.289 95.221 170.49 95.5327C170.634 95.7566 170.777 95.9867 170.942 96.197C171.16 96.4744 171.561 96.6048 171.825 96.8397C172.551 97.4875 173.462 97.8015 174.367 98.1246C174.771 98.2681 174.979 98.3267 175.403 98.3083C175.909 98.2863 175.987 98.6602 176.269 99.0711C176.759 99.7839 177.63 100.044 178.392 100.435C179.042 100.77 179.733 101.149 180.422 101.39C181.186 101.657 182.044 101.764 182.833 101.946C183.164 102.022 183.557 102.382 183.846 102.558C184.165 102.753 184.44 102.873 184.793 103.001C184.998 103.075 185.778 103.222 185.884 103.415C186.057 103.729 186.228 104.3 186.548 104.477C187.083 104.773 187.009 104.84 187.031 105.455C187.053 106.084 187.904 105.705 187.969 105.314C187.984 105.23 187.612 105.005 187.835 104.897C188.016 104.809 188.462 105.002 188.55 104.749C188.641 104.489 188.45 104.207 188.841 104.303C189.157 104.38 189.468 104.508 189.789 104.56C190.729 104.713 191.602 104.451 192.527 104.278C194.102 103.984 195.266 102.827 196.063 101.504C196.239 101.211 196.556 100.503 196.862 100.357C196.957 100.313 197.053 100.48 197.216 100.362C197.331 100.278 197.42 100.145 197.502 100.033C197.649 99.8322 197.761 99.6469 197.861 99.4224C197.981 99.1525 198.02 99.1464 197.929 98.9119C197.809 98.6003 198.43 98.3589 198.599 98.1838C198.794 97.9823 198.674 97.5327 198.841 97.3871C198.951 97.2919 199.39 97.3122 199.535 97.2919C200.017 97.2264 200.565 97.1609 201.021 96.9969C201.251 96.914 201.69 96.8086 201.854 96.6313C202.017 96.4539 202.085 96.0263 202.173 95.7984C202.94 96.2357 203.771 95.8018 203.862 94.8942C203.871 94.8044 203.814 94.4537 203.91 94.4544C204.119 94.4569 204.329 94.4648 204.538 94.4575C204.971 94.4424 205.4 94.4286 205.833 94.4343C206.251 94.4389 206.648 94.4826 207.063 94.5345C207.234 94.5554 207.408 94.568 207.58 94.5845C207.763 94.6019 207.93 94.3918 208.108 94.374C208.451 94.3399 208.913 94.605 209.267 94.645C209.716 94.695 210.097 94.7988 210.53 94.9318C210.265 95.0682 209.69 95.2147 209.771 95.6271C209.77 95.6225 210.312 96.542 210.222 96.519C211.244 96.7868 212.208 96.9504 213.085 97.5867C213.277 97.7256 214.009 98.1664 214.065 98.3669C214.149 98.6723 213.553 99.4881 213.395 99.7174C212.949 100.362 212.547 101.029 212.062 101.646C211.815 101.962 211.518 102.193 211.211 102.453C211.025 102.609 211.094 103.371 211.114 103.622C211.132 103.848 211.026 103.923 210.886 104.106C210.794 104.224 210.853 104.526 210.852 104.672C210.847 105.043 210.401 105.377 210.09 105.514C209.275 105.875 210.027 107.175 210.227 107.756C210.262 107.856 209.632 108.392 209.528 108.402C209.291 108.425 209.172 108.358 209.169 108.608C209.166 108.854 209.163 109.1 209.16 109.345C209.155 109.732 209.63 109.51 209.463 109.961C209.367 110.217 209.163 110.502 209.136 110.764C209.106 111.047 208.672 111.256 208.843 111.549C209.062 111.923 209.184 112.016 209.566 112.23C209.185 112.532 209.08 112.572 209.03 113.053C209.001 113.332 209.061 113.813 208.772 113.896C208.377 114.009 208.307 114.447 208.766 114.488C208.949 114.504 209.053 114.446 209.05 114.636C209.049 114.741 209.104 115.081 209.02 115.15C208.737 115.383 208.462 115.61 208.2 115.865C207.896 116.161 207.989 116.906 207.925 117.313C207.819 117.985 207.071 118.448 206.485 118.731C205.899 119.015 205.599 119.905 205.051 120.278C204.589 120.593 204.317 120.594 203.988 121.111C203.726 121.523 203.528 121.6 203.222 121.196C203.075 121.002 202.591 120.83 202.352 120.818C201.852 120.793 201.736 121.022 201.539 121.402C201.41 121.651 201.167 122.106 201.229 122.39C201.32 122.821 201.752 122.683 202.064 122.665C201.829 122.88 201.384 123.147 201.247 123.432C201.15 123.632 201.053 123.832 200.957 124.032C200.879 124.193 200.992 124.421 200.937 124.589C200.892 124.724 200.722 124.756 200.691 124.916C200.65 125.12 200.591 125.328 200.569 125.535C200.526 125.937 200.485 126.34 200.431 126.742C200.318 127.581 200.136 128.462 200.179 129.314C200.201 129.744 200.177 130.068 200.624 130.27C201.1 130.485 201.447 130.567 201.966 130.635C201.857 131.1 201.685 131.164 201.289 131.446C201.045 131.62 200.604 131.904 200.56 132.202C200.442 133.004 199.972 133.648 199.318 134.126C199.129 133.495 198.736 132.537 198.815 131.873C198.854 131.55 199.133 131.172 199.229 130.843C199.358 130.401 199.425 129.972 199.493 129.516C199.524 129.308 198.903 129.323 198.694 129.298C198.174 129.238 197.717 129.053 197.212 128.966C196.317 128.81 195.45 128.793 194.545 128.782C193.802 128.773 193.052 128.733 192.31 128.76C191.553 128.786 190.528 128.68 190.003 129.263C189.501 129.822 188.714 129.938 188.076 130.278C187.504 130.583 186.779 131.275 186.159 131.351C185.647 131.415 185.394 131.447 184.968 131.723C184.687 131.905 184.564 132.395 184.42 132.689C184.27 132.994 184.24 133.395 184.106 133.718C183.987 134.006 183.601 134.292 183.35 134.481C182.882 134.835 182.32 135.53 182.125 136.089C181.894 136.756 181.946 137.515 181.957 138.23C182.075 138.202 182.193 138.174 182.311 138.147C182.353 138.857 182.314 139.684 182.606 140.346C182.741 140.651 182.774 141.014 182.984 141.266C183.321 141.668 183.429 141.743 183.944 141.822C184.237 141.867 184.849 141.752 185.06 141.925C185.423 142.223 185.106 142.648 184.834 142.914C184.277 143.456 184.047 144.411 183.916 145.139C183.877 145.36 183.793 145.55 183.739 145.766C183.682 146.003 183.765 146.262 183.696 146.492C183.587 146.857 183.243 146.982 183.037 147.317C182.817 147.674 182.86 148.081 182.413 148.139C182.089 148.181 181.981 148.968 181.91 149.197C181.792 149.577 181.604 149.919 181.422 150.27C181.244 150.615 181.254 150.975 181.221 151.347C181.191 151.69 180.86 151.994 180.857 152.302C180.854 152.463 180.908 152.735 180.85 152.883C180.776 153.069 180.508 153.192 180.402 153.363C180.181 153.719 180.082 154.016 179.804 154.36C179.602 154.609 179.212 154.764 178.908 154.867C178.58 154.978 178.053 155.08 177.804 155.34C177.522 155.636 177.416 156.397 177.196 156.777C177.031 157.062 177.035 157.461 176.895 157.771C176.705 158.189 176.568 158.599 176.43 159.037C176.317 159.396 176.155 159.609 176.237 159.985C176.322 160.374 176.39 160.777 176.118 161.086C175.885 161.351 175.414 161.139 175.096 161.226C174.769 161.315 174.436 161.601 174.174 161.811C173.859 162.064 173.49 162.244 173.378 162.636C173.265 163.03 173.223 163.446 172.814 163.576C172.072 163.813 172.067 164.963 171.407 165.225C170.854 165.444 170.835 165.481 170.617 166.038C170.487 166.373 170.195 166.642 170.011 166.953C169.814 167.288 169.607 167.592 169.36 167.895C168.996 168.344 168.911 168.436 168.868 169.012C168.803 169.877 168.304 170.248 167.797 170.89C167.547 171.207 167.418 171.447 167.413 171.838C167.412 171.973 167.128 171.995 167.057 172.095C166.953 172.243 167.042 172.507 166.934 172.663C166.674 173.043 166.467 173.426 166.258 173.835C166.017 174.305 165.662 174.635 165.552 175.15C165.46 175.588 165.45 176.107 164.954 176.15C164.643 176.177 164.454 176.758 164.235 177.001C163.904 177.37 163.492 177.375 163.328 177.877C163.18 178.329 162.989 178.596 162.677 178.955C162.555 179.095 162.38 179.106 162.202 179.157C162.072 179.195 161.975 179.464 161.906 179.575C161.82 179.714 161.547 179.664 161.442 179.778C161.308 179.925 161.295 180.426 161.203 180.635C161.024 181.045 160.634 181.132 160.242 181.322C159.91 181.483 159.584 181.796 159.256 181.991C158.941 182.18 158.588 182.224 158.239 182.336C157.916 182.439 157.638 182.773 157.428 183.033C157.154 183.373 157.13 183.537 156.714 183.64C156.294 183.746 155.987 183.898 155.606 184.106C154.969 184.453 154.708 185.078 154.15 185.543C153.875 185.772 153.473 185.446 153.153 185.501C152.654 185.584 152.436 185.804 152.079 186.151C151.708 186.512 150.179 186.172 150.012 185.644C149.721 184.726 149.846 183.783 149.798 182.83C149.763 182.144 148.891 181.554 148.35 181.259C147.963 181.05 147.741 181.002 147.297 180.971C147.094 180.958 146.779 180.875 146.605 181.009C146.41 181.157 146.267 181.448 146.051 181.552C145.872 181.639 145.181 182.126 145.036 182.076C144.912 182.033 144.566 181.985 144.534 181.852C144.474 181.602 144.446 181.536 144.267 181.354C144.07 181.152 143.804 180.518 143.905 180.226C143.998 179.957 144.308 179.741 144.312 179.437C144.315 179.204 144.317 178.97 144.32 178.736C144.325 178.353 144.206 178.174 143.855 177.959C143.774 177.909 143.483 177.667 143.422 177.746C143.299 177.905 143.222 178.039 143.042 178.125C142.245 178.511 141.889 178.964 141.878 179.855C141.875 180.068 141.88 180.259 141.826 180.465C141.761 180.713 141.709 180.619 141.471 180.636C141.041 180.667 140.803 180.597 140.504 180.272C139.921 179.64 139.705 178.611 140.147 177.877C140.521 177.255 141.468 177.204 141.866 176.596C142.087 176.259 142.289 175.913 142.491 175.564C142.554 175.454 142.887 175.39 143 175.308C143.246 175.13 143.335 174.789 143.576 174.583C143.579 174.838 143.554 175.079 143.523 175.332C143.618 175.314 143.961 175.305 143.97 175.207C143.988 174.997 144.073 174.756 143.948 174.58C143.63 174.132 143.561 173.946 143.972 173.546C144.229 173.296 144.523 173.128 144.833 173.248C145.079 173.343 145.261 173.19 145.349 172.963C145.383 172.875 145.614 172.195 145.525 172.105C145.522 172.102 145.502 172.138 145.505 172.141C145.681 171.109 145.929 170.046 146.716 169.322C147.132 168.938 147.692 168.662 147.982 168.163C148.238 167.723 148.351 167.191 148.587 166.734C149.144 165.656 149.42 164.476 150.051 163.432C150.37 162.906 150.212 162.004 150.347 161.383C150.46 160.864 150.579 160.122 151.21 160.583C151.412 160.255 151.014 160.186 150.777 160.13C150.512 160.068 150.569 159.921 150.524 159.656C150.466 159.316 150.619 158.876 150.663 158.533C150.784 157.582 150.837 156.903 150.673 155.965C150.541 155.212 150.651 154.468 150.431 153.729C150.195 152.935 150.017 152.166 149.689 151.404C149.39 150.711 149.058 150.064 148.636 149.433C148.169 148.733 147.585 148.318 147.003 147.723C146.497 147.206 145.923 146.411 145.291 146.086C144.48 145.669 143.684 145.605 142.786 145.594C142.458 145.59 142.134 145.664 141.81 145.714C142.18 145.417 140.451 144.784 140.123 144.721C139.773 144.654 139.219 144.661 138.911 144.49C138.603 144.319 138.437 143.881 138.149 143.673C137.454 143.172 136.764 142.664 136.073 142.156C135.805 141.959 135.62 141.527 135.432 141.253C135.214 140.935 134.883 140.681 134.633 140.386C134.174 139.845 133.711 139.089 132.95 138.907C132.596 138.822 132.231 138.758 131.887 138.637C131.331 138.443 130.793 138.494 130.239 138.376C129.426 138.204 128.749 137.878 127.999 137.524C127.623 137.347 127.256 137.167 126.892 136.968C126.504 136.755 126.264 136.337 125.987 135.998C125.397 135.274 124.619 134.323 124.539 133.363C124.489 132.764 124.534 132.157 124.541 131.569C124.546 131.17 124.512 130.235 124.841 129.947C125.696 129.198 126.594 128.522 127.354 127.677C127.458 127.56 127.778 127.871 127.968 127.687C128.174 127.485 128.403 127.307 128.625 127.122C128.84 126.944 129 126.69 129.176 126.473C129.266 126.361 129.755 126.418 129.904 126.411C129.899 126.413 129.852 126.441 129.851 126.442C129.895 126.241 130.546 125.885 130.689 125.774C130.917 125.597 131.144 125.42 131.372 125.243C131.695 124.992 132.273 124.885 132.662 124.771C132.587 124.347 134.24 124.564 134.362 124.751C134.361 124.749 134.303 124.746 134.296 124.747C134.783 124.818 135.874 124.956 136.229 124.549C136.694 124.014 137.046 123.396 137.586 122.937C138.073 122.522 138.711 122.082 139.077 121.566C139.498 120.975 139.911 120.386 140.324 119.796Z" fill="#F0ECE7"/>
<path d="M81.9768 265.088C82.4159 263.024 82.3773 261.099 82.0266 259.031C81.8747 258.139 82.0775 257.137 82.1994 256.253C82.3274 255.32 83.2758 254.573 83.2424 253.697C83.2269 253.285 82.9473 252.696 83.037 252.328C83.1728 251.772 83.4352 251.598 83.7815 251.149C84.093 250.746 84.2927 250.187 84.706 249.87C85.1549 249.526 85.2843 248.973 85.8385 248.772C86.9092 248.384 86.2736 246.724 85.7376 246.066C85.436 245.696 83.9099 243.952 84.1832 243.578C84.6206 244.253 85.5667 244.695 86.1868 245.184C86.9031 245.751 87.1265 246.473 87.3174 247.316C88.0879 246.623 89.0887 246.205 89.9826 245.686C90.9146 245.143 91.7688 244.357 92.74 243.921C93.6995 243.49 94.5482 242.568 95.5096 242.245C96.1971 242.014 96.5144 241.819 97.0628 241.341C97.4444 241.009 97.9392 240.845 98.3082 240.491C97.9541 240.159 97.527 239.844 97.2243 239.464C96.7469 238.865 96.5281 238.201 96.1253 237.564C95.4633 236.516 93.4841 236.696 93.2924 235.453C94.1285 235.896 94.9655 236.339 95.8014 236.784C96.4951 237.154 97.5933 237.732 98.1584 238.287C98.5643 238.684 98.8079 239.268 99.1981 239.693C99.7284 240.269 99.7862 240.05 100.449 239.759C100.812 239.599 101.353 239.895 101.59 239.386C101.722 239.103 101.621 238.179 101.207 238.236C101.282 237.517 101.923 236.872 102.291 236.267C102.737 236.803 102.876 236.065 103.309 236.104C103.72 236.14 104.147 237.086 104.575 237.22C104.931 237.332 105.33 237.108 105.681 237.146C106.227 237.206 106.39 237.531 106.642 237.951C105.318 238.346 103.505 238.306 102.52 239.266C103.633 239.279 104.718 238.942 105.825 238.833C106.333 238.784 106.772 238.649 107.246 238.453C107.708 238.262 107.951 237.896 108.456 237.709C108.062 238.164 107.647 238.349 107.921 238.91C108.068 239.214 108.791 239.143 109.054 239.548C109.43 240.126 111.122 240.442 111.651 239.994C110.941 239.745 110.892 239.022 110.798 238.372C110.701 237.707 111.044 237.229 111.207 236.598C111.439 236.769 111.5 237.006 111.572 237.266C111.623 237.45 111.39 237.495 111.371 237.656C111.348 237.85 111.51 237.848 111.432 238.097C111.377 238.273 111.362 238.365 111.36 238.549C111.353 239.078 112.06 240.497 112.727 239.718C112.985 239.418 113.218 239.121 113.502 238.845C113.601 238.749 113.856 238.751 113.92 238.656C114.014 238.514 113.956 238.247 114.015 238.085C114.167 237.671 115.113 236.26 114.037 236.28C114.335 235.863 114.18 235.323 113.697 235.196C113.251 235.079 113.698 234.477 113 234.372C112.454 234.291 112.33 234.808 111.978 234.158C111.804 233.836 111.06 233.564 110.986 234.037C110.961 234.197 110.673 235.397 110.432 234.958C110.308 234.732 110.66 234.012 110.536 233.66C110.461 233.447 109.692 233.037 109.648 233.343C109.582 233.789 109.557 234.531 108.979 234.588C109.284 234.22 109.425 233.78 109.26 233.313C108.94 233.459 108.508 233.783 108.179 233.851C107.694 233.953 107.338 233.767 107.171 234.345C107.071 234.182 106.969 234.019 106.869 233.857C106.837 234.032 106.805 234.209 106.774 234.384C106.419 234.354 106.574 234.038 106.594 233.75C106.618 233.394 107.032 233.45 107.353 233.378C107.649 233.312 108.776 233.118 108.889 232.935C109.025 232.715 108.642 232.554 108.449 232.477C108.037 232.313 108.044 232.237 107.888 231.814C107.693 231.293 107.591 230.725 107.468 230.183C107.167 228.847 107.077 227.728 107.264 226.37C107.337 225.838 107.295 225.245 107.514 224.751C107.883 223.922 107.76 223.903 106.95 223.552C107.301 223.556 107.896 223.706 108.059 223.372C108.278 222.924 108.561 222.402 108.206 221.938C108.575 222.247 108.996 222.533 109.484 222.13C109.684 221.965 109.643 221.499 109.847 221.341C109.999 221.224 110.364 221.221 110.563 221.149C111.056 220.972 111.644 220.799 112.07 220.495C112.244 220.372 112.538 220.053 112.755 220.055C112.906 220.058 113.54 220.152 113.593 220.012C114.051 218.801 114.625 218.373 115.881 218.063C116.539 217.9 116.482 217.134 116.838 216.626C117.229 216.067 117.311 215.888 117.517 215.225C117.712 214.602 117.912 214.378 118.414 213.994C118.635 213.825 118.846 212.403 118.98 212.043C119.4 210.919 119.868 209.824 120.365 208.73C120.524 208.378 120.876 208.767 120.672 208.261C120.539 207.93 120.629 207.829 120.758 207.49C120.942 207.011 120.966 206.397 121.289 205.992C121.563 205.65 122.175 205.038 122.59 204.871C123.039 204.691 123.649 205.102 124.132 205.22C124.278 204.861 124.118 204.709 123.899 204.463C123.683 204.22 123.76 204.031 123.78 203.703C123.801 203.341 123.817 203.306 124.063 203.04C124.261 202.826 124.672 202.898 124.825 202.718C124.88 202.653 124.877 202 124.892 201.894C124.939 201.577 125.139 201.559 125.415 201.426C125.761 201.258 125.514 201.117 125.731 200.88C125.933 200.658 126.264 200.491 126.532 200.361C127.034 200.118 127.03 199.376 127.473 199.25C128.303 199.011 127.79 198.582 127.797 197.948C127.809 197.031 128.375 195.572 129.103 194.968C130.105 194.134 131.183 193.14 131.799 191.991C132.088 191.454 132.3 191.173 132.455 190.562C132.503 190.371 132.765 190.103 132.949 190.034C133.052 189.996 133.824 189.588 133.262 189.477C132.584 189.343 132.365 189.288 131.895 188.776C131.328 188.157 131.401 187.656 131.362 186.839C131.347 186.535 131.364 185.674 131.105 185.477C130.749 185.206 130.49 185.101 130.295 184.677C130.175 184.417 129.791 184.377 129.635 184.143C129.001 183.194 129.248 182.417 129.47 181.347C129.543 181.416 129.662 181.442 129.732 181.516C129.553 180.841 131.125 178.366 131.644 179.524C131.406 179.722 130.559 180.182 130.772 180.471C130.981 180.756 131.563 180.292 131.81 180.101C131.969 179.978 132.192 179.926 132.376 179.853C132.668 179.737 132.556 179.436 132.674 179.271C132.989 178.831 133.543 178.695 133.549 178.097C133.553 177.84 134.039 177.294 134.252 177.174C134.576 176.991 135.239 177.154 135.267 176.749C135.331 175.813 135.704 175.119 135.585 174.187C135.404 174.461 135.208 174.806 134.906 174.958C134.801 175.011 133.964 175.211 133.915 175.291C133.604 175.802 134.824 175.882 135.039 175.469C135.052 176.269 134.429 176.171 133.872 176.464C133.518 176.652 133.359 177.021 132.997 177.195C132.592 177.391 133.126 177.867 132.656 178.017C132.259 178.143 132.136 178.25 131.693 178.276C131.148 178.308 131.454 178.082 130.985 177.943C130.565 177.817 129.888 178.846 129.74 178.147C129.604 178.314 129.221 178.832 129.002 178.864C128.81 178.893 128.125 178.564 127.902 178.508C127.701 178.459 127.311 179.087 127.015 178.873C126.661 178.618 127.495 178.331 127.656 178.303C128.031 178.24 128.227 178.015 128.501 177.802C128.643 177.692 129.179 178.058 129.231 177.728C129.292 177.337 129.615 177.619 129.88 177.521C130.222 177.394 130.272 176.879 130.677 177.366C130.681 177.255 130.772 177.148 130.78 177.037C131.195 177.364 131.185 176.852 131.448 176.615C131.57 176.759 131.749 176.866 131.94 176.918C131.98 176.606 132.174 175.851 131.787 175.685C131.089 175.385 131.403 175.125 131.605 174.602C131.664 174.785 131.979 176.052 132.388 175.554C132.502 175.415 132.367 175.418 132.261 175.284C132.017 174.971 132.373 175.169 132.426 175.14C132.496 175.104 132.74 175.167 132.817 175.173C132.982 175.187 132.865 174.96 132.926 174.849C132.976 174.761 132.837 174.66 132.914 174.536C133.007 174.385 133.133 174.257 133.248 174.122C133.454 173.882 133.373 173.525 133.508 173.337C133.625 173.173 134.138 173.005 134.146 172.885C134.176 172.477 134.254 172.07 134.257 171.661C133.748 172.109 134.109 172.654 133.533 172.968C133.329 173.079 133.014 173.148 132.846 173.295C132.677 173.443 132.619 173.909 132.405 173.864C132.242 173.829 131.537 173.72 131.62 173.38C131.695 173.07 132.205 173.227 132.172 172.974C132.092 172.362 132.931 172.364 132.569 171.641C132.412 171.907 132.137 172.63 131.665 172.422C131.189 172.213 131.756 171.446 131.113 171.556C131.413 171.873 131.142 172.441 131.097 172.845C130.896 172.58 130.739 172.251 130.41 172.143C130.383 172.561 130.356 172.979 130.328 173.397C130.121 172.984 129.799 172.611 129.913 172.153C130.015 171.745 130.068 171.337 130.094 170.917C129.232 171.068 129.542 171.609 129.447 172.33C128.584 172.274 128.937 172.124 128.763 171.363C128.762 171.709 128.534 171.795 128.243 171.891C127.968 171.982 128.047 172.2 127.923 172.41C127.837 172.554 127.411 172.834 127.653 173.019C127.815 173.144 128.09 173.384 128.295 173.305C128.586 173.193 129.005 172.508 129.375 172.856C130.035 173.478 128.837 173.638 128.642 173.84C128.674 173.807 129.297 174.856 129.415 175.004C129.154 174.824 128.822 174.471 128.595 174.864C128.504 175.022 128.472 175.494 128.221 175.413C128.099 175.373 127.937 175.424 127.82 175.48C127.882 174.999 127.868 174.492 128.234 174.131C127.943 174.199 127.305 174.258 127.3 174.643C127.299 174.79 127.342 174.883 127.219 174.962C127.001 175.103 127.117 175.288 127.093 175.305C126.801 175.526 126.305 175.335 126.259 175.758C126.241 175.927 126.551 176.289 126.548 176.551C126.544 176.816 127.797 176.565 128.039 176.539C128.384 176.502 128.422 176.759 128.636 176.293C128.744 176.061 129.175 176.023 129.402 176.06C129.34 176.165 129.36 176.318 129.298 176.423C129.759 176.44 130.203 176.376 130.657 176.306C130.064 176.884 129.289 177.021 128.461 177.185C128.159 177.244 125.721 177.408 126.762 177.899C126.405 178.143 125.562 178.158 125.387 178.455C125.64 178.542 125.859 178.719 125.999 178.947C125.236 178.937 124.515 178.747 123.749 178.7C124.207 178.608 124.516 178.393 124.904 178.141C125.021 178.066 125.423 178.064 125.588 178C125.756 177.936 125.8 177.545 125.852 177.388C125.95 177.095 126.164 176.377 125.856 176.126C125.564 175.888 124.786 176.146 124.66 176.464C124.662 176.327 124.584 175.667 124.726 175.623C124.977 175.545 125.374 175.77 125.467 175.505C125.596 175.133 125.951 175.635 125.957 175.117C125.958 175.048 126.46 174.927 126.58 174.725C126.036 174.413 126.474 174.196 126.857 174.2C127.137 174.203 127.142 173.717 127.651 173.769C127.152 173.619 125.953 173.246 125.527 173.661C125.02 174.154 125.04 174.894 124.15 174.827C124.635 174.354 124.645 174.081 124.653 173.406C124.655 173.232 124.758 173.191 124.886 173.066C125.072 172.885 124.762 172.902 124.837 172.765C124.982 172.501 125.063 172.356 125.417 172.288C125.511 173.437 126.759 172.18 127.277 171.915C127.115 171.81 126.955 171.706 126.795 171.601C127.175 171.373 128.157 171.477 127.643 170.819C127.98 170.909 128.147 170.755 128.001 170.426C128.403 170.345 128.817 171.286 128.775 170.37C128.763 170.121 128.411 169.664 128.089 169.841C127.722 170.04 126.932 170.344 126.886 170.829C126.821 171.504 126.448 171.519 125.823 171.589C125.852 171.222 125.887 170.858 125.881 170.489C125.492 170.727 125.438 171.382 125.142 171.525C124.68 171.748 124.207 171.873 123.795 172.174C123.255 172.568 123.007 172.4 122.913 173.122C122.824 173.806 123.515 173.337 123.73 173.105C124.328 173.547 123.299 173.8 123.031 173.96C122.866 174.059 122.155 174.918 122.111 174.48C122.08 174.162 122.161 173.421 121.695 173.345C121.388 173.295 120.281 174.379 120.279 174.522C120.286 174.489 120.297 174.458 120.313 174.429C119.989 174.744 119.969 175.156 119.683 175.435C119.395 175.714 118.416 176.332 118.667 175.422C118.171 175.824 117.507 176.16 117.061 176.594C116.703 176.942 116.754 177.339 116.472 177.653C115.817 178.381 114.781 178.467 114.73 179.558C113.84 179.399 113.144 178.814 112.45 178.254C112.672 178.153 112.894 178.053 113.116 177.953C112.667 177.304 112.242 176.658 111.836 175.983C111.459 175.355 111.387 174.513 111.259 173.797C111.111 172.965 111 172.415 111.473 171.699C111.773 171.246 111.702 170.87 111.708 170.361C111.714 169.837 111.941 169.323 111.948 168.778C111.587 168.894 111.259 168.972 110.885 169.03C111.147 168.523 111.16 168.243 111.167 167.667C111.172 167.2 110.602 166.968 110.199 167.248C109.381 167.816 108.815 168.09 107.804 167.775C106.959 167.51 106.438 166.669 105.843 166.061C105.745 165.962 105.298 165.734 105.275 165.614C105.245 165.463 105.543 165.294 105.484 165.13C105.317 164.66 105.191 164.255 105.121 163.762C105.678 163.933 105.569 162.596 105.715 162.184C105.985 161.42 106.329 160.947 107.143 160.924C107.943 160.902 108.619 160.985 109.393 161.162C109.849 161.267 110.844 162.065 111.152 161.766C111.785 161.15 110.172 160.75 109.841 160.605C109.146 160.3 108.658 160.119 107.856 160.263C106.788 160.454 103.977 160.02 103.691 161.543C103.809 161.545 104.278 161.478 104.353 161.551C104.388 161.585 104.38 162.215 104.345 162.255C103.927 162.747 103.333 161.923 103.323 162.772C103.318 163.211 103.254 163.732 102.78 163.844C102.208 163.979 102.365 163.194 102.395 162.804C101.537 163.57 100.546 164.036 99.6868 164.803C99.2889 165.158 98.7066 165.363 98.3407 165.706C98.187 165.85 98.0751 166.241 97.9015 166.432C97.7334 166.616 97.21 166.576 96.9682 166.607C96.685 166.644 96.3651 167.591 96.1698 167.825C95.8218 168.243 95.3196 168.7 95.1492 169.234C94.744 170.506 94.7935 171.622 94.9005 172.944C94.9955 174.123 94.9267 175.335 94.9382 176.519C94.9426 176.993 95.1327 177.484 95.1 177.954C95.0605 178.516 94.7238 179.05 94.672 179.615C94.6326 180.048 94.7429 180.965 94.4125 181.272C93.8575 181.786 93.474 182.211 93.0595 182.841C92.4231 183.806 92.151 184.98 91.5573 185.971C90.9312 187.017 90.1273 187.875 89.2104 188.66C88.8305 188.986 88.4322 189.288 88.0462 189.606C87.5337 190.028 87.0093 189.716 86.3879 189.828C85.7674 189.94 85.4756 190.123 84.8247 190.092C84.2078 190.062 83.8052 190.189 83.9074 190.94C83.9911 191.56 84.0683 192.062 83.9764 192.677C83.8925 193.24 83.4385 193.668 83.3622 194.209C83.1912 195.43 83.2004 196.695 82.6215 197.781C82.0427 198.866 82.504 200.033 82.3198 201.219C82.1306 202.436 81.4973 203.274 81.1443 204.43C81.0043 204.888 80.4149 205.166 80.4111 205.507C80.4036 206.135 80.0623 206.601 79.9232 207.203C79.8089 207.698 79.688 208.179 79.5076 208.654C79.4174 208.893 79.3539 209.282 79.1751 209.47C78.9614 209.695 78.7206 209.886 78.606 210.176C78.3774 210.754 78.1328 211.19 77.7741 211.7C77.4588 212.149 77.0055 212.445 76.6916 212.881C76.3235 213.392 75.9501 213.851 75.5266 214.318C75.1771 214.703 74.9298 215.421 74.6097 215.867C74.2772 216.332 74.2015 216.822 73.8694 217.188C73.5522 217.537 73.0825 218.088 72.6804 218.306C72.1952 218.569 71.5296 218.788 71.1566 219.202C70.7943 219.605 70.4616 220.256 69.9529 220.429C69.3194 220.644 68.8005 220.803 68.1386 220.868C67.6534 220.916 67.2345 221.677 66.9186 221.962C66.5538 222.289 65.9797 222.72 65.5379 222.914C65.3453 222.998 64.9081 222.95 64.7963 223.136C64.6182 223.433 64.4596 223.665 64.2239 223.917C63.8874 224.276 63.9478 224.888 63.6099 225.313C63.4647 225.496 63.2384 225.64 63.0632 225.797C62.9218 225.924 62.7804 226.05 62.6388 226.176C62.5277 226.276 62.6552 226.442 62.5797 226.534C62.2803 226.895 61.7205 227.323 61.3179 227.572C60.9497 227.799 60.6634 228.622 60.3941 228.979C59.9519 229.565 59.6802 229.697 59.002 229.995C58.783 230.091 58.4604 230.062 58.2233 230.086C57.9811 230.11 57.6492 230.53 57.4705 230.683C56.4791 231.527 56.4877 232.753 55.8311 233.789C55.5832 234.18 55.583 234.157 55.1137 234.151C54.9048 234.148 54.7795 234.56 54.6635 234.718C54.5586 234.861 54.3606 235.199 54.1775 235.196C53.7682 235.192 53.5326 235.122 53.2339 235.413C52.7542 235.88 52.3808 235.923 51.7492 235.915C51.2119 235.909 50.6867 236.427 50.2675 236.69C49.4222 237.22 48.7578 237.923 47.7818 238.395C47.452 238.555 47.0658 239.31 46.8097 239.611C46.4654 240.018 46.1856 240.504 45.7929 240.862C45.4598 241.166 44.841 241.709 45.1898 242.259C45.5506 242.828 46.1136 243.48 45.0849 243.247C44.2689 243.062 43.944 242.136 43.1578 242.853C42.6019 243.361 42.2927 244.025 41.8272 244.619C41.4601 245.088 40.6428 245.058 40.0689 245.279C39.3407 245.559 38.9483 245.26 38.6898 244.565C37.7144 245.237 36.9666 245.724 35.7635 245.755C35.5712 245.76 35.3794 245.758 35.1869 245.755C34.6966 245.749 34.9022 245.76 34.6528 246.1C34.5838 246.194 34.7 246.313 34.6007 246.414C34.4768 246.541 34.3528 246.667 34.229 246.794C34.0381 246.988 34.0484 247.272 34.0885 247.516C34.1078 247.634 33.4053 248.342 33.2909 248.582C33.0562 249.075 32.662 249.379 32.2412 249.718C31.8576 250.027 31.519 250.343 31.2398 250.75C30.9201 251.216 30.4489 251.331 29.9279 251.527C30.1211 252.04 31.0506 251.784 31.0422 252.475C31.0323 253.289 30.4636 253.207 29.7951 253.199C28.9862 253.189 29.5826 253.857 29.0678 254.232C28.9235 254.338 28.3407 254.569 28.2942 254.681C28.1918 254.927 28.0901 255.238 27.9151 255.444C27.5224 255.907 27.2115 256.075 27.0905 256.75C27.0666 256.882 27.066 257.072 27.0104 257.195C26.9779 257.267 26.7263 257.251 26.6997 257.323C26.6126 257.56 26.6917 257.969 26.6886 258.232C26.6787 259.04 26.5136 259.42 27.2222 259.887C27.6812 260.189 28.4605 260.778 28.1064 261.436C27.8602 260.668 27.8459 260.653 27.0888 260.391C26.3003 260.118 26.3378 260.061 26.1461 259.254C25.8155 259.478 25.7335 259.847 25.474 260.039C25.3817 260.107 25.1803 259.996 25.0654 260.07C24.9097 260.171 24.7285 260.26 24.5867 260.38C24.4872 260.464 23.8713 261.045 23.8705 261.164C23.8678 261.513 24.453 261.519 24.1699 261.961C23.8734 261.738 23.6496 261.387 23.31 261.59C22.8703 261.853 22.8881 262.003 22.7631 262.505C22.627 263.052 24.1592 263.565 23.8311 264.379C23.6154 264.137 23.1537 263.49 22.7969 263.486C22.2234 263.479 21.5999 263.611 22.1095 264.314C22.3052 264.584 23.1577 264.912 22.602 265.345C22.0812 265.75 22.2727 266.052 22.3455 266.696C21.8823 266.316 21.9133 266.301 21.9949 265.707C22.0772 265.111 22.2525 265.066 21.6872 264.604C21.1494 264.164 19.9599 265.029 19.7976 265.608C19.6652 266.078 20.2154 267.451 20.4554 267.806C20.5809 267.991 21.2561 268.731 21.2142 268.928C21.1527 269.217 20.5106 269.388 20.322 269.665C20.5416 269.014 20.5425 268.639 19.7621 268.513C20.3644 267.724 19.7556 266.842 19.171 266.304C18.9172 266.656 18.8935 266.634 18.5526 266.771C17.8895 267.037 18.4066 267.178 18.0338 267.541C17.9281 267.644 17.7794 267.75 17.6946 267.871C17.5941 268.015 17.8419 268.159 17.6422 268.28C17.2409 268.524 17.4809 268.779 17.0361 269.018C16.2996 269.414 16.479 270.103 17.2877 270.112C17.6241 270.116 17.7792 270.515 18.1444 270.519C18.5828 270.524 18.8184 270.497 19.1601 270.795C18.2583 271.041 16.9816 270.691 16.1436 270.346C15.8459 270.223 15.9321 271.465 16.1188 271.655C16.655 272.203 17.0038 272.029 17.7303 272.143C17.5438 272.347 16.9445 272.31 16.9097 272.442C16.8136 272.806 16.9346 273.021 17.2761 273.195C16.9655 273.877 15.8226 271.816 15.5751 271.456C15.3584 271.646 14.5094 272.359 15.2525 272.554C15.7958 272.697 15.7498 273.79 16.4268 274.021C15.7112 274.291 15.0051 272.283 14.4096 272.852C14.061 273.185 14.3993 274.841 14.5376 275.223C14.6745 275.602 14.8117 275.938 15.0301 276.273C15.3443 276.756 15.5868 276.539 16.1431 276.431C16.449 276.371 16.7907 275.867 16.9829 276.148C17.1973 276.462 17.6262 276.81 17.4032 277.205C16.948 276.782 16.6359 276.623 15.9982 276.816C15.6856 276.91 15.4276 276.961 15.1761 277.165C15.0664 277.254 14.9831 277.768 15.1142 277.813C16.3838 278.253 16.746 279.21 17.2759 280.375C16.7011 280.429 16.0785 279.007 15.6582 278.616C15.0486 278.05 14.3406 277.675 13.7392 277.117C13.9563 277.12 14.6087 277.248 14.6351 277.013C14.68 276.615 14.5382 276.43 14.3523 276.072C13.9384 275.275 13.9011 274.723 13.9122 273.816C13.2177 273.748 13.2699 274.6 12.9248 275.103C12.6066 275.567 12.6603 275.392 12.8283 275.784C12.9232 276.006 13.4449 276.355 13.4367 276.584C13.427 276.849 13.0721 277.019 12.8726 276.983C12.3666 276.892 12.3291 276.787 12.1088 277.248C11.8067 277.88 11.5194 278.514 11.2414 279.156C11.6731 279.3 12.2179 279.677 12.5657 279.216C12.6666 279.531 13.3723 280.725 13.8239 280.11C14.0152 279.85 14.1168 279.557 14.4461 279.524C14.7668 279.493 15.1239 279.333 15.1641 279.776C14.9749 279.774 14.5386 279.677 14.4088 279.822C14.2625 279.985 13.9674 280.478 13.7855 280.552C13.1938 280.794 12.7065 280.11 12.2473 279.961C10.687 279.454 10.6247 281.5 10.8036 282.454C10.0673 282.288 10.2607 283.521 10.2551 283.988C10.5102 283.967 10.9842 284.024 11.1919 283.873C11.6037 283.572 11.9278 283.26 12.4721 283.267C12.8241 283.271 13.5537 282.707 13.842 282.507C14.3053 282.185 14.7389 281.842 15.1438 281.449C15.135 282.448 14.3605 282.564 13.5785 283.059C14.0496 283.08 14.5199 283.099 14.9909 283.121C14.5029 283.222 14.0685 283.334 13.6024 283.509C13.2055 283.657 12.8437 283.513 12.4677 283.734C12.0249 283.996 11.6759 284.215 11.3096 284.571C11.0409 284.833 11.3622 285.614 11.3794 285.939C11.9458 285.828 12.5965 285.72 13.0648 285.343C13.3219 285.136 13.2202 284.976 13.5577 284.848C13.9563 284.697 14.3557 284.546 14.7545 284.395C14.5869 285.131 14.2458 285.233 13.5672 285.508C12.9892 285.743 11.7761 286 11.5055 286.587C11.0482 287.58 12.4386 286.952 12.7207 286.973C13.4497 287.028 14.2281 287.01 14.9416 287.127C14.169 287.299 13.6162 287.531 13.5565 288.432C13.1829 288.328 12.4228 288.046 12.065 288.295C11.5353 288.663 11.19 288.605 10.622 288.815C10.3555 288.914 10.1485 288.936 9.99999 289.176C9.80217 289.496 9.8156 289.716 9.45815 289.549C8.9075 289.292 8.39376 289.378 7.82256 289.533C7.2396 289.692 7.11877 290.519 7.05605 291.003C6.94172 291.887 7.19849 292.034 7.50433 292.783C7.68264 293.221 7.50832 294.03 7.69942 294.35C7.98723 294.834 8.6778 294.158 9.07384 293.883C8.90414 294.538 9.54457 294.296 9.62596 293.808C9.70001 293.364 10.0988 292.924 10.3067 292.494C10.4697 292.157 10.4919 291.77 10.6492 291.436C10.867 290.974 10.9568 290.964 11.4527 290.741C11.0289 291.327 10.8707 292.116 10.6324 292.801C11.4245 293.082 11.8745 292.867 12.4917 292.427C12.8137 293.04 10.8435 293.396 10.4202 293.684C9.88692 294.046 10.1019 294.319 10.0323 294.908C9.97943 295.357 9.80259 295.799 9.66288 296.225C9.91356 296.055 10.164 295.884 10.4145 295.714C10.6413 295.56 10.8699 295.854 11.0375 295.757C11.1848 295.674 11.2668 295.198 11.4848 295.039C11.701 294.881 11.8825 294.674 12.0738 294.488C12.3746 294.195 12.4696 294.221 12.4753 293.757C12.4784 293.494 12.6263 293.32 12.8602 293.251C13.7969 292.977 14.0584 292.368 14.796 291.751C14.5976 292.163 14.4406 292.706 14.1619 293.065C13.9951 293.28 14.0154 293.406 13.7421 293.435C13.5667 293.454 12.984 293.418 12.9183 293.666C12.8246 294.021 12.6924 294.067 12.8653 294.393C13.0018 294.65 13.1342 294.903 12.7625 294.898C12.7971 294.898 12.0098 295.9 11.8093 296.062C11.4422 296.36 11.4413 296.996 11.0574 297.1C10.3818 297.284 10.9417 297.785 11.1852 298.16C11.5309 298.69 11.6981 298.584 12.2599 298.591C12.8076 298.598 13.1684 298.811 13.6928 298.917C13.5355 298.277 15.0471 298.538 15.4568 298.542C16.0299 298.55 16.6617 298.646 17.2279 298.74C18.0603 298.878 18.8058 298.98 19.6533 298.989C20.1118 298.995 20.2647 299.048 20.5983 298.759C20.875 298.519 21.409 298.518 21.7638 298.542C22.7933 298.612 22.4254 298.205 22.5097 297.456C22.5993 296.662 23.3306 296.351 24.0001 296.117C24.5139 295.938 25.3641 296.402 25.8602 296.582C26.2007 296.705 26.1937 297.056 26.5464 296.828C26.864 296.622 27.0028 296.276 27.1975 295.954C27.3722 296.297 26.8107 297.313 26.9617 297.43C27.397 297.764 27.8159 298.067 28.257 298.386C29.1121 299.003 28.1039 299.182 28.0231 299.7C27.9529 300.151 28.3684 300.261 28.6682 300.499C28.8515 300.644 29.6774 301.417 29.9577 301.317C30.1089 301.263 30.1213 300.797 30.2738 300.748C30.4657 300.687 30.8144 301.18 31.0195 301.153C31.4814 301.093 31.6174 300.499 32.2358 300.507C32.7275 300.513 33.1877 300.844 33.6264 301.053C33.5445 300.262 33.8464 299.665 34.7734 299.934C35.7658 300.223 36.2076 300.824 36.7532 301.662C36.9793 302.009 37.6349 303.881 38.0007 302.716C38.0385 302.596 37.985 302.451 38.0261 302.339C38.0861 302.176 38.285 302.248 38.3064 302.032C38.3525 301.563 38.3982 301.095 38.4444 300.626C38.608 301.237 38.6986 302.397 39.3464 302.707C38.9483 303.095 38.6233 303.39 38.1423 303.662C38.7326 303.888 40.1307 304.647 40.4823 303.69C40.5807 303.423 40.2893 302.719 40.6596 302.723C41.1534 302.729 41.6354 302.742 42.1271 302.786C41.901 303.192 41.3231 304.281 42.3065 304.285C42.8821 304.287 43.1632 304.176 43.643 303.859C43.9639 303.646 43.889 303.031 44.0688 302.897C44.2341 302.774 44.7285 302.825 44.9578 302.783C45.637 302.66 45.3379 303.464 45.258 303.838C45.1269 304.454 46.2362 304.401 46.52 304.948C46.7193 305.332 46.8069 305.607 46.8871 306.034C46.924 306.23 47.7169 306.141 47.9028 306.131C48.4952 306.098 49.3983 306.379 49.9195 306.203C50.3332 306.063 51.7834 305.998 51.6745 305.459C51.6149 305.165 51.5497 304.784 51.9413 304.646C52.2105 304.552 52.1337 305.633 52.1148 305.77C52.3995 306.327 53.1337 305.692 53.3955 305.42C54.0361 304.754 54.0627 305.235 54.8599 305.187C55.3447 305.157 56.0048 304.729 56.4313 304.533C56.6668 304.424 56.5932 304.262 56.5964 304.015C56.6008 303.645 56.7942 303.676 57.1319 303.54C57.0505 303.52 56.9309 303.509 56.8657 303.451C56.9452 303.521 57.6177 303.403 57.8411 303.423C58.3438 303.468 58.4629 303.584 58.8493 303.913C58.783 302.977 59.294 303.05 59.9256 302.561C60.191 302.356 60.4329 302.165 60.542 301.851C60.7326 301.303 60.5931 301.382 60.0754 301.153C60.4918 300.903 63.1041 301.017 61.9877 299.712C60.9229 298.467 62.599 298.051 63.3449 297.405C63.7771 297.031 63.9436 296.595 64.4412 296.273C64.935 295.954 65.2056 295.53 65.6356 295.142C66.5179 294.345 67.8773 293.629 68 292.353C68.1128 291.176 68.266 290.289 69.0226 289.308C69.457 288.745 69.7176 288.432 70.3238 288.073C70.5646 287.93 70.8254 287.947 71.1046 287.921C71.4551 287.889 71.7471 287.696 72.0626 287.543C73.0771 287.052 74.433 287.275 75.3978 286.806C75.5289 286.742 75.4926 286.594 75.66 286.582C75.7781 286.574 75.9994 286.6 76.1074 286.551C76.2581 286.482 76.6153 286.279 76.5756 286.112C76.5138 285.852 76.2677 285.717 76.2088 285.495C76.1374 285.226 76.3099 284.821 76.3967 284.572C76.4431 284.441 76.4884 284.309 76.5339 284.177C76.2585 284.418 76.0416 284.591 75.7126 284.749C75.5543 284.826 75.3674 284.745 75.1958 284.814C75.1133 284.848 75.0991 285.308 75.0187 285.444C74.5392 286.258 73.8247 286.422 72.9716 286.6C73.0907 286.085 73.6577 286.146 73.9088 285.775C74.1052 285.484 73.9008 285.14 74.4022 285.165C73.6403 284.914 74.7471 284.506 75.0871 284.376C75.7141 284.134 75.8366 283.7 75.0942 283.691C74.4704 283.683 74.5178 283.093 73.8411 283.203C73.4517 283.267 74.3898 282.187 74.3949 282.17C74.7943 281.676 74.8981 281.486 74.9849 280.856C74.1012 280.887 75.3699 280.305 75.6099 280.209C75.5805 280.221 75.5526 280.235 75.5226 280.246C75.974 279.944 75.9862 279.613 76.0883 279.124C76.2023 278.58 76.3162 278.546 76.6692 278.124C76.9593 277.777 77.1951 277.366 77.4754 277.007C77.5379 276.927 77.154 276.5 77.2081 276.261C77.3784 275.516 78.104 275.039 78.1124 274.37C78.1154 274.139 77.5997 273.903 77.5037 273.62C77.4118 273.349 77.5144 272.98 77.5599 272.718C77.7036 271.89 78.0281 271.287 78.2769 270.496C78.383 270.159 78.5242 269.82 78.7461 269.538C78.9293 269.307 79.442 269.055 79.469 268.753C79.5783 267.499 81.2953 266.171 81.9768 265.088Z" fill="#F0ECE7"/>
<path d="M30.7934 308.596C30.4257 308.535 30.1878 308.507 29.8239 308.575C29.6552 308.606 29.5476 309.21 29.5184 309.397C29.4612 309.767 29.3651 310.143 29.4154 310.519C29.471 310.933 29.9736 311.378 30.1771 311.76C30.5241 312.409 30.5922 313.162 30.3758 313.86C30.2566 314.244 30.0173 314.247 29.7043 314.475C29.4664 314.648 29.1448 314.258 29.0047 314.035C28.9982 314.554 29.1364 314.974 29.44 315.409C29.6126 315.656 30.0504 316.119 29.7408 316.3C29.5371 316.418 29.2071 316.338 28.976 316.369C28.3022 316.46 28.101 316.806 27.8237 317.386C27.7213 317.6 27.9483 317.739 28.0293 317.942C28.1383 318.216 28.1549 318.517 28.1295 318.803C28.1002 319.129 27.9953 319.217 27.7803 319.473C27.6464 319.632 27.3141 319.691 27.2386 319.866C27.174 320.015 27.1096 320.164 27.045 320.314C27.0041 320.408 26.8134 320.255 26.7186 320.393C26.4373 320.803 26.4434 321.238 26.4375 321.711C26.4341 321.988 27.7878 322.215 27.9779 322.126C28.1119 322.063 28.4205 321.419 28.3143 321.311C28.118 321.11 27.7463 320.903 27.9084 320.584C28.149 320.86 28.1616 321.042 28.4878 320.845C28.8543 320.623 28.5948 320.453 28.7087 320.153C28.8075 319.892 29.3724 319.637 29.5402 319.407C29.7404 319.135 30.0645 319.17 30.3993 319.116C30.3875 319.215 30.4555 319.326 30.4395 319.425C30.9333 319.266 32.6098 319.864 32.8916 319.23C33.0229 318.934 33.2723 318.744 33.3881 318.448C33.5385 318.063 34.2014 318.031 34.5651 317.89C34.7187 317.83 35.5863 317.702 35.6331 317.624C35.7629 317.408 36.5596 317.575 36.8298 317.458C37.1866 317.306 37.0918 317.097 37.0962 316.735C37.0973 316.652 37.8151 316.699 37.9804 316.653C37.8061 316.551 37.4946 316.446 37.3664 316.294C37.052 315.918 37.3362 315.984 37.7237 315.99C37.456 315.489 38.3528 315.428 37.8424 314.907C37.5886 314.648 37.258 314.178 36.8684 314.173C36.4201 314.168 36.3161 314.537 35.8821 314.676C35.8187 314.696 35.4667 314.605 35.4449 314.552C35.3211 314.248 35.9834 314.185 36.1126 314.119C35.8095 313.981 35.563 313.908 35.2355 313.843C34.9003 313.776 34.7338 313.428 34.4441 313.35C34.1038 313.26 33.8328 313.628 33.6155 313.825C33.5282 313.905 33.318 314.363 33.2519 314.337C33.0722 314.265 32.8924 314.193 32.7124 314.123C32.9589 313.843 33.3755 313.619 33.4947 313.276C33.649 312.832 33.6184 312.455 33.842 312.022C34.1535 312.421 34.2888 312.832 34.8477 312.828C34.7965 312.506 36.1432 312.667 36.361 312.67C36.56 312.673 36.3725 311.764 36.2735 311.787C35.6834 311.927 35.6398 311.664 35.2609 311.315C34.9028 310.986 34.5422 310.665 34.1716 310.352C33.9454 310.161 33.9236 310.104 33.8087 309.781C33.7619 309.649 33.8542 309.272 33.8114 309.224C33.5169 308.896 33.2219 308.592 32.8989 308.291C32.7164 308.122 32.0197 307.994 31.7607 307.871C31.2665 307.639 31.0149 308.326 30.7934 308.596Z" fill="#F0ECE7"/>
</svg>
