<svg xmlns="http://www.w3.org/2000/svg" width="27" height="27" viewBox="0 0 27 27"><g><g><g><g><path fill="#646978" d="M8.545 18.099v-7.33H6.85V8.89h4.033v9.209z"/></g></g><g><g><path fill="#646978" d="M19.664 11.27c0 .8-.433 1.51-1.156 1.904 1.012.42 1.642 1.3 1.642 2.326 0 1.655-1.471 2.706-3.77 2.706s-3.77-1.038-3.77-2.667c0-1.051.683-1.944 1.747-2.365-.775-.433-1.274-1.169-1.274-1.97 0-1.471 1.287-2.404 3.284-2.404 2.023 0 3.297.959 3.297 2.47zm-4.847 4.033c0 .775.552 1.208 1.563 1.208 1.012 0 1.577-.42 1.577-1.208 0-.762-.565-1.196-1.577-1.196-1.011 0-1.563.434-1.563 1.196zm.236-3.902c0 .657.473 1.025 1.327 1.025s1.327-.368 1.327-1.025c0-.683-.473-1.064-1.327-1.064s-1.327.381-1.327 1.064z"/></g></g><g><g><path fill="#646978" d="M24.044 9.929a11.1 11.1 0 0 1 .586 3.571c0 6.137-4.993 11.13-11.13 11.13-6.137 0-11.13-4.993-11.13-11.13 0-6.137 4.993-11.13 11.13-11.13 1.224 0 2.424.197 3.571.586V.479A13.484 13.484 0 0 0 13.5 0C6.056 0 0 6.056 0 13.5S6.056 27 13.5 27 27 20.944 27 13.5c0-1.216-.161-2.413-.479-3.571h-2.477z"/></g></g><g><g><path fill="#646978" d="M23.374 3.619V1.03h-1.861v2.589H18.94v1.86h2.573v2.59h1.861v-2.59h2.589V3.62z"/></g></g></g></g></svg>