<svg xmlns="http://www.w3.org/2000/svg" width="12" height="32" viewBox="0 0 12 32"><g><g><path fill="#e2d9cf" d="M11.605 16.776V30.54c0 .857-.632 1.46-1.298 1.46h-3.9H1.3C.634 32 0 31.397 0 30.54V16.776c0-1.744 3.646-4.851 3.646-6.88V0H7.96v9.895c0 2.029 3.645 5.137 3.645 6.88zm-6.55-4.494s-.272.144-.69.47a9.773 9.773 0 0 0-1.618 1.5c-.586.702-1.261 1.592-1.532 2.838-.113.672-.055 1.229-.064 1.812l.031 1.776c.041 2.38.135 4.76.242 6.545.101 1.776.206 2.964.206 2.975 0-.011.105-1.2.207-2.975.107-1.785.2-4.164.242-6.545l.03-1.776c.013-.584-.021-1.19.081-1.616.196-.953.745-1.832 1.187-2.565.474-.727.895-1.338 1.195-1.766l.483-.673zM1.63 30.198z"/></g></g></svg>