<svg
  xmlns="http://www.w3.org/2000/svg" width="25" height="25" viewBox="0 0 25 25">
  <g>
    <g>
      <g/>
      <g>
        <g>
          <g opacity=".5">
            <path fill="#bcbcbc" d="M23.827 2.076c.504 0 .89.415.89.89V24.11c0 .505-.386.89-.89.89H1.17a.874.874 0 0 1-.89-.89V2.966c0-.505.386-.89.89-.89h4.923V0h1.779v2.076h9.253V0h1.779v2.076zM8.109 18.683c0-.978-.77-1.75-1.75-1.75-.978 0-1.75.772-1.75 1.75 0 .979.772 1.75 1.75 1.75.98 0 1.75-.771 1.75-1.75zm0-5.22c0-.978-.77-1.749-1.75-1.749-.978 0-1.75.771-1.75 1.75s.772 1.75 1.75 1.75c.98 0 1.75-.771 1.75-1.75zm6.139 5.22c0-.978-.771-1.75-1.75-1.75-.978 0-1.75.772-1.75 1.75 0 .979.772 1.75 1.75 1.75.979 0 1.75-.8 1.75-1.75zm0-5.22c0-.978-.771-1.749-1.75-1.749-.978 0-1.75.771-1.75 1.75s.772 1.75 1.75 1.75c.979 0 1.75-.801 1.75-1.75zm6.139 5.22c0-.978-.771-1.75-1.75-1.75s-1.75.772-1.75 1.75c0 .979.771 1.75 1.75 1.75s1.75-.771 1.75-1.75zm0-5.22c0-.978-.771-1.749-1.75-1.749s-1.75.771-1.75 1.75.771 1.75 1.75 1.75 1.75-.771 1.75-1.75zm2.55-9.608h-4.033v2.136h-1.78V3.855H7.873v2.136h-1.78V3.855H2.06v3.5h20.878z"/>
          </g>
        </g>
      </g>
    </g>
  </g>
</svg>