<svg xmlns="http://www.w3.org/2000/svg" width="23" height="20" viewBox="0 0 23 20"><defs><linearGradient id="j0jya" x1="11.14" x2="11.14" y1="0" y2="19.58" gradientUnits="userSpaceOnUse"><stop offset="0" stop-color="#f3f7ff"/><stop offset="1" stop-color="#c3c7d2"/></linearGradient></defs><g><g><path fill="url(#j0jya)" d="M7.222 13.052h11.79a.65.65 0 0 0 .628-.473l2.61-9.137a.652.652 0 0 0-.627-.832H5.716L5.249.511A.653.653 0 0 0 4.612 0H.652a.652.652 0 1 0 0 1.305h3.436L6.445 11.91a1.96 1.96 0 0 0-1.18 1.795 1.96 1.96 0 0 0 1.957 1.957h1.296A1.96 1.96 0 0 0 6.57 17.62a1.96 1.96 0 0 0 1.958 1.958 1.96 1.96 0 0 0 1.957-1.958 1.96 1.96 0 0 0-1.948-1.958h9.16a1.96 1.96 0 0 0-1.948 1.958 1.96 1.96 0 0 0 1.958 1.958 1.96 1.96 0 0 0 1.958-1.958 1.96 1.96 0 0 0-1.948-1.958h1.295a.652.652 0 1 0 0-1.305H7.222a.653.653 0 0 1 0-1.305z"/></g></g></svg>