<svg xmlns="http://www.w3.org/2000/svg" width="30" height="28" viewBox="0 0 30 28"><g><g><g/><g><path fill="#b99977" d="M9.727 18.398h15.879c.393 0 .738-.26.844-.637l3.516-12.305a.878.878 0 0 0-.845-1.12H7.698l-.629-2.828A.879.879 0 0 0 6.211.82H.879a.879.879 0 1 0 0 1.758h4.627L8.679 16.86a2.639 2.639 0 0 0-1.59 2.417 2.64 2.64 0 0 0 2.638 2.637h15.879a.878.878 0 1 0 0-1.758H9.726a.88.88 0 0 1 0-1.758z"/></g><g><path fill="#b99977" d="M8.85 24.547a2.64 2.64 0 0 0 2.637 2.636 2.64 2.64 0 0 0 2.637-2.636 2.64 2.64 0 0 0-2.637-2.637 2.64 2.64 0 0 0-2.637 2.637z"/></g><g><path fill="#b99977" d="M21.21 24.547a2.64 2.64 0 0 0 2.637 2.636 2.64 2.64 0 0 0 2.636-2.636 2.64 2.64 0 0 0-2.636-2.637 2.64 2.64 0 0 0-2.637 2.637z"/></g></g></g></svg>