<svg xmlns="http://www.w3.org/2000/svg" width="99" height="81" viewBox="0 0 99 81"><g><g><g><path fill="#e2d9cf" d="M84.617 36.932c14.268-14.707 8.66-30.528-12.526-35.33C50.9-3.203 22.152 4.83 7.88 19.54c-11.812 12.17-9.972 25.085 3.013 31.906a2.63 2.63 0 0 0 2.748-.18l32.605-23.027L49.38 51.64c.098.741.51 1.409 1.13 1.832a2.64 2.64 0 0 0 2.12.379c12.558-3.104 24.346-9.05 31.987-16.92z"/></g><g><path fill="#e2d9cf" d="M98.805 44.608c-.034-.239-2.003-8.31-3.801-15.668-1.499 3.705-4.184 7.196-7.388 10.904C77.023 52.097 58.95 56.881 52.489 58.252a2.634 2.634 0 0 0-2.068 2.911l2.217 17.314c.09.713.467 1.354 1.042 1.785a2.625 2.625 0 0 0 2.007.483 94.282 94.282 0 0 0 5.176-1c5.91-1.335 41.04-13.707 37.942-35.137z"/></g><g><path fill="#e2d9cf" d="M44.912 49.752c-.578.751-.942 1.844-.942 3.062 0 1.16.333 2.202.862 2.95L28.038 67.598c-.374-.523-.88-.848-1.44-.848-1.153 0-2.086 1.36-2.086 3.041 0 .097.014.187.02.279l-7.848 5.534c-.957.67-2.24.638-3.156-.09-3.008-2.38-5.348-5.534-6.629-9.691L4.312 55.309a1.461 1.461 0 0 1 2.21-1.58 33.532 33.532 0 0 0 4.094 2.233l.701.324.51 2.702c1.064-.347 2.096-1.567 2.456-3.055l22.891-16.169c.377.275.802.43 1.25.43 1.356 0 2.486-1.395 2.754-3.253a1.37 1.37 0 0 1 2.15.94zM16.2 67.314c0-1.68-.935-3.039-2.088-3.039-.337 0-.833.237-1.198.505l1.049 5.594c.075-.01.134-.017.149-.017 1.155 0 2.088-1.36 2.088-3.043zM24.514 57c0-2.265-1.26-4.098-2.813-4.098-1.553 0-2.813 1.833-2.813 4.098 0 2.265 1.26 4.1 2.813 4.1 1.55 0 2.81-1.838 2.813-4.1zm6.595 4.18c0-.844-.47-1.526-1.049-1.526-.578 0-1.046.684-1.046 1.526 0 .843.468 1.525 1.046 1.525.58 0 1.049-.682 1.049-1.525zm2.09-10.453c0-.841-.468-1.525-1.046-1.525-.58 0-1.046.686-1.046 1.525 0 .844.466 1.526 1.046 1.526.578 0 1.044-.682 1.047-1.526zm7.311 0c0-1.678-.935-3.04-2.088-3.04-1.152 0-2.087 1.362-2.087 3.04 0 1.683.935 3.044 2.087 3.044 1.155 0 2.088-1.363 2.088-3.044z"/></g></g></g></svg>