<svg xmlns="http://www.w3.org/2000/svg" width="21" height="29" viewBox="0 0 21 29"><g><g><path fill="#e2d9cf" d="M20.608 18.49c0 2.832-1.16 5.43-3.017 7.288a10.318 10.318 0 0 1-7.287 3.017c-2.831 0-5.43-1.16-7.287-3.018A10.318 10.318 0 0 1 0 18.49C0 14.452 5.477 6.376 9.097.992c.79-1.3 1.625-1.346 2.414 0 3.62 5.384 9.097 13.414 9.097 17.498zm-1.578.465c.046-.697-.464-1.254-1.16-1.3-.697-.046-1.254.464-1.3 1.16a6.051 6.051 0 0 1-.928 2.97c-.557.883-1.3 1.625-2.228 2.136-.604.325-.836 1.067-.464 1.717.325.604 1.067.79 1.67.464a8.813 8.813 0 0 0 3.11-3.017c.743-1.253 1.207-2.645 1.3-4.13z"/></g></g></svg>