<svg width="65" height="70" viewBox="0 0 65 70" fill="none" xmlns="http://www.w3.org/2000/svg">
<path d="M48.4553 9.56046C48.1426 9.56046 47.829 9.5693 47.5157 9.5871C44.8314 3.79181 38.9871 0 32.5 0C26.0128 0 20.1686 3.79181 17.4843 9.5871C17.171 9.56943 16.8574 9.56046 16.5447 9.56046C7.42197 9.56046 0 16.9796 0 26.0988C0 29.6899 1.13233 33.1057 3.27461 35.9771C5.06796 38.3808 7.42537 40.2203 10.1533 41.3583V54.5085H21.7573V47.8478H25.8368V54.5085H39.1632V47.8478H43.2427V54.5085H54.8465V41.3583C57.5746 40.2203 59.932 38.3808 61.7254 35.9771C63.8677 33.1057 65 29.6899 65 26.0988C65 16.9796 57.578 9.56046 48.4553 9.56046V9.56046Z" fill="#E2D9CF"/>
<path d="M10.1533 58.9896H54.8464V70H10.1533V58.9896Z" fill="#E2D9CF"/>
</svg>
