<svg width="22" height="22" viewBox="0 0 22 22" fill="none" xmlns="http://www.w3.org/2000/svg">
<g clip-path="url(#clip0)">
<path d="M11.0435 12.676C11.969 12.676 12.7193 11.9257 12.7193 11.0002C12.7193 10.0747 11.969 9.32446 11.0435 9.32446C10.1181 9.32446 9.3678 10.0747 9.3678 11.0002C9.3678 11.9257 10.1181 12.676 11.0435 12.676Z" fill="#B99977"/>
<path d="M11.0435 6.10181C8.34253 6.10181 6.14514 8.2992 6.14514 11.0001C6.14514 13.7011 8.34253 15.8985 11.0435 15.8985C13.7444 15.8985 15.9418 13.7011 15.9418 11.0001C15.9418 8.2992 13.7444 6.10181 11.0435 6.10181ZM11.0435 14.1798C9.29021 14.1798 7.86386 12.7534 7.86386 11.0001C7.86386 9.24688 9.29021 7.82052 11.0435 7.82052C12.7967 7.82052 14.2231 9.24688 14.2231 11.0001C14.2231 12.7534 12.7967 14.1798 11.0435 14.1798Z" fill="#B99977"/>
<path d="M21.4435 9.12434C20.9872 8.42369 19.6998 6.62497 17.6041 5.05806C15.4798 3.46972 13.2644 2.66431 11.0193 2.66431C8.7774 2.66431 6.56003 3.46752 4.42877 5.05157C2.32381 6.61607 1.02602 8.41256 0.56574 9.11231C-0.18858 10.2591 -0.18858 11.7411 0.56574 12.8879C1.02602 13.5877 2.32381 15.3841 4.42877 16.9486C6.56003 18.5327 8.77736 19.3359 11.0193 19.3359C14.4708 19.3359 17.2462 17.4114 18.9667 15.797C19.3128 15.4723 19.3301 14.9285 19.0054 14.5823C18.6806 14.2362 18.1368 14.2189 17.7907 14.5437C16.2964 15.9458 13.9086 17.6172 11.0192 17.6172C6.84677 17.6172 3.38768 14.0508 2.00155 11.9434C1.62462 11.3704 1.62462 10.6299 2.00155 10.0569C3.38768 7.94953 6.84677 4.38311 11.0192 4.38311C15.1915 4.38311 18.6295 7.95296 20.0032 10.0623C20.3742 10.632 20.3742 11.3683 20.0032 11.938C19.7442 12.3357 19.8567 12.8681 20.2544 13.1271C20.6521 13.386 21.1845 13.2736 21.4435 12.8759C22.1855 11.7364 22.1855 10.2638 21.4435 9.12434Z" fill="#B99977"/>
</g>
<defs>
<clipPath id="clip0">
<rect width="22" height="22" fill="white"/>
</clipPath>
</defs>
</svg>
