<svg xmlns="http://www.w3.org/2000/svg" width="19" height="19" viewBox="0 0 19 19"><g><g transform="rotate(90 9.5 9.5)"><g/><g><g><g><path fill="#fff" d="M3.038 7.402V.37H1.45v7.032a2.247 2.247 0 0 0 0 4.2v7.032h1.588v-7.032a2.248 2.248 0 0 0 1.451-2.1c0-.959-.604-1.778-1.451-2.1z"/></g></g><g><g><path fill="#fff" d="M10.29 4.027V.37H8.7v3.657a2.25 2.25 0 0 0-1.451 2.1 2.25 2.25 0 0 0 1.451 2.1v10.407h1.588V8.227a2.25 2.25 0 0 0 1.451-2.1c0-.958-.603-1.778-1.45-2.1z"/></g></g><g><g><path fill="#fff" d="M19 11.678a2.25 2.25 0 0 0-1.45-2.1V.37h-1.589v9.209a2.25 2.25 0 0 0-1.451 2.1 2.25 2.25 0 0 0 1.451 2.1v4.855h1.59v-4.856a2.25 2.25 0 0 0 1.45-2.1z"/></g></g></g></g></g></svg>