<svg xmlns="http://www.w3.org/2000/svg" width="24" height="32" viewBox="0 0 24 32"><g><g><g><path fill="#e2d9cf" d="M2.11 10.56v14.846c-.002.384.207.739.544.924l8.45 4.695c.32.174.705.174 1.025 0l8.45-4.695c.337-.185.545-.54.543-.924V10.56h-2.64v13.604c0 .191-.103.367-.27.46l-6.337 3.523a.56.56 0 0 1-.518 0L5.02 24.624a.529.529 0 0 1-.27-.46V10.56z"/></g><g><path fill="#e2d9cf" d="M5.81 10.56v13.293l5.81 3.227 5.809-3.227V10.56z"/></g><g><path fill="#e2d9cf" d="M1.848 9.504a1.848 1.848 0 1 1 0-3.696h3.223l5.846-5.53a1.026 1.026 0 0 1 1.397-.006l5.853 5.536h3.222a1.848 1.848 0 0 1 0 3.696zM6.6 5.808h10.03l-5.036-4.763z"/></g></g></g></svg>