<svg xmlns="http://www.w3.org/2000/svg" width="22" height="35" viewBox="0 0 22 35"><g><g><path fill="#e2d9cf" d="M2.546 2.747a1.008 1.008 0 0 1 .868-1.82L7.88 3.06A7.649 7.649 0 0 1 10.59 5.16a10.777 10.777 0 0 1 1.332-2.466l-1.095-.91A1.008 1.008 0 0 1 12.116.232l3.718 3.092a1.008 1.008 0 0 1-1.289 1.55l-1.066-.887c-1.5 2.16-1.482 3.918-1.472 4.913l.002.217A5.17 5.17 0 0 0 11 9.893a5.17 5.17 0 0 0-1.008-.775c0-.05.003-.105.005-.167.024-.54.069-1.537-1.364-2.95a2.734 2.734 0 0 1-2.609 1.924 2.734 2.734 0 0 1-2.73-2.73c0-.678.248-1.299.658-1.777zM5.31 5.195a.715.715 0 0 0 1.428 0 .714.714 0 0 0-1.428 0zm4.53 6.414a5.194 5.194 0 0 0-.153 3.551 5.187 5.187 0 0 0-2.337 1.335 5.206 5.206 0 0 0-3.029-1.98c-.617-2.028.907-4.098 3.04-4.098 1.001 0 1.897.466 2.48 1.192zM7.373 29.063c-2.31 0-3.835-2.364-2.923-4.446a5.186 5.186 0 0 0 2.378-1.345 5.2 5.2 0 0 0 3.2 2.013 5.202 5.202 0 0 0 .167 2.037 3.181 3.181 0 0 1-2.822 1.74zm6.8 1.917c.106 1.78-1.329 3.347-3.173 3.347-1.839 0-3.249-1.558-3.175-3.269a5.18 5.18 0 0 0 3.448-1.761 5.185 5.185 0 0 0 2.9 1.683zm-2.104-5.713a5.2 5.2 0 0 0 3.105-1.995 5.18 5.18 0 0 0 2.971 1.458c.816 2.091-.74 4.333-2.96 4.333a3.178 3.178 0 0 1-3.116-3.796zm2.581-8.772a5.184 5.184 0 0 0-2.831-1.439c-1.098-2.105.443-4.638 2.82-4.639 2.13 0 3.659 2.066 3.04 4.099a5.206 5.206 0 0 0-3.029 1.979zM3.177 22.759A3.18 3.18 0 0 1 0 19.582a3.18 3.18 0 0 1 3.177-3.177c1.323 0 2.472.816 2.947 1.991a5.197 5.197 0 0 0-.216 2.808 3.18 3.18 0 0 1-2.731 1.555zm12.7-4.363A3.182 3.182 0 0 1 19 16.41c1.67.092 3 1.48 3 3.172a3.18 3.18 0 0 1-3.177 3.176 3.179 3.179 0 0 1-2.73-1.554 5.197 5.197 0 0 0-.217-2.808zm-8.053 1.788A3.18 3.18 0 0 1 11 17.008a3.18 3.18 0 0 1 3.177 3.176A3.18 3.18 0 0 1 11 23.361a3.181 3.181 0 0 1-3.177-3.177z"/></g></g></svg>