<svg xmlns="http://www.w3.org/2000/svg" width="20" height="17" viewBox="0 0 20 17"><defs><linearGradient id="tp7ua" x1="10" x2="10" y1="0" y2="17" gradientUnits="userSpaceOnUse"><stop offset="0" stop-color="#f3f7ff"/><stop offset="1" stop-color="#c3c7d2"/></linearGradient></defs><g><g><path fill="url(#tp7ua)" d="M10 17c-.285 0-.56-.099-.773-.278-.808-.675-1.587-1.309-2.274-1.868l-.004-.003c-2.015-1.64-3.755-3.058-4.965-4.453C.63 8.838 0 7.358 0 5.743c0-1.57.564-3.02 1.587-4.08C2.622.592 4.043 0 5.587 0 6.742 0 7.8.349 8.73 1.036c.47.347.895.772 1.27 1.268.375-.496.8-.92 1.27-1.268A5.182 5.182 0 0 1 14.414 0c1.544 0 2.965.59 4 1.664C19.438 2.724 20 4.172 20 5.743c0 1.616-.63 3.095-1.984 4.655-1.21 1.396-2.95 2.812-4.964 4.452-.689.56-1.47 1.196-2.279 1.873A1.206 1.206 0 0 1 10 17z"/></g></g></svg>