<svg width="22" height="22" viewBox="0 0 22 22" fill="none" xmlns="http://www.w3.org/2000/svg">
<g clip-path="url(#clip0)">
<path d="M21.7483 20.5329L17.2196 16.0041C17.2127 15.9969 17.2057 15.9899 17.1986 15.983L6.02738 4.81181C6.01981 4.80395 6.01216 4.7963 6.00434 4.78878L1.46777 0.252211C1.13214 -0.0834193 0.588069 -0.0834193 0.252482 0.252211C-0.0831053 0.587841 -0.0831483 1.13191 0.252482 1.4675L4.09339 5.30841C2.13559 6.84983 0.921852 8.57108 0.565768 9.11244C-0.188508 10.2592 -0.188508 11.7412 0.565768 12.888C1.02605 13.5877 2.32384 15.3842 4.42876 16.9487C6.55998 18.5327 8.77734 19.3359 11.0192 19.3359C12.8671 19.3359 14.7028 18.7861 16.4851 17.7002L20.5331 21.7482C20.7009 21.916 20.9208 21.9999 21.1407 21.9999C21.3607 21.9999 21.5806 21.916 21.7484 21.7482C22.084 21.4125 22.084 20.8684 21.7483 20.5329ZM8.22756 9.44253L9.41002 10.625C9.28575 11.1684 9.43524 11.7618 9.85853 12.1851C10.2818 12.6084 10.8751 12.7578 11.4186 12.6336L12.5585 13.7735C12.0881 14.0387 11.5552 14.1798 11.0005 14.1798C9.24721 14.1798 7.8209 12.7534 7.8209 11.0002C7.82085 10.4476 7.96231 9.91369 8.22756 9.44253ZM11.0192 17.6171C6.84679 17.6171 3.38775 14.0507 2.00162 11.9434C1.62469 11.3704 1.62469 10.6299 2.00162 10.0569C2.32908 9.55906 3.47068 7.94141 5.31809 6.53315L6.98236 8.19742C6.41074 9.0146 6.10214 9.98703 6.10214 11.0002C6.10214 13.7011 8.29949 15.8984 11.0004 15.8984C12.0176 15.8984 12.9875 15.5904 13.8036 15.0186L15.2287 16.4438C13.8359 17.223 12.4239 17.6171 11.0192 17.6171Z" fill="#B99977"/>
<path d="M21.4568 9.14574C21.4523 9.13856 21.4478 9.13139 21.4432 9.12425C20.9869 8.42365 19.6995 6.62492 17.6039 5.05802C15.4796 3.46967 13.2642 2.66431 11.0191 2.66431C10.1646 2.66431 9.29842 2.78509 8.44467 3.02323C7.98748 3.1508 7.7203 3.62479 7.84779 4.08189C7.97532 4.53904 8.44914 4.80618 8.90645 4.67878C9.60985 4.48254 10.3207 4.38306 11.0191 4.38306C15.1738 4.38306 18.6003 7.92271 19.9855 10.0353C19.9899 10.0425 19.9944 10.0497 19.9991 10.0568C20.1837 10.3374 20.2813 10.6636 20.2813 11C20.2813 11.3365 20.1837 11.6626 19.9991 11.9433C19.5858 12.5717 19.0318 13.261 18.4393 13.8844C18.1123 14.2284 18.1261 14.7723 18.4701 15.0993C18.6364 15.2573 18.8494 15.3358 19.062 15.3358C19.2892 15.3358 19.5161 15.2462 19.685 15.0684C20.5319 14.1776 21.1042 13.3908 21.4351 12.8877C21.8047 12.3257 22 11.673 22 10.9999C22 10.3403 21.8123 9.70004 21.4568 9.14574Z" fill="#B99977"/>
<path d="M15.7847 9.94552C15.3808 8.10602 13.9335 6.64567 12.0974 6.22518C11.6348 6.11943 11.1739 6.4084 11.0679 6.871C10.962 7.33365 11.2512 7.79453 11.7138 7.9005C12.9049 8.17326 13.8439 9.12064 14.1059 10.3141C14.1941 10.7156 14.5497 10.9893 14.9445 10.9893C15.0055 10.9893 15.0675 10.9828 15.1296 10.9691C15.5932 10.8674 15.8864 10.4091 15.7847 9.94552Z" fill="#B99977"/>
</g>
<defs>
<clipPath id="clip0">
<rect width="22" height="22" fill="white"/>
</clipPath>
</defs>
</svg>
