<svg width="20" height="23" viewBox="0 0 20 23" fill="none" xmlns="http://www.w3.org/2000/svg">
<path fill-rule="evenodd" clip-rule="evenodd" d="M4.49943 6.11382C4.49943 2.98223 7.05936 0.422302 10.1909 0.422302C13.3225 0.422302 15.8825 2.98223 15.8825 6.11382C15.8825 9.24542 13.3225 11.8053 10.1909 11.8053C7.05936 11.8053 4.49943 9.24542 4.49943 6.11382ZM19.3873 15.3097C19.611 15.6328 19.8098 15.9808 19.9589 16.3536C20.0335 16.5027 20.0086 16.6767 19.8844 16.8258C19.6856 17.1738 19.4619 17.4969 19.2134 17.82C18.8654 18.2922 18.4678 18.7147 18.0701 19.1124C17.7221 19.4603 17.3245 19.8083 16.9268 20.1065C14.9634 21.5729 12.6023 22.3433 10.1666 22.3433C7.73093 22.3433 5.3698 21.5729 3.40638 20.1065C3.00868 19.7834 2.61103 19.4603 2.26309 19.1124C1.84056 18.7147 1.46774 18.2922 1.1198 17.82C0.896118 17.5218 0.647604 17.1738 0.448754 16.8258C0.37421 16.6767 0.349377 16.5027 0.423922 16.3536C0.573012 16.0057 0.771861 15.6328 0.995543 15.3097C2.11395 13.6197 3.90341 12.5012 5.89171 12.2279C6.14023 12.1781 6.41362 12.2527 6.61247 12.4018C7.65634 13.1723 8.899 13.5699 10.1914 13.5699C11.4839 13.5699 12.7265 13.1723 13.7704 12.4018C13.9692 12.2527 14.2426 12.203 14.4911 12.2279C16.4794 12.5012 18.244 13.6197 19.3873 15.3097Z" fill="url(#paint0_linear)"/>
<defs>
<linearGradient id="paint0_linear" x1="10.1899" y1="0.422302" x2="10.1899" y2="22.3433" gradientUnits="userSpaceOnUse">
<stop stop-color="#F3F7FF"/>
<stop offset="1" stop-color="#C3C7D2"/>
</linearGradient>
</defs>
</svg>
