<?xml version="1.0" encoding="utf-8"?>
<svg xmlns="http://www.w3.org/2000/svg" xmlns:xlink="http://www.w3.org/1999/xlink" style="margin: auto; display: block; shape-rendering: auto;" width="201px" height="201px" viewBox="0 0 100 100" preserveAspectRatio="xMidYMid">
<g transform="rotate(0 50 50)">
  <rect x="41.5" y="12.5" rx="0" ry="0" width="17" height="11" fill="#f98e3c">
    <animate attributeName="opacity" values="1;0" keyTimes="0;1" dur="1.1904761904761905s" begin="-1.0416666666666665s" repeatCount="indefinite"></animate>
  </rect>
</g><g transform="rotate(45 50 50)">
  <rect x="41.5" y="12.5" rx="0" ry="0" width="17" height="11" fill="#f98e3c">
    <animate attributeName="opacity" values="1;0" keyTimes="0;1" dur="1.1904761904761905s" begin="-0.8928571428571428s" repeatCount="indefinite"></animate>
  </rect>
</g><g transform="rotate(90 50 50)">
  <rect x="41.5" y="12.5" rx="0" ry="0" width="17" height="11" fill="#f98e3c">
    <animate attributeName="opacity" values="1;0" keyTimes="0;1" dur="1.1904761904761905s" begin="-0.744047619047619s" repeatCount="indefinite"></animate>
  </rect>
</g><g transform="rotate(135 50 50)">
  <rect x="41.5" y="12.5" rx="0" ry="0" width="17" height="11" fill="#f98e3c">
    <animate attributeName="opacity" values="1;0" keyTimes="0;1" dur="1.1904761904761905s" begin="-0.5952380952380952s" repeatCount="indefinite"></animate>
  </rect>
</g><g transform="rotate(180 50 50)">
  <rect x="41.5" y="12.5" rx="0" ry="0" width="17" height="11" fill="#f98e3c">
    <animate attributeName="opacity" values="1;0" keyTimes="0;1" dur="1.1904761904761905s" begin="-0.4464285714285714s" repeatCount="indefinite"></animate>
  </rect>
</g><g transform="rotate(225 50 50)">
  <rect x="41.5" y="12.5" rx="0" ry="0" width="17" height="11" fill="#f98e3c">
    <animate attributeName="opacity" values="1;0" keyTimes="0;1" dur="1.1904761904761905s" begin="-0.2976190476190476s" repeatCount="indefinite"></animate>
  </rect>
</g><g transform="rotate(270 50 50)">
  <rect x="41.5" y="12.5" rx="0" ry="0" width="17" height="11" fill="#f98e3c">
    <animate attributeName="opacity" values="1;0" keyTimes="0;1" dur="1.1904761904761905s" begin="-0.1488095238095238s" repeatCount="indefinite"></animate>
  </rect>
</g><g transform="rotate(315 50 50)">
  <rect x="41.5" y="12.5" rx="0" ry="0" width="17" height="11" fill="#f98e3c">
    <animate attributeName="opacity" values="1;0" keyTimes="0;1" dur="1.1904761904761905s" begin="0s" repeatCount="indefinite"></animate>
  </rect>
</g>
<!-- [ldio] generated by https://loading.io/ --></svg>