<svg xmlns="http://www.w3.org/2000/svg" width="18" height="32" viewBox="0 0 18 32"><g><g><path fill="#e2d9cf" d="M9.333 28.013c3.344.136 6.667 1.29 6.667 3.32a.667.667 0 0 1-.667.667H2a.667.667 0 0 1-.667-.665c0-2.031 3.322-3.184 6.667-3.32V17.3c-4.468-.343-8-4.08-8-8.633C0 6.353 1.497 2.137 2.141.43A.667.667 0 0 1 2.765 0h11.902c.292 0 .548.19.636.467l.288.9c.736 2.285 1.742 5.414 1.742 7.298 0 4.555-3.532 8.291-8 8.634zm6.634-18.68c.02-.22.033-.441.033-.666 0-1.675-1.01-4.814-1.679-6.89l-.141-.444H3.228c-.944 2.564-1.895 5.715-1.895 7.334 0 .225.014.446.034.666z"/></g></g></svg>