<svg width="24" height="26" viewBox="0 0 24 26" fill="none" xmlns="http://www.w3.org/2000/svg">
<path d="M12.7617 16.0469V21.3789H16.3808C16.9447 19.8223 17.3392 18.0062 17.5432 16.0469H12.7617Z" fill="#E2D9CF"/>
<path d="M19.0741 16.0469C18.8838 17.9756 18.5165 19.7839 17.9907 21.3789H22.0266C22.5151 19.8845 22.9753 18.0676 23.2268 16.0469H19.0741Z" fill="#E2D9CF"/>
<path d="M0.773193 16.0469C1.02471 18.0676 1.48489 19.8845 1.97341 21.3789H6.00925C5.48351 19.7839 5.11626 17.9756 4.92588 16.0469H0.773193Z" fill="#E2D9CF"/>
<path d="M11.2382 16.0469H6.45679C6.66078 18.0062 7.05524 19.8223 7.61917 21.3789H11.2382V16.0469Z" fill="#E2D9CF"/>
<path d="M23.4258 13C23.4258 12.4827 23.4037 11.9766 23.372 11.4766H0.628047C0.596258 11.9766 0.574219 12.4827 0.574219 13C0.574219 13.5173 0.596258 14.0234 0.628047 14.5234H23.372C23.4037 14.0234 23.4258 13.5173 23.4258 13Z" fill="#E2D9CF"/>
<path d="M3.93592 26H20.0644C20.4847 25.2363 20.8806 24.4584 21.4844 22.9023H2.51587C3.09208 24.3874 3.50189 25.2111 3.93592 26V26Z" fill="#E2D9CF"/>
<path d="M20.0645 0H3.93592C3.51565 0.763648 3.11971 1.54157 2.51587 3.09766H21.4844C20.9083 1.61261 20.4985 0.788785 20.0645 0Z" fill="#E2D9CF"/>
<path d="M0.773193 9.95312H4.92593C5.11626 8.02435 5.48356 6.21613 6.0093 4.62109H1.97346C1.48489 6.11554 1.02471 7.93244 0.773193 9.95312V9.95312Z" fill="#E2D9CF"/>
<path d="M12.7617 9.95312H17.5432C17.3392 7.99378 16.9447 6.17774 16.3808 4.62109H12.7617V9.95312Z" fill="#E2D9CF"/>
<path d="M11.2382 9.95312V4.62109H7.61917C7.05524 6.17774 6.66078 7.99378 6.45679 9.95312H11.2382Z" fill="#E2D9CF"/>
<path d="M23.2268 9.95312C22.9753 7.93244 22.5151 6.11554 22.0266 4.62109H17.9907C18.5165 6.21613 18.8837 8.02435 19.0741 9.95312H23.2268Z" fill="#E2D9CF"/>
</svg>
