<svg width="24" height="32" viewBox="0 0 24 32" fill="none" xmlns="http://www.w3.org/2000/svg">
<path d="M2.1123 10.5603L2.11232 25.4059C2.11055 25.7904 2.31928 26.145 2.65628 26.3301L11.1063 31.0252C11.4256 31.1994 11.8116 31.1994 12.1308 31.0252L20.5809 26.3301C20.9179 26.145 21.1266 25.7904 21.1248 25.4059L21.1248 10.5603H18.4842V24.1648C18.4838 24.3553 18.3809 24.5309 18.2149 24.6243L11.8773 28.1469C11.7152 28.2314 11.522 28.2314 11.3598 28.1469L5.02229 24.6243C4.85625 24.5309 4.75335 24.3553 4.75294 24.1648V10.5603H2.1123Z" fill="#E2D9CF"/>
<path d="M5.80957 10.5603V23.8532L11.6189 27.0801L17.4283 23.8532V10.5603H5.80957Z" fill="#E2D9CF"/>
<path d="M21.3891 9.50449C22.4099 9.50449 23.2375 8.67692 23.2375 7.65606C23.2375 6.63519 22.4099 5.80762 21.3891 5.80762H18.1667L12.314 0.271599C11.9188 -0.0926962 11.3095 -0.0902308 10.9174 0.27725L5.07085 5.80762H1.84844C0.827574 5.80762 0 6.63519 0 7.65606C0 8.67692 0.827574 9.50449 1.84844 9.50449H21.3891ZM11.594 1.04467L16.6292 5.80762H6.60009L11.594 1.04467Z" fill="#E2D9CF"/>
</svg>
