<svg width="28" height="28" viewBox="0 0 28 28" fill="none" xmlns="http://www.w3.org/2000/svg">
<path d="M0.0402032 10.7877C0.136672 10.4907 0.393319 10.2742 0.702302 10.2294L9.38243 8.96801L13.2644 1.1025C13.4025 0.822505 13.6877 0.645264 14 0.645264C14.3122 0.645264 14.5974 0.822505 14.7356 1.1025L18.6177 8.96801L27.2977 10.2294C27.6066 10.2742 27.8633 10.4907 27.9598 10.7876C28.0563 11.0846 27.9758 11.4106 27.7522 11.6285L21.4715 17.751L22.954 26.3961C23.0068 26.7039 22.8802 27.0149 22.6276 27.1985C22.4847 27.3023 22.3155 27.3551 22.1454 27.3551C22.0148 27.3551 21.8838 27.324 21.7638 27.2609L14 23.1791L6.23655 27.2608C5.9601 27.4061 5.62525 27.3819 5.37265 27.1984C5.12005 27.0149 4.99345 26.7038 5.04622 26.396L6.52918 17.751L0.247742 11.6285C0.0241805 11.4106 -0.0563746 11.0846 0.0402032 10.7877Z" fill="#E2D9CF"/>
</svg>
