<svg width="21" height="29" viewBox="0 0 21 29" fill="none" xmlns="http://www.w3.org/2000/svg">
<path d="M11.5108 0.992186C10.7217 -0.353834 9.88628 -0.307419 9.09724 0.992186C5.47691 6.37626 0 14.4524 0 18.4904C0 21.3217 1.16036 23.9209 3.01694 25.7775C4.87352 27.6341 7.47273 28.7945 10.304 28.7945C13.1353 28.7945 15.7345 27.6341 17.5911 25.7775C19.4477 23.9209 20.608 21.3217 20.608 18.4904C20.608 14.406 15.1311 6.37626 11.5108 0.992186ZM17.7303 23.0855C16.9877 24.2922 15.9202 25.3598 14.6206 26.1024C14.0172 26.4273 13.2745 26.2417 12.9496 25.6383C12.5783 24.9885 12.8104 24.2458 13.4138 23.9209C14.3421 23.4104 15.0847 22.6677 15.6417 21.7859C16.1986 20.904 16.5235 19.8829 16.57 18.8153C16.6164 18.1191 17.1734 17.6086 17.8696 17.655C18.5658 17.7014 19.0763 18.2584 19.0299 18.9546C18.9371 20.4398 18.473 21.8323 17.7303 23.0855Z" fill="#E2D9CF"/>
</svg>
