<svg width="30" height="30" viewBox="0 0 30 30" fill="none" xmlns="http://www.w3.org/2000/svg">
<path d="M29.415 0.584679C28.635 -0.194737 27.3662 -0.195274 26.5792 0.593197L10.6325 17.3004C8.40916 16.39 5.27643 17.2389 2.80963 19.6072C1.02826 21.3176 -0.0216413 23.5289 0.0003384 25.5233C0.0153489 26.8522 0.500273 27.9926 1.40323 28.821C2.27015 29.6164 3.4231 30.0004 4.6825 30.0004C6.61034 30.0004 8.78865 29.1005 10.571 27.4006C12.2504 25.7992 13.2673 23.6514 13.2913 21.6551C13.3003 20.8972 13.1593 20.1872 12.8924 19.5568L29.415 3.4125C30.1949 2.63356 30.1949 1.36463 29.415 0.584679ZM4.85291 21.853C4.06146 22.6449 3.48701 23.5854 3.23606 24.5018C3.03306 25.2407 3.0781 25.8707 3.35305 26.1457C3.54855 26.3406 3.54855 26.6571 3.35353 26.8526C3.25554 26.9501 3.12753 26.9991 2.99953 26.9991C2.87152 26.9991 2.74357 26.95 2.64607 26.8526C2.10158 26.3086 1.96511 25.3552 2.27158 24.2378C2.56803 23.1559 3.2335 22.0585 4.14593 21.146C4.34142 20.9505 4.65736 20.9505 4.85285 21.146C5.04841 21.3416 5.04841 21.6575 4.85291 21.853Z" fill="#E2D9CF"/>
</svg>
