<svg width="22" height="35" viewBox="0 0 22 35" fill="none" xmlns="http://www.w3.org/2000/svg">
<path fill-rule="evenodd" clip-rule="evenodd" d="M3.95221 3.41825L2.54553 2.74685C2.04348 2.50689 1.83038 1.90543 2.07027 1.4027C2.31022 0.900576 2.91243 0.687545 3.41448 0.9275L7.87919 3.05936C8.9391 3.54863 9.86392 4.27246 10.5904 5.16033C10.9869 4.11207 11.5083 3.26735 11.9223 2.69408L10.8269 1.78333C10.3988 1.42733 10.3403 0.791738 10.6963 0.363589C11.0524 -0.0645611 11.6879 -0.122918 12.116 0.232943L15.8344 3.32456C16.2625 3.68055 16.321 4.31615 15.965 4.7443C15.6092 5.17225 14.9736 5.23107 14.5453 4.87494L13.4786 3.98802L13.4785 3.98815C11.9782 6.14848 11.9966 7.90632 12.007 8.90103C12.0078 8.97808 12.0086 9.05055 12.0086 9.11828C11.6301 9.3406 11.2853 9.61091 11.0004 9.8932C10.6987 9.59549 10.3599 9.33467 9.99227 9.11828C9.99227 9.06853 9.99474 9.01284 9.99747 8.95126C10.0215 8.41018 10.0656 7.41432 8.63264 6.00041C8.28856 7.1141 7.24945 7.9253 6.02424 7.9253C4.51875 7.9253 3.29353 6.70008 3.29353 5.19459C3.29353 4.51713 3.54224 3.89614 3.95221 3.41825ZM5.30989 5.19466C5.30989 5.58848 5.63048 5.90907 6.0243 5.90907C6.41813 5.90907 6.73804 5.58848 6.73811 5.19466C6.73811 4.79687 6.41389 4.48085 6.0243 4.48085C5.63048 4.48085 5.30989 4.80077 5.30989 5.19466ZM7.36156 10.4175C5.22754 10.4175 3.70374 12.4866 4.32096 14.5159C5.55291 14.7942 6.6209 15.5113 7.35012 16.4946C7.98928 15.8621 8.79113 15.3944 9.68701 15.1605C9.32859 14.0282 9.3609 12.7631 9.84027 11.6091C9.25758 10.8832 8.36237 10.4175 7.36156 10.4175ZM10.1948 27.3219C10.0096 26.6884 9.94577 25.9693 10.0275 25.2854C8.72358 25.0374 7.59044 24.3002 6.82764 23.2718C6.17905 23.9137 5.36179 24.3868 4.44976 24.6167C3.5382 26.6993 5.06301 29.0626 7.3727 29.0626C8.60324 29.0579 9.67122 28.3509 10.1948 27.3219ZM11.2732 29.2967C10.417 30.2787 9.19711 30.9366 7.82536 31.0582C7.75098 32.7686 9.16143 34.3274 11.0004 34.3274C12.8444 34.3274 14.2787 32.7593 14.1727 30.9796C13.0261 30.7525 12.0132 30.1462 11.2732 29.2967ZM12.0694 25.2669C13.352 24.9975 14.441 24.2605 15.1738 23.2721C15.9602 24.0503 16.9945 24.58 18.1451 24.7305C18.961 26.8211 17.4059 29.0629 15.1859 29.0629C13.1815 29.0629 11.6808 27.2297 12.0694 25.2669ZM14.6504 16.4946C13.8801 15.7324 12.8968 15.2294 11.8189 15.0563C10.7211 12.9513 12.2619 10.4176 14.639 10.4175C16.7683 10.4175 18.298 12.4829 17.6796 14.5159C16.4477 14.7942 15.3797 15.5113 14.6504 16.4946ZM5.90774 21.2041C5.72345 20.302 5.78726 19.3144 6.12414 18.396C5.64935 17.2209 4.50039 16.4052 3.17697 16.4052C1.42317 16.4052 0 17.8321 0 19.5823C0 21.3338 1.42553 22.7586 3.17697 22.7586C4.30742 22.7586 5.33838 22.1591 5.90774 21.2041ZM15.8764 18.3959C16.3903 17.1239 17.6576 16.3326 19.0003 16.4099C20.6699 16.502 22.0006 17.8892 22.0005 19.5822C22.0005 21.3373 20.5709 22.7585 18.8235 22.7585C17.6417 22.7585 16.6341 22.1133 16.0928 21.204C16.2772 20.2819 16.2112 19.3085 15.8764 18.3959ZM11.0007 23.3614C12.754 23.3614 14.1777 21.9355 14.1777 20.1844C14.1777 18.4322 12.751 17.0081 11.0007 17.0081C9.25168 17.0081 7.82367 18.4296 7.82367 20.1844C7.82367 21.9376 9.25114 23.3614 11.0007 23.3614Z" fill="#E2D9CF"/>
</svg>
