<svg width="30" height="30" viewBox="0 0 30 30" fill="none" xmlns="http://www.w3.org/2000/svg">
<path d="M3.403 25.0464L0.321152 28.1282C-0.107051 28.5564 -0.107051 29.2506 0.321152 29.6788C0.749354 30.107 1.44357 30.107 1.87172 29.6788L4.95356 26.5969C4.24575 26.3148 3.68507 25.7541 3.403 25.0464Z" fill="#E2D9CF"/>
<path d="M27.9771 2.27908L27.9495 2.05045L27.7208 2.0228C25.8785 1.79973 23.7407 2.65449 22.1418 4.25346C20.543 5.85248 19.6882 7.99021 19.9112 9.83251L19.9388 10.0611L20.1675 10.0888C20.3612 10.1122 20.5582 10.1238 20.7575 10.1238C22.4534 10.1238 24.3157 9.28888 25.7465 7.85808C27.3454 6.25917 28.2001 4.12139 27.9771 2.27908Z" fill="#E2D9CF"/>
<path d="M20.1445 0.260683C19.797 -0.0868944 19.2335 -0.0868944 18.886 0.260683L16.2264 2.92037C14.8376 3.94411 13.8357 5.77599 13.5703 7.82606C13.28 10.0686 13.9081 12.2836 15.2095 13.6066L15.371 13.7708L15.569 13.6531C17.1642 12.705 18.3356 10.7229 18.6258 8.48043C18.844 6.7944 18.543 5.12401 17.8272 3.83648L20.1445 1.51916C20.492 1.17164 20.492 0.608202 20.1445 0.260683Z" fill="#E2D9CF"/>
<path d="M6.25765 13.4286L6.09616 13.2644L5.89818 13.3821C4.30291 14.3302 3.13156 16.3122 2.84129 18.5548C2.55102 20.7973 3.17914 23.0122 4.48051 24.3353L4.64199 24.4995L4.83998 24.3818C6.43524 23.4336 7.60659 21.4516 7.8968 19.2091C8.18707 16.9666 7.55901 14.7516 6.25765 13.4286Z" fill="#E2D9CF"/>
<path d="M11.6226 8.06384L11.4612 7.89966L11.2632 8.01731C9.6679 8.96542 8.49656 10.9475 8.20628 13.19C7.91601 15.4326 8.54414 17.6475 9.8455 18.9705L10.007 19.1347L10.205 19.0171C11.8002 18.0689 12.9716 16.0868 13.2618 13.8443C13.5521 11.6018 12.924 9.38683 11.6226 8.06384Z" fill="#E2D9CF"/>
<path d="M16.5718 23.7419C15.2488 22.4406 13.0337 21.8125 10.7913 22.1027C8.54884 22.393 6.56674 23.5644 5.61863 25.1596L5.50098 25.3576L5.66516 25.5191C6.77451 26.6103 8.51099 27.2281 10.365 27.2281C10.722 27.2281 11.0835 27.2051 11.4457 27.1583C13.6882 26.868 15.6703 25.6967 16.6184 24.1014L16.736 23.9034L16.5718 23.7419Z" fill="#E2D9CF"/>
<path d="M21.9361 18.3775C20.613 17.0761 18.3978 16.448 16.1556 16.7383C13.9131 17.0286 11.931 18.1999 10.9829 19.7952L10.8652 19.9932L11.0294 20.1547C12.1388 21.2459 13.8752 21.8637 15.7292 21.8637C16.0863 21.8637 16.4478 21.8408 16.8099 21.7939C19.0525 21.5036 21.0345 20.3323 21.9826 18.737L22.1003 18.539L21.9361 18.3775Z" fill="#E2D9CF"/>
<path d="M29.7394 9.8559C29.3918 9.50832 28.8284 9.50832 28.4809 9.8559L26.1636 12.1732C24.876 11.4573 23.2055 11.1563 21.5196 11.3745C19.2771 11.6648 17.295 12.8361 16.3469 14.4314L16.2292 14.6294L16.3934 14.7909C17.5028 15.8821 19.2393 16.4999 21.0932 16.4999C21.4503 16.4999 21.8118 16.477 22.1739 16.4301C24.2241 16.1647 26.056 15.1628 27.0797 13.7739L29.7393 11.1144C30.0869 10.7668 30.0869 10.2034 29.7394 9.8559Z" fill="#E2D9CF"/>
</svg>
