<svg width="20" height="28" viewBox="0 0 20 28" fill="none" xmlns="http://www.w3.org/2000/svg">
<path d="M9.92176 0C4.45087 0 0 4.45087 0 9.92171C0 16.7112 8.87901 26.6785 9.25704 27.0995C9.61212 27.495 10.2321 27.4943 10.5865 27.0995C10.9645 26.6785 19.8435 16.7112 19.8435 9.92171C19.8434 4.45087 15.3926 0 9.92176 0ZM9.92176 14.9136C7.16922 14.9136 4.92993 12.6743 4.92993 9.92171C4.92993 7.16917 7.16928 4.92987 9.92176 4.92987C12.6743 4.92987 14.9135 7.16922 14.9135 9.92176C14.9135 12.6743 12.6743 14.9136 9.92176 14.9136Z" fill="#E2D9CF"/>
</svg>
