<svg width="12" height="32" viewBox="0 0 12 32" fill="none" xmlns="http://www.w3.org/2000/svg">
<path d="M7.95997 9.89507C7.95997 7.86624 7.95997 0 7.95997 0H6.40628H5.20015H3.64605C3.64605 0 3.64605 7.86524 3.64605 9.89507C3.64605 11.9249 0 15.0323 0 16.7755C0 18.5195 0 29.6836 0 30.5401C0 31.3966 0.633829 32 1.29985 32C1.74028 32 3.83499 32 5.20015 32C5.89702 32 6.40628 32 6.40628 32C7.77152 32 9.86624 32 10.3067 32C10.9727 32 11.6054 31.3965 11.6054 30.5401C11.6054 29.6837 11.6054 18.5195 11.6054 16.7755C11.6054 15.0322 7.95997 11.9238 7.95997 9.89507ZM4.57179 12.955C4.27206 13.3828 3.85113 13.9941 3.377 14.7212C2.93506 15.4541 2.38629 16.333 2.18995 17.2862C2.08791 17.7119 2.12204 18.3184 2.10985 18.9024C2.1001 19.4883 2.08884 20.0841 2.07909 20.6778C2.03706 23.0586 1.94385 25.4375 1.83693 27.2227C1.7349 29.0069 1.62992 30.1982 1.62992 30.1982C1.63093 30.1982 1.52595 29.0078 1.42391 27.2227C1.317 25.4375 1.22319 23.0586 1.18218 20.6778C1.17192 20.0831 1.16116 19.4883 1.15091 18.9024C1.16016 18.3185 1.10208 17.7618 1.21487 17.0899C1.48585 15.8439 2.16112 14.9542 2.74704 14.2511C3.34615 13.5499 3.93989 13.068 4.36519 12.7511C4.78317 12.4259 5.05516 12.2824 5.05516 12.2824C5.05516 12.2824 4.87891 12.5269 4.57179 12.955Z" fill="#E2D9CF"/>
</svg>
