<svg width="22" height="27" viewBox="0 0 22 27" fill="none" xmlns="http://www.w3.org/2000/svg">
<path d="M14.7866 18.6541C18.9928 17.6362 22 14.8027 22 10.0424C22 7.87817 19.6508 3.43121 18.3417 0.593638C18.1751 0.2316 17.8135 0 17.4163 0H4.58336C4.18588 0 3.82491 0.2316 3.6582 0.593577C2.3492 3.43115 0 7.87817 0 10.0423C0 14.8026 3.00716 17.6362 7.21348 18.654C7.59294 19.2476 8.65383 20.2292 10.0073 20.5913V23.2459C6.88144 23.5029 4.48457 24.8982 4.48457 25.599C4.48457 26.3733 7.40148 27 11.0001 27C14.5986 27 17.5153 26.3733 17.5153 25.599C17.5153 24.8981 15.1186 23.5029 11.9928 23.2459V20.5913C13.3462 20.2293 14.4071 19.2477 14.7866 18.6541Z" fill="#E2D9CF"/>
</svg>
