<svg width="20" height="24" viewBox="0 0 20 24" fill="none" xmlns="http://www.w3.org/2000/svg">
<path d="M19.5951 0.291562C19.4531 0.107812 19.2342 0 19.0017 0H1.0017C0.511392 0 0.152236 0.463875 0.276079 0.939375C2.56695 9.72577 2.5017 13.7337 2.5017 21.75C2.5017 22.9908 3.51092 24 4.7517 24H15.2517C16.4925 24 17.5017 22.9908 17.5017 21.75C17.5017 16.9425 17.3188 12.0686 18.6919 5.295C19.6177 0.787875 19.9837 0.794297 19.5951 0.291562V0.291562ZM18.0309 1.5C16.6564 6.84558 16.5049 9.80072 16.4048 10.1002V10.102C15.7152 14.9331 15.6936 15.3383 15.1631 16.372C14.9204 16.9185 14.2649 17.76 13.5951 18.2691C11.8859 19.6602 9.21542 19.9632 7.0528 18.7073C5.50278 17.8033 4.49549 16.2331 4.25717 14.5631C3.33134 8.40853 3.16152 6.042 1.98936 1.56563C1.96311 1.46353 0.737235 1.5 18.0309 1.5V1.5Z" fill="#E2D9CF"/>
<path d="M5.73987 14.3377C6.24861 17.6775 10.2511 19.1594 12.8114 16.9584C13.5928 16.2867 14.1085 15.3562 14.2636 14.3372C15.2185 8.05486 15.2468 6.79781 16.118 3H3.8855C4.78076 6.90712 4.75789 7.88311 5.73987 14.3377V14.3377Z" fill="#E2D9CF"/>
</svg>
