<svg width="24" height="26" viewBox="0 0 24 26" fill="none" xmlns="http://www.w3.org/2000/svg">
<path d="M23.1404 1.90852C23.1423 1.8881 23.1429 1.86952 23.1429 1.85714C23.1429 1.18362 22.5492 0.724286 19.514 0.367095C17.5027 0.130619 14.8347 0 12 0C9.16542 0 6.49732 0.130619 4.48603 0.367095C1.45084 0.724286 0.857178 1.18362 0.857178 1.85714C0.857178 1.86952 0.857797 1.8881 0.859654 1.90852L0.862749 1.94938C0.863987 1.96176 0.863987 1.97476 0.865844 1.98714L1.42732 8.71805L2.72856 9.63795C3.24856 10.0286 6.73875 10.5238 12.0508 10.5238C12.8128 10.5238 13.526 10.5133 14.1995 10.496L14.3215 10.382C15.0024 9.74567 16.1458 9.75867 16.8342 10.3746C19.4168 10.1988 20.9391 9.90105 21.2381 9.6751L22.5783 8.65862L23.1342 1.98714C23.1361 1.97167 23.1367 1.95495 23.1379 1.93948C23.1392 1.92895 23.1398 1.91843 23.1404 1.90852ZM12 1.2381C16.3427 1.2381 19.5499 1.54205 21.0802 1.85714C19.5499 2.17224 16.3427 2.47619 12 2.47619C7.65742 2.47619 4.45013 2.17224 2.91984 1.85714C4.45013 1.54205 7.65742 1.2381 12 1.2381Z" fill="#E2D9CF"/>
<path d="M17.9368 11.5316L18.9298 12.5945C19.2671 12.956 19.4442 13.4284 19.4275 13.9249C19.4108 14.4213 19.2021 14.8813 18.8406 15.2187L16.7173 17.2027C16.3731 17.5246 15.9231 17.7017 15.4501 17.7017C14.9363 17.7017 14.4417 17.4875 14.0931 17.1142L12.1091 14.9902C11.4102 14.2424 11.4504 13.065 12.1982 12.3661L12.8507 11.7563C12.4644 11.7613 12.1815 11.7619 12.0509 11.7619C11.7203 11.7619 10.4358 11.7576 8.88324 11.6957C8.8882 11.7006 8.89377 11.7037 8.89872 11.7087L10.8828 13.832C11.2208 14.1935 11.3972 14.6665 11.3805 15.1623C11.3638 15.6594 11.1551 16.1194 10.7936 16.4568L8.67029 18.4402C8.32672 18.7621 7.87667 18.9398 7.4031 18.9398C6.88929 18.9398 6.39467 18.7249 6.04553 18.3517L4.06148 16.2283C3.36196 15.4799 3.4022 14.3025 4.15062 13.6036L6.27396 11.6201C6.30367 11.5923 6.33896 11.5731 6.36991 11.5483C4.39701 11.3874 2.53986 11.1063 1.96724 10.6129L1.56177 10.3257L2.71443 24.1429C2.71443 24.7966 3.28086 25.2497 6.17553 25.6317C7.92001 25.8619 10.0978 26 12.0001 26C13.9025 26 16.0803 25.8619 17.8248 25.6317C20.7194 25.2497 21.2859 24.7959 21.2834 24.1942L22.4398 10.3152L22.0225 10.6315C21.5137 11.097 19.8045 11.37 17.9368 11.5316ZM16.1354 22.0282L14.0121 24.0122C13.6679 24.3341 13.2184 24.5112 12.7455 24.5112C12.2317 24.5112 11.7371 24.2964 11.3879 23.9231L9.40386 21.7998C9.06586 21.4382 8.88943 20.9659 8.90615 20.4694C8.92286 19.9729 9.13148 19.513 9.49301 19.1756L11.6163 17.1916C12.3338 16.5205 13.5707 16.5626 14.2411 17.2807L16.2251 19.404C16.9241 20.1519 16.8838 21.3293 16.1354 22.0282Z" fill="#E2D9CF"/>
</svg>
