<svg width="18" height="32" viewBox="0 0 18 32" fill="none" xmlns="http://www.w3.org/2000/svg">
<path d="M9.33331 28.0133V17.2987C13.8013 16.956 17.3333 13.22 17.3333 8.66537C17.3333 6.78137 16.3266 3.65206 15.5906 1.36669L15.3026 0.466688C15.2146 0.189312 14.9586 0 14.6666 0H2.76531C2.488 0 2.23863 0.172 2.14131 0.430687C1.49731 2.13737 0 6.35338 0 8.66669C0 13.22 3.532 16.9574 8 17.3V28.0147C4.65469 28.1507 1.33331 29.304 1.33331 31.3347C1.33331 31.7014 1.632 32 2 32H15.3333C15.7013 32 16 31.7013 16 31.3333C15.9999 29.3027 12.6773 28.1493 9.33331 28.0133ZM1.36662 9.33331C1.34662 9.11331 1.33331 8.892 1.33331 8.66663C1.33331 7.04794 2.284 3.89731 3.228 1.33331H14.18L14.3213 1.77731C14.9893 3.85331 16 6.992 16 8.66663C16 8.89194 15.9867 9.11331 15.9667 9.33331H1.36662Z" fill="#E2D9CF"/>
</svg>
